<?xml version="1.0" standalone="no"?>
<!DOCTYPE svg PUBLIC "-//W3C//DTD SVG 1.1//EN" "http://www.w3.org/Graphics/SVG/1.1/DTD/svg11.dtd" >
<svg>
<metadata>
Created by FontForge 20090622 at Fri May 25 01:52:12 2018
 By deploy user
Copyright (c) 2012 by Fontfabric LLC. All rights reserved.
</metadata>
<defs>
<font id="Panton-LightCaps" horiz-adv-x="679" >
  <font-face 
    font-family="Panton Light Caps"
    font-weight="400"
    font-variant="small-caps"
    font-stretch="normal"
    units-per-em="1000"
    panose-1="0 0 5 0 0 0 0 0 0 0"
    ascent="740"
    descent="-260"
    x-height="710"
    cap-height="710"
    bbox="-208.783 -252 1142 956.769"
    underline-thickness="50"
    underline-position="-50"
    unicode-range="U+0020-U+FB02"
  />
<missing-glyph horiz-adv-x="686" 
d="M600 13q0 -13 -14 -13h-481q-14 0 -14 13v684q0 13 14 13h481q14 0 14 -13v-684zM553 43v624h-415v-624h415z" />
    <glyph glyph-name="fi" unicode="fi" horiz-adv-x="556" 
d="M474 740q11 0 11 -12v-16q0 -12 -11 -12h-152q-91 0 -124.5 -32t-33.5 -122v-34h310q11 0 11 -11v-489q0 -12 -11 -12h-20q-12 0 -12 12v461h-278v-461q0 -12 -12 -12h-19q-12 0 -12 12v461h-103q-12 0 -12 11v17q0 11 12 11h103v33q0 109 45 152t156 43h152z" />
    <glyph glyph-name="fl" unicode="fl" horiz-adv-x="521" 
d="M435 740q12 0 12 -12v-716q0 -12 -12 -12h-19q-12 0 -12 12v688h-82q-91 0 -124.5 -32t-33.5 -122v-34h134q12 0 12 -11v-17q0 -11 -12 -11h-134v-461q0 -12 -12 -12h-19q-12 0 -12 12v461h-103q-12 0 -12 11v17q0 11 12 11h103v34q0 108 45.5 151t155.5 43h113z" />
    <glyph glyph-name=".notdef" horiz-adv-x="686" 
d="M600 13q0 -13 -14 -13h-481q-14 0 -14 13v684q0 13 14 13h481q14 0 14 -13v-684zM553 43v624h-415v-624h415z" />
    <glyph glyph-name=".null" horiz-adv-x="0" 
 />
    <glyph glyph-name="nonmarkingreturn" horiz-adv-x="333" 
 />
    <glyph glyph-name="space" unicode=" " horiz-adv-x="244" 
 />
    <glyph glyph-name="exclam" unicode="!" horiz-adv-x="189" 
d="M106 740q12 0 12 -12l-6 -566q0 -11 -12 -11h-11q-11 0 -11 11l-6 566q0 12 11 12h23zM97 55q16 0 22 -5.5t6 -21.5v-6q0 -15 -6 -21t-22 -6h-5q-15 0 -21 5.5t-6 21.5v6q0 16 6 21.5t21 5.5h5z" />
    <glyph glyph-name="quotedbl" unicode="&#x22;" horiz-adv-x="268" 
d="M101 494q0 -10 -11 -10h-11q-11 0 -11 10v205q0 7 2 9t9 2h19q12 0 11 -11zM198 494q-1 -10 -12 -10h-11q-11 0 -11 10v205q0 7 2 9t9 2h20q11 0 11 -11z" />
    <glyph glyph-name="numbersign" unicode="#" horiz-adv-x="665" 
d="M619 469q12 0 9 -12l-6 -18q-2 -10 -15 -10h-117l-56 -187h117q13 0 9 -12l-6 -18q-2 -10 -15 -10h-116l-57 -190q-5 -12 -16 -12h-20q-12 0 -8 12l57 190h-176l-57 -190q-1 -12 -14 -12h-20q-12 0 -8 12l56 190h-115q-12 0 -8 11l5 18q4 11 16 11h114l56 187h-115
q-12 0 -9 11l6 18q2 11 16 11h114l50 166q3 12 15 12h20q12 0 8 -12l-50 -166h175l51 166q3 12 14 12h19q13 0 10 -12l-50 -166h117zM391 242l56 187h-176l-56 -187h176z" />
    <glyph glyph-name="dollar" unicode="$" horiz-adv-x="589" 
d="M300 788q12 0 12 -12v-70q85 -6 133.5 -44t87.5 -116q7 -12 -7 -18l-18 -7q-11 -6 -17 5q-36 73 -81 105t-128 32q-178 0 -178 -152q0 -32 12 -55.5t27.5 -36.5t46.5 -21.5t51.5 -11.5t60.5 -7q44 -5 69.5 -9t62 -16t56 -29.5t34.5 -50t15 -76.5q0 -184 -227 -193v-71
q0 -12 -12 -12h-19q-12 0 -12 12v71q-88 5 -140.5 48.5t-84.5 124.5q-5 14 8 19l17 6q12 4 18 -8q32 -75 78 -111.5t129 -36.5q199 0 199 150q0 25 -6.5 44.5t-14.5 32.5t-26 23t-30 15.5t-39 10.5t-39 6.5t-44 4.5q-30 3 -49.5 5.5t-47 8.5t-45 14t-37.5 21t-31.5 30
t-19 42t-7.5 56q0 91 53 141t159 54v70q0 12 12 12h19z" />
    <glyph glyph-name="percent" unicode="%" horiz-adv-x="808" 
d="M38 579q0 68 40 107t115 39t114.5 -38.5t39.5 -107.5v-75q0 -68 -39.5 -106.5t-114.5 -38.5t-115 38.5t-40 106.5v75zM675 710q14 0 6 -13l-505 -686q-9 -11 -25 -11h-16q-16 0 -7 13l505 686q8 11 23 11h19zM310 577q0 53 -30.5 82.5t-86.5 29.5t-86.5 -29.5
t-30.5 -82.5v-71q0 -53 30 -82t87 -29t87 29t30 82v71zM461 204q0 69 40 108t114 39q75 0 115 -39t40 -108v-74q0 -68 -40 -106.5t-115 -38.5q-74 0 -114 38.5t-40 106.5v74zM732 203q0 53 -30.5 82.5t-86.5 29.5t-86.5 -29.5t-30.5 -82.5v-71q0 -53 30 -82t87 -29t87 29
t30 82v71z" />
    <glyph glyph-name="ampersand" unicode="&#x26;" horiz-adv-x="653" 
d="M107 558q0 67 48.5 116.5t125.5 49.5q74 0 124 -48.5t50 -115.5q0 -69 -40 -110.5t-132 -79.5l-10 -4l207 -199l73 69q8 8 16 0l14 -14q7 -7 0 -15l-73 -70l128 -125q12 -12 -6 -12h-27q-11 0 -19 8l-105 102q-83 -76 -135.5 -100t-113.5 -24q-79 0 -133.5 53.5
t-54.5 133.5q0 79 43 124.5t120 79.5q-46 45 -73 87.5t-27 93.5zM413 560q0 50 -37.5 88t-94.5 38q-59 0 -95.5 -38t-36.5 -90q0 -25 7 -47t23.5 -44t29 -35l36.5 -37l19 10q41 17 61 27.5t44 28.5t34 42t10 57zM235 348q-74 -31 -110.5 -70t-36.5 -106q0 -61 42.5 -103
t102.5 -42q52 0 98 22.5t120 89.5z" />
    <glyph glyph-name="quotesingle" unicode="'" horiz-adv-x="172" 
d="M101 494q0 -10 -11 -10h-11q-11 0 -11 10v205q0 7 2 9t9 2h19q12 0 11 -11z" />
    <glyph glyph-name="parenleft" unicode="(" horiz-adv-x="241" 
d="M63 611q0 88 34 139.5t105 83.5q10 5 15 -6l8 -16q5 -9 -6 -16q-58 -27 -86 -68.5t-28 -114.5v-516q0 -73 28 -114.5t86 -68.5q11 -7 6 -16l-8 -16q-5 -11 -15 -6q-71 32 -105 83.5t-34 139.5v512z" />
    <glyph glyph-name="parenright" unicode=")" horiz-adv-x="241" 
d="M24 828q5 11 15 6q71 -32 105 -83.5t34 -139.5v-512q0 -88 -34 -139.5t-105 -83.5q-10 -5 -15 6l-9 16q-4 9 7 16q58 27 86 68.5t28 114.5v516q0 73 -28 114.5t-86 68.5q-11 7 -7 16z" />
    <glyph glyph-name="asterisk" unicode="*" horiz-adv-x="387" 
d="M201 673q9 0 8 -8l-6 -114l107 40q9 3 12 -5l5 -14q2 -10 -6 -11l-112 -29l73 -90q6 -6 -2 -12l-12 -9q-8 -5 -12 3l-62 96l-64 -96q-4 -8 -11 -3l-13 10q-8 5 -1 12l73 89l-110 30q-10 1 -7 10l5 15q4 8 12 4l106 -40l-6 114q-1 8 8 8h15z" />
    <glyph glyph-name="plus" unicode="+" horiz-adv-x="578" 
d="M513 347q12 0 12 -12v-16q0 -12 -12 -12h-204v-203q0 -13 -12 -13h-16q-12 0 -12 13v203h-203q-13 0 -13 12v16q0 12 13 12h203v203q0 13 12 13h16q12 0 12 -13v-203h204z" />
    <glyph glyph-name="comma" unicode="," horiz-adv-x="162" 
d="M52 -110q-4 -11 -15 -11h-8q-9 0 -8 9l38 157q4 15 18 15h17q18 0 13 -15z" />
    <glyph glyph-name="hyphen" unicode="-" horiz-adv-x="426" 
d="M350 286q12 0 12 -12v-17q0 -12 -12 -12h-273q-13 0 -13 12v17q0 12 13 12h273z" />
    <glyph glyph-name="period" unicode="." horiz-adv-x="165" 
d="M85 55q16 0 21.5 -5.5t5.5 -21.5v-6q0 -15 -5.5 -21t-21.5 -6h-5q-16 0 -22 5.5t-6 21.5v6q0 16 6 21.5t22 5.5h5z" />
    <glyph glyph-name="slash" unicode="/" horiz-adv-x="392" 
d="M80 -49q-4 -11 -16 -11h-21q-11 0 -8 11l278 748q4 11 16 11h21q11 0 8 -11z" />
    <glyph glyph-name="zero" unicode="0" horiz-adv-x="622" 
d="M61 497q0 105 66 166t184 61t184 -61t66 -166v-284q0 -106 -66 -166.5t-184 -60.5t-184 60.5t-66 166.5v284zM515 497q0 86 -53.5 135t-150.5 49t-150.5 -49t-53.5 -135v-284q0 -87 53 -135.5t151 -48.5t151 48.5t53 135.5v284z" />
    <glyph glyph-name="one" unicode="1" horiz-adv-x="445" 
d="M340 710q12 0 12 -13v-684q0 -13 -12 -13h-21q-13 0 -13 13v641l-247 -137q-11 -7 -18 5l-10 17q-7 9 5 16l269 150q7 5 18 5h17z" />
    <glyph glyph-name="two" unicode="2" horiz-adv-x="585" 
d="M55 562q35 81 96.5 121.5t159.5 40.5t159.5 -60.5t61.5 -148.5q0 -32 -7 -59.5t-17.5 -48t-31 -40t-37.5 -32t-48 -27.5t-52 -24t-60 -24q-44 -17 -67.5 -27.5t-53.5 -30.5t-43.5 -47t-13.5 -62v-50h415q13 0 13 -12v-18q0 -13 -13 -13h-450q-13 0 -13 13v72
q0 38 12.5 70t30 52t49.5 39.5t56 30t65 26.5q106 40 141 64q77 53 77 146q0 71 -48.5 119.5t-125.5 48.5q-80 0 -130 -33t-81 -102q-5 -11 -16 -7l-20 7q-12 5 -8 16z" />
    <glyph glyph-name="three" unicode="3" horiz-adv-x="592" 
d="M520 527q0 -55 -23.5 -98t-72.5 -62q117 -36 117 -174q0 -98 -58.5 -152.5t-177.5 -54.5q-112 0 -170 44t-84 134q-4 12 8 16l19 7q12 4 16 -8q24 -79 70 -114.5t141 -35.5q189 0 189 164q0 70 -38.5 110t-109.5 40h-167q-12 0 -12 12v17q0 13 12 13h162q66 0 100 40
t34 99q0 76 -43 116.5t-127 40.5q-91 0 -136.5 -34t-68.5 -112q-4 -11 -16 -7l-19 6q-12 4 -8 17q26 88 83 130.5t166 42.5q105 0 159.5 -51.5t54.5 -145.5z" />
    <glyph glyph-name="four" unicode="4" horiz-adv-x="600" 
d="M558 249q12 0 12 -13v-16q0 -13 -12 -13h-105v-194q0 -13 -13 -13h-18q-13 0 -13 13v194h-370q-13 0 -13 13v13q0 9 4 16l371 463q8 9 18 9h21q13 0 13 -14v-458h105zM409 249v407l-327 -407h327z" />
    <glyph glyph-name="five" unicode="5" horiz-adv-x="580" 
d="M498 710q12 0 12 -13v-18q0 -12 -12 -12h-351l-24 -247h187q110 0 168 -60t58 -152q0 -94 -64 -158.5t-173 -64.5q-199 0 -255 156q-4 12 7 16l21 7q12 6 16 -8q45 -128 211 -128q86 0 137.5 51.5t51.5 128.5q0 74 -46.5 121.5t-133.5 47.5h-219q-18 0 -15 17l30 294
q1 22 24 22h370z" />
    <glyph glyph-name="six" unicode="6" horiz-adv-x="615" 
d="M106 371q87 38 216 38q124 0 183.5 -52t59.5 -160q0 -100 -67 -155.5t-186 -55.5q-123 0 -187.5 65.5t-64.5 182.5v242q0 122 64 185t188 63q184 0 243 -151q4 -11 -9 -15l-19 -7q-10 -5 -16 8q-49 122 -199 122q-101 0 -153.5 -52t-52.5 -153v-105zM106 234
q0 -98 53 -151.5t153 -53.5q99 0 153 43.5t54 124.5q0 86 -48.5 127.5t-151.5 41.5q-122 0 -213 -40v-92z" />
    <glyph glyph-name="seven" unicode="7" horiz-adv-x="510" 
d="M485 710q13 0 13 -13v-12q0 -7 -4 -18l-288 -656q-4 -7 -8 -9t-15 -2h-21q-12 0 -6 13l289 654h-404q-13 0 -13 12v18q0 13 13 13h444z" />
    <glyph glyph-name="eight" unicode="8" horiz-adv-x="610" 
d="M71 545q0 86 62 132.5t171 46.5q116 0 175.5 -45t59.5 -131q0 -44 -16 -79t-43.5 -56t-50.5 -32t-49 -19q86 -27 132.5 -68t46.5 -121q0 -187 -255 -187q-253 0 -253 178q0 38 13.5 70.5t33 53t46.5 37.5t46.5 25t41.5 14q-76 26 -118.5 67t-42.5 114zM494 544
q0 68 -48.5 104t-140.5 36q-89 0 -138 -36t-49 -104q0 -31 12 -56t26.5 -39.5t45 -28.5t50.5 -20.5t60 -17.5l15 -4q167 39 167 166zM511 173q0 40 -14.5 68t-47 46.5t-62 28.5t-81.5 24l-23 6l-31.5 -7.5t-45.5 -17.5t-52.5 -31.5t-39 -50t-17.5 -71.5q0 -142 208 -142
q206 0 206 147z" />
    <glyph glyph-name="nine" unicode="9" horiz-adv-x="615" 
d="M509 339q-91 -38 -216 -38q-124 0 -183.5 52t-59.5 160q0 100 66.5 155.5t185.5 55.5q123 0 188 -65.5t65 -182.5v-242q0 -121 -64.5 -184.5t-188.5 -63.5q-185 0 -242 151q-4 11 8 15l19 7q12 5 16 -8q49 -122 199 -122q101 0 154 52t53 153v105zM509 476
q0 98 -53 151.5t-154 53.5q-99 0 -152.5 -43.5t-53.5 -124.5q0 -86 48 -127.5t151 -41.5q117 0 214 40v92z" />
    <glyph glyph-name="colon" unicode=":" horiz-adv-x="188" 
d="M97 482q15 0 21 -6t6 -22v-5q0 -16 -6 -22t-21 -6h-5q-16 0 -22 6t-6 22v5q0 16 6 22t22 6h5zM97 55q15 0 21 -5.5t6 -21.5v-6q0 -15 -6 -21t-21 -6h-5q-16 0 -22 5.5t-6 21.5v6q0 16 6 21.5t22 5.5h5z" />
    <glyph glyph-name="semicolon" unicode=";" horiz-adv-x="225" 
d="M126 482q15 0 21 -6t6 -22v-5q0 -16 -6 -22t-21 -6h-5q-16 0 -22 6t-6 22v5q0 16 6 22t22 6h5zM88 -110q-4 -11 -14 -11h-9q-9 0 -8 9l38 157q4 15 18 15h17q19 0 13 -15z" />
    <glyph glyph-name="less" unicode="&#x3c;" horiz-adv-x="504" 
d="M424 551q15 8 15 -9v-17q0 -14 -13 -22l-330 -175v-2l330 -176q9 -5 11 -8t2 -13v-19q0 -17 -15 -9l-374 202q-11 7 -11 17v12q0 12 11 17z" />
    <glyph glyph-name="equal" unicode="=" horiz-adv-x="602" 
d="M525 447q12 0 12 -13v-17q0 -12 -12 -12h-447q-13 0 -13 12v17q0 13 13 13h447zM525 249q12 0 12 -13v-16q0 -13 -12 -13h-447q-13 0 -13 13v16q0 13 13 13h447z" />
    <glyph glyph-name="greater" unicode="&#x3e;" horiz-adv-x="504" 
d="M65 542q0 17 14 10l374 -203q12 -5 12 -17v-12q0 -10 -12 -17l-374 -202q-14 -8 -14 9v17q0 10 2 13.5t11 8.5l330 175v2l-330 176q-9 5 -11 8t-2 14v18z" />
    <glyph glyph-name="question" unicode="?" horiz-adv-x="553" 
d="M33 575q64 165 250 165q108 0 171.5 -59t63.5 -147q0 -39 -9.5 -72t-21 -53.5t-35 -42.5t-37 -31.5t-41.5 -27.5q-33 -22 -51 -38t-34.5 -47t-16.5 -69q0 -13 -12 -13h-16q-12 0 -12 13q0 37 9 66t28 51.5t35 35.5t44 32q31 21 46.5 33.5t37 36.5t31 54.5t9.5 70.5
q0 72 -50.5 119t-139.5 47q-152 0 -207 -138q-5 -12 -16 -8l-19 6q-11 4 -7 16zM255 55q15 0 21 -5.5t6 -21.5v-6q0 -15 -6 -21t-21 -6h-5q-16 0 -22 5.5t-6 21.5v6q0 16 6 21.5t22 5.5h5z" />
    <glyph glyph-name="at" unicode="@" horiz-adv-x="900" 
d="M50 326q0 185 105.5 291.5t291.5 106.5q191 0 295 -108t104 -290v-69q0 -101 -51 -155.5t-124 -54.5q-51 0 -62 43q-80 -40 -187 -40q-171 0 -171 162v158q0 78 42.5 121t128.5 43q101 0 175 -30q20 -8 27 -17.5t7 -30.5v-336q0 -39 41 -39q57 0 97.5 44t40.5 132v70
q0 168 -94.5 266t-268.5 98q-169 0 -264.5 -97t-95.5 -267v-70q0 -171 94.5 -263.5t265.5 -92.5q31 0 62.5 2.5t57.5 6.5t45.5 8t34.5 8l15 3q7 1 7 -4v-19q0 -8 -8 -11q-95 -27 -214 -27q-188 0 -292.5 101.5t-104.5 287.5v69zM572 475q-56 23 -146 23q-136 0 -136 -129
v-156q0 -128 136 -128q106 0 167 39v322q0 13 -4 18.5t-17 10.5z" />
    <glyph glyph-name="A" unicode="A" horiz-adv-x="632" 
d="M620 12q5 -12 -10 -12h-18q-20 0 -22 11l-89 221h-332l-88 -221q-4 -11 -23 -11h-17q-14 0 -9 12l277 691q5 12 17 12h20q13 0 17 -12zM326 626q-3 9 -10 43h-3q0 -20 -8 -43l-142 -355h305z" />
    <glyph glyph-name="B" unicode="B" horiz-adv-x="640" 
d="M379 710q90 0 139 -46t49 -133q0 -127 -104 -164v-2q128 -28 128 -176q0 -90 -53 -139.5t-146 -49.5h-297q-13 0 -13 13v684q0 13 13 13h284zM520 526q0 69 -37.5 105t-108.5 36h-246v-284h246q70 0 108 36t38 107zM543 193q0 72 -39.5 110t-113.5 38h-262v-298h262
q74 0 113.5 38.5t39.5 111.5z" />
    <glyph glyph-name="C" unicode="C" horiz-adv-x="634" 
d="M61 478q0 116 69 181t200 65q113 0 175 -43t88 -131q3 -11 -9 -17l-18 -6q-13 -3 -17 8q-23 76 -73.5 111t-145.5 35q-109 0 -166 -53t-57 -149v-247q0 -95 58 -149t165 -54q97 0 147 36.5t74 114.5q5 12 17 8l19 -7q12 -4 8 -16q-27 -90 -88.5 -134.5t-176.5 -44.5
q-129 0 -199 65.5t-70 181.5v245z" />
    <glyph glyph-name="D" unicode="D" horiz-adv-x="646" 
d="M299 710q138 0 214 -70.5t76 -193.5v-182q0 -123 -76 -193.5t-214 -70.5h-204q-13 0 -13 13v684q0 13 13 13h204zM543 446q0 105 -63 163t-180 58h-172v-624h172q116 0 179.5 58t63.5 163v182z" />
    <glyph glyph-name="E" unicode="E" horiz-adv-x="570" 
d="M503 710q13 0 13 -13v-18q0 -12 -13 -12h-375v-286h332q12 0 12 -12v-18q0 -13 -12 -13h-332v-295h389q13 0 13 -12v-18q0 -13 -13 -13h-422q-13 0 -13 13v684q0 13 13 13h408z" />
    <glyph glyph-name="F" unicode="F" horiz-adv-x="551" 
d="M503 710q13 0 13 -13v-18q0 -12 -13 -12h-375v-296h326q13 0 13 -13v-18q0 -12 -13 -12h-326v-315q0 -13 -12 -13h-21q-13 0 -13 13v684q0 13 13 13h408z" />
    <glyph glyph-name="G" unicode="G" horiz-adv-x="651" 
d="M586 358q13 0 13 -14v-117q0 -111 -70 -176t-198 -65q-130 0 -200 66t-70 182v244q0 116 69 181t200 65q113 0 175 -43t88 -131q3 -11 -9 -17l-18 -6q-13 -4 -17 8q-23 76 -73.5 111t-145.5 35q-110 0 -166.5 -53t-56.5 -149v-245q0 -97 58 -151t166 -54q107 0 165 53
t58 145v87h-214q-13 0 -13 13v18q0 13 13 13h246z" />
    <glyph glyph-name="H" unicode="H" 
d="M584 710q13 0 13 -13v-684q0 -13 -13 -13h-21q-12 0 -12 13v325h-423v-325q0 -13 -12 -13h-21q-13 0 -13 13v684q0 13 13 13h21q12 0 12 -13v-316h423v316q0 13 12 13h21z" />
    <glyph glyph-name="I" unicode="I" horiz-adv-x="210" 
d="M82 697q0 13 13 13h21q12 0 12 -13v-684q0 -13 -12 -13h-21q-13 0 -13 13v684z" />
    <glyph glyph-name="J" unicode="J" horiz-adv-x="567" 
d="M478 710q12 0 12 -12v-481q0 -108 -61.5 -170t-174.5 -62q-194 0 -232 197q-4 13 8 17l20 7q12 4 16 -8q16 -84 60.5 -126.5t127.5 -42.5q92 0 141 49.5t49 138.5v481q0 12 12 12h22z" />
    <glyph glyph-name="K" unicode="K" horiz-adv-x="600" 
d="M579 13q7 -13 -7 -13h-20q-19 0 -25 11l-117 233q-26 51 -60 73t-95 22h-127v-326q0 -13 -12 -13h-21q-13 0 -13 13v684q0 13 13 13h21q12 0 12 -13v-316h124q18 0 25 -1l236 319q9 11 26 11h23q15 0 6 -13l-243 -325q44 -10 74 -36.5t54 -73.5z" />
    <glyph glyph-name="L" unicode="L" horiz-adv-x="518" 
d="M116 710q12 0 12 -13v-654h364q12 0 12 -12v-18q0 -13 -12 -13h-397q-13 0 -13 13v684q0 13 13 13h21z" />
    <glyph glyph-name="M" unicode="M" horiz-adv-x="795" 
d="M701 710q12 0 12 -13v-684q0 -13 -12 -13h-20q-12 0 -12 13v459q0 84 7 167h-2q-37 -76 -75 -143l-178 -316q-5 -10 -16 -10h-13q-13 0 -17 10l-181 320q-36 61 -72 139h-2q6 -88 6 -167v-459q0 -13 -13 -13h-18q-13 0 -13 13v684q0 13 13 13h16q12 0 19 -11l268 -473
l266 472q7 12 18 12h19z" />
    <glyph glyph-name="N" unicode="N" horiz-adv-x="688" 
d="M594 710q12 0 12 -13v-684q0 -13 -12 -13h-21q-9 0 -14 8l-355 506q-18 25 -44.5 71t-36.5 59h-2q0 -16 3 -73t3 -92v-466q0 -13 -12 -13h-20q-13 0 -13 13v684q0 13 13 13h20q9 0 14 -7l345 -493q20 -28 50.5 -78t41.5 -65h2q0 19 -3.5 80.5t-3.5 99.5v451q0 12 13 12
h20z" />
    <glyph glyph-name="O" unicode="O" horiz-adv-x="660" 
d="M61 477q0 116 70 181.5t200 65.5q129 0 198.5 -65.5t69.5 -181.5v-244q0 -116 -69.5 -181.5t-198.5 -65.5q-130 0 -200 65.5t-70 181.5v244zM553 477q0 97 -57.5 150.5t-164.5 53.5q-109 0 -166.5 -53.5t-57.5 -150.5v-244q0 -97 57.5 -150.5t166.5 -53.5
q107 0 164.5 53.5t57.5 150.5v244z" />
    <glyph glyph-name="P" unicode="P" horiz-adv-x="618" 
d="M364 710q102 0 161.5 -58t59.5 -160q0 -101 -59.5 -158.5t-161.5 -57.5h-236v-263q0 -13 -12 -13h-21q-13 0 -13 13v684q0 13 13 13h269zM360 319q82 0 129.5 46t47.5 127q0 82 -47.5 128.5t-129.5 46.5h-232v-348h232z" />
    <glyph glyph-name="Q" unicode="Q" horiz-adv-x="670" 
d="M611 -28q8 -9 -2 -18l-14 -11q-9 -9 -18 1l-75 89q-64 -47 -171 -47q-130 0 -200 65.5t-70 181.5v244q0 116 70 181.5t200 65.5q129 0 198.5 -65.5t69.5 -181.5v-244q0 -110 -62 -174zM107 233q0 -97 57.5 -150.5t166.5 -53.5q107 0 164.5 53.5t57.5 150.5v244
q0 97 -57.5 150.5t-164.5 53.5q-109 0 -166.5 -53.5t-57.5 -150.5v-244z" />
    <glyph glyph-name="R" unicode="R" horiz-adv-x="640" 
d="M382 710q95 0 149 -52.5t54 -147.5q0 -85 -47 -135.5t-129 -57.5q49 -21 82 -82l112 -222q9 -13 -7 -13h-19q-20 0 -25 11l-104 206q-26 51 -60 73t-95 22h-165v-299q0 -13 -12 -13h-21q-13 0 -13 13v684q0 13 13 13h287zM537 510q0 75 -42 116t-118 41h-249v-312h249
q76 0 118 40.5t42 114.5z" />
    <glyph glyph-name="S" unicode="S" horiz-adv-x="622" 
d="M56 525q0 92 66.5 145.5t184.5 53.5q99 0 160.5 -37t101.5 -118q7 -12 -6 -17l-20 -9q-10 -4 -16 6q-34 68 -85.5 99.5t-134.5 31.5q-97 0 -150.5 -40t-53.5 -112q0 -34 13 -59.5t32.5 -40.5t52 -25.5t59 -15t67.5 -8.5q45 -5 73.5 -10t65.5 -18t58.5 -32t36.5 -52
t15 -77q0 -98 -67.5 -151t-196.5 -53q-104 0 -168.5 42.5t-100.5 132.5q-5 13 7 18l19 7q11 4 17 -8q63 -148 226 -148q218 0 218 158q0 34 -12.5 59t-30 39.5t-49.5 24.5t-56 14t-65 9q-39 5 -63.5 9t-59 12.5t-55.5 21.5t-42 32.5t-31 48.5t-10 67z" />
    <glyph glyph-name="T" unicode="T" horiz-adv-x="532" 
d="M506 710q13 0 13 -13v-18q0 -12 -13 -12h-217v-654q0 -13 -12 -13h-21q-13 0 -13 13v654h-217q-13 0 -13 12v18q0 13 13 13h480z" />
    <glyph glyph-name="U" unicode="U" 
d="M122 240q0 -99 55 -155.5t163 -56.5q107 0 162 56.5t55 155.5v457q0 13 12 13h22q12 0 12 -13v-457q0 -119 -67 -187t-196 -68q-130 0 -197 68t-67 187v457q0 13 13 13h21q12 0 12 -13v-457z" />
    <glyph glyph-name="V" unicode="V" horiz-adv-x="613" 
d="M592 710q13 0 8 -12l-267 -686q-4 -12 -17 -12h-19q-13 0 -17 11l-267 687q-5 12 8 12h19q18 0 22 -11l222 -575q5 -13 12.5 -37t9.5 -30h3q2 6 9 30t12 37l221 575q4 11 22 11h19z" />
    <glyph glyph-name="W" unicode="W" horiz-adv-x="870" 
d="M838 710q12 0 8 -12l-185 -686q-4 -12 -17 -12h-20q-15 0 -17 11l-149 527q-10 37 -21 91h-3q-11 -57 -22 -91l-149 -526q-2 -12 -17 -12h-19q-15 0 -17 11l-186 687q-3 12 8 12h25q15 0 17 -11l143 -538q4 -15 10.5 -49t9.5 -46h2q1 5 9 40.5t13 53.5l149 523
q2 12 17 12h20q15 0 17 -12l149 -525q5 -20 21 -92h3q7 41 18 92l144 541q2 11 17 11h22z" />
    <glyph glyph-name="X" unicode="X" horiz-adv-x="607" 
d="M589 15q11 -15 -5 -15h-26q-17 0 -24 11l-232 314l-230 -314q-8 -11 -24 -11h-25q-15 0 -6 15l257 345l-250 338q-8 12 7 12h26q16 0 23 -11l224 -302l223 302q7 11 23 11h26q6 0 8 -4t-2 -8l-249 -337z" />
    <glyph glyph-name="Y" unicode="Y" horiz-adv-x="619" 
d="M596 710q14 0 7 -13l-271 -405v-279q0 -13 -12 -13h-21q-13 0 -13 13v280l-270 404q-7 13 7 13h27q18 0 23 -11l237 -359l237 359q7 11 24 11h25z" />
    <glyph glyph-name="Z" unicode="Z" horiz-adv-x="555" 
d="M502 710q13 0 13 -13v-16q0 -10 -5 -16l-421 -621h425q13 0 13 -13v-18q0 -13 -13 -13h-470q-12 0 -12 13v17q0 10 5 17l420 620h-408q-13 0 -13 12v18q0 13 13 13h453z" />
    <glyph glyph-name="bracketleft" unicode="[" horiz-adv-x="257" 
d="M232 856q7 0 9.5 -2t2.5 -9v-17q0 -7 -2.5 -9t-9.5 -2h-120v-923h120q8 0 10 -2t2 -10v-17q0 -7 -2.5 -9t-9.5 -2h-151q-7 0 -9 2.5t-2 9.5v978q0 7 2 9.5t9 2.5h151z" />
    <glyph glyph-name="backslash" unicode="\" horiz-adv-x="392" 
d="M34 699q-3 11 8 11h22q12 0 16 -11l278 -748q3 -11 -8 -11h-22q-12 0 -16 11z" />
    <glyph glyph-name="bracketright" unicode="]" horiz-adv-x="257" 
d="M175 856q7 0 9.5 -2t2.5 -10v-978q0 -8 -2.5 -10t-9.5 -2h-150q-7 0 -9.5 2t-2.5 9v17q0 8 2.5 10t9.5 2h120v923h-120q-7 0 -9.5 2t-2.5 9v17q0 7 2.5 9t9.5 2h150z" />
    <glyph glyph-name="asciicircum" unicode="^" horiz-adv-x="594" 
d="M301 810q9 0 16 -10l220 -265q10 -15 -7 -15h-20q-14 0 -23 11l-191 233h-3l-187 -233q-9 -11 -24 -11h-19q-18 0 -6 15l216 265q7 10 16 10h12z" />
    <glyph glyph-name="underscore" unicode="_" horiz-adv-x="510" 
d="M469 0q12 0 12 -13v-16q0 -13 -12 -13h-427q-13 0 -13 13v16q0 13 13 13h427z" />
    <glyph glyph-name="grave" unicode="`" horiz-adv-x="257" 
d="M37 722q7 8 22 1l169 -107q9 -5 2 -13l-7 -8q-5 -6 -16 -2l-178 103q-10 4 -2 15z" />
    <glyph glyph-name="a" unicode="a" horiz-adv-x="632" 
d="M620 12q5 -12 -10 -12h-18q-20 0 -22 11l-89 221h-332l-88 -221q-4 -11 -23 -11h-17q-14 0 -9 12l277 691q5 12 17 12h20q13 0 17 -12zM326 626q-3 9 -10 43h-3q0 -20 -8 -43l-142 -355h305z" />
    <glyph glyph-name="b" unicode="b" horiz-adv-x="640" 
d="M379 710q90 0 139 -46t49 -133q0 -127 -104 -164v-2q128 -28 128 -176q0 -90 -53 -139.5t-146 -49.5h-297q-13 0 -13 13v684q0 13 13 13h284zM520 526q0 69 -37.5 105t-108.5 36h-246v-284h246q70 0 108 36t38 107zM543 193q0 72 -39.5 110t-113.5 38h-262v-298h262
q74 0 113.5 38.5t39.5 111.5z" />
    <glyph glyph-name="c" unicode="c" horiz-adv-x="634" 
d="M61 478q0 116 69 181t200 65q113 0 175 -43t88 -131q3 -11 -9 -17l-18 -6q-13 -3 -17 8q-23 76 -73.5 111t-145.5 35q-109 0 -166 -53t-57 -149v-247q0 -95 58 -149t165 -54q97 0 147 36.5t74 114.5q5 12 17 8l19 -7q12 -4 8 -16q-27 -90 -88.5 -134.5t-176.5 -44.5
q-129 0 -199 65.5t-70 181.5v245z" />
    <glyph glyph-name="d" unicode="d" horiz-adv-x="646" 
d="M299 710q138 0 214 -70.5t76 -193.5v-182q0 -123 -76 -193.5t-214 -70.5h-204q-13 0 -13 13v684q0 13 13 13h204zM543 446q0 105 -63 163t-180 58h-172v-624h172q116 0 179.5 58t63.5 163v182z" />
    <glyph glyph-name="e" unicode="e" horiz-adv-x="570" 
d="M503 710q13 0 13 -13v-18q0 -12 -13 -12h-375v-286h332q12 0 12 -12v-18q0 -13 -12 -13h-332v-295h389q13 0 13 -12v-18q0 -13 -13 -13h-422q-13 0 -13 13v684q0 13 13 13h408z" />
    <glyph glyph-name="f" unicode="f" horiz-adv-x="551" 
d="M503 710q13 0 13 -13v-18q0 -12 -13 -12h-375v-296h326q13 0 13 -13v-18q0 -12 -13 -12h-326v-315q0 -13 -12 -13h-21q-13 0 -13 13v684q0 13 13 13h408z" />
    <glyph glyph-name="g" unicode="g" horiz-adv-x="651" 
d="M586 358q13 0 13 -14v-117q0 -111 -70 -176t-198 -65q-130 0 -200 66t-70 182v244q0 116 69 181t200 65q113 0 175 -43t88 -131q3 -11 -9 -17l-18 -6q-13 -4 -17 8q-23 76 -73.5 111t-145.5 35q-110 0 -166.5 -53t-56.5 -149v-245q0 -97 58 -151t166 -54q107 0 165 53
t58 145v87h-214q-13 0 -13 13v18q0 13 13 13h246z" />
    <glyph glyph-name="h" unicode="h" 
d="M584 710q13 0 13 -13v-684q0 -13 -13 -13h-21q-12 0 -12 13v325h-423v-325q0 -13 -12 -13h-21q-13 0 -13 13v684q0 13 13 13h21q12 0 12 -13v-316h423v316q0 13 12 13h21z" />
    <glyph glyph-name="i" unicode="i" horiz-adv-x="210" 
d="M82 697q0 13 13 13h21q12 0 12 -13v-684q0 -13 -12 -13h-21q-13 0 -13 13v684z" />
    <glyph glyph-name="j" unicode="j" horiz-adv-x="567" 
d="M478 710q12 0 12 -12v-481q0 -108 -61.5 -170t-174.5 -62q-194 0 -232 197q-4 13 8 17l20 7q12 4 16 -8q16 -84 60.5 -126.5t127.5 -42.5q92 0 141 49.5t49 138.5v481q0 12 12 12h22z" />
    <glyph glyph-name="k" unicode="k" horiz-adv-x="600" 
d="M579 13q7 -13 -7 -13h-20q-19 0 -25 11l-117 233q-26 51 -60 73t-95 22h-127v-326q0 -13 -12 -13h-21q-13 0 -13 13v684q0 13 13 13h21q12 0 12 -13v-316h124q18 0 25 -1l236 319q9 11 26 11h23q15 0 6 -13l-243 -325q44 -10 74 -36.5t54 -73.5z" />
    <glyph glyph-name="l" unicode="l" horiz-adv-x="518" 
d="M116 710q12 0 12 -13v-654h364q12 0 12 -12v-18q0 -13 -12 -13h-397q-13 0 -13 13v684q0 13 13 13h21z" />
    <glyph glyph-name="m" unicode="m" horiz-adv-x="795" 
d="M701 710q12 0 12 -13v-684q0 -13 -12 -13h-20q-12 0 -12 13v459q0 84 7 167h-2q-37 -76 -75 -143l-178 -316q-5 -10 -16 -10h-13q-13 0 -17 10l-181 320q-36 61 -72 139h-2q6 -88 6 -167v-459q0 -13 -13 -13h-18q-13 0 -13 13v684q0 13 13 13h16q12 0 19 -11l268 -473
l266 472q7 12 18 12h19z" />
    <glyph glyph-name="n" unicode="n" horiz-adv-x="688" 
d="M594 710q12 0 12 -13v-684q0 -13 -12 -13h-21q-9 0 -14 8l-355 506q-18 25 -44.5 71t-36.5 59h-2q0 -16 3 -73t3 -92v-466q0 -13 -12 -13h-20q-13 0 -13 13v684q0 13 13 13h20q9 0 14 -7l345 -493q20 -28 50.5 -78t41.5 -65h2q0 19 -3.5 80.5t-3.5 99.5v451q0 12 13 12
h20z" />
    <glyph glyph-name="o" unicode="o" horiz-adv-x="660" 
d="M61 477q0 116 70 181.5t200 65.5q129 0 198.5 -65.5t69.5 -181.5v-244q0 -116 -69.5 -181.5t-198.5 -65.5q-130 0 -200 65.5t-70 181.5v244zM553 477q0 97 -57.5 150.5t-164.5 53.5q-109 0 -166.5 -53.5t-57.5 -150.5v-244q0 -97 57.5 -150.5t166.5 -53.5
q107 0 164.5 53.5t57.5 150.5v244z" />
    <glyph glyph-name="p" unicode="p" horiz-adv-x="618" 
d="M364 710q102 0 161.5 -58t59.5 -160q0 -101 -59.5 -158.5t-161.5 -57.5h-236v-263q0 -13 -12 -13h-21q-13 0 -13 13v684q0 13 13 13h269zM360 319q82 0 129.5 46t47.5 127q0 82 -47.5 128.5t-129.5 46.5h-232v-348h232z" />
    <glyph glyph-name="q" unicode="q" horiz-adv-x="670" 
d="M611 -28q8 -9 -2 -18l-14 -11q-9 -9 -18 1l-75 89q-64 -47 -171 -47q-130 0 -200 65.5t-70 181.5v244q0 116 70 181.5t200 65.5q129 0 198.5 -65.5t69.5 -181.5v-244q0 -110 -62 -174zM107 233q0 -97 57.5 -150.5t166.5 -53.5q107 0 164.5 53.5t57.5 150.5v244
q0 97 -57.5 150.5t-164.5 53.5q-109 0 -166.5 -53.5t-57.5 -150.5v-244z" />
    <glyph glyph-name="r" unicode="r" horiz-adv-x="640" 
d="M382 710q95 0 149 -52.5t54 -147.5q0 -85 -47 -135.5t-129 -57.5q49 -21 82 -82l112 -222q9 -13 -7 -13h-19q-20 0 -25 11l-104 206q-26 51 -60 73t-95 22h-165v-299q0 -13 -12 -13h-21q-13 0 -13 13v684q0 13 13 13h287zM537 510q0 75 -42 116t-118 41h-249v-312h249
q76 0 118 40.5t42 114.5z" />
    <glyph glyph-name="s" unicode="s" horiz-adv-x="622" 
d="M56 525q0 92 66.5 145.5t184.5 53.5q99 0 160.5 -37t101.5 -118q7 -12 -6 -17l-20 -9q-10 -4 -16 6q-34 68 -85.5 99.5t-134.5 31.5q-97 0 -150.5 -40t-53.5 -112q0 -34 13 -59.5t32.5 -40.5t52 -25.5t59 -15t67.5 -8.5q45 -5 73.5 -10t65.5 -18t58.5 -32t36.5 -52
t15 -77q0 -98 -67.5 -151t-196.5 -53q-104 0 -168.5 42.5t-100.5 132.5q-5 13 7 18l19 7q11 4 17 -8q63 -148 226 -148q218 0 218 158q0 34 -12.5 59t-30 39.5t-49.5 24.5t-56 14t-65 9q-39 5 -63.5 9t-59 12.5t-55.5 21.5t-42 32.5t-31 48.5t-10 67z" />
    <glyph glyph-name="t" unicode="t" horiz-adv-x="532" 
d="M506 710q13 0 13 -13v-18q0 -12 -13 -12h-217v-654q0 -13 -12 -13h-21q-13 0 -13 13v654h-217q-13 0 -13 12v18q0 13 13 13h480z" />
    <glyph glyph-name="u" unicode="u" 
d="M122 240q0 -99 55 -155.5t163 -56.5q107 0 162 56.5t55 155.5v457q0 13 12 13h22q12 0 12 -13v-457q0 -119 -67 -187t-196 -68q-130 0 -197 68t-67 187v457q0 13 13 13h21q12 0 12 -13v-457z" />
    <glyph glyph-name="v" unicode="v" horiz-adv-x="613" 
d="M592 710q13 0 8 -12l-267 -686q-4 -12 -17 -12h-19q-13 0 -17 11l-267 687q-5 12 8 12h19q18 0 22 -11l222 -575q5 -13 12.5 -37t9.5 -30h3q2 6 9 30t12 37l221 575q4 11 22 11h19z" />
    <glyph glyph-name="w" unicode="w" horiz-adv-x="870" 
d="M838 710q12 0 8 -12l-185 -686q-4 -12 -17 -12h-20q-15 0 -17 11l-149 527q-10 37 -21 91h-3q-11 -57 -22 -91l-149 -526q-2 -12 -17 -12h-19q-15 0 -17 11l-186 687q-3 12 8 12h25q15 0 17 -11l143 -538q4 -15 10.5 -49t9.5 -46h2q1 5 9 40.5t13 53.5l149 523
q2 12 17 12h20q15 0 17 -12l149 -525q5 -20 21 -92h3q7 41 18 92l144 541q2 11 17 11h22z" />
    <glyph glyph-name="x" unicode="x" horiz-adv-x="607" 
d="M589 15q11 -15 -5 -15h-26q-17 0 -24 11l-232 314l-230 -314q-8 -11 -24 -11h-25q-15 0 -6 15l257 345l-250 338q-8 12 7 12h26q16 0 23 -11l224 -302l223 302q7 11 23 11h26q6 0 8 -4t-2 -8l-249 -337z" />
    <glyph glyph-name="y" unicode="y" horiz-adv-x="619" 
d="M596 710q14 0 7 -13l-271 -405v-279q0 -13 -12 -13h-21q-13 0 -13 13v280l-270 404q-7 13 7 13h27q18 0 23 -11l237 -359l237 359q7 11 24 11h25z" />
    <glyph glyph-name="z" unicode="z" horiz-adv-x="555" 
d="M502 710q13 0 13 -13v-16q0 -10 -5 -16l-421 -621h425q13 0 13 -13v-18q0 -13 -13 -13h-470q-12 0 -12 13v17q0 10 5 17l420 620h-408q-13 0 -13 12v18q0 13 13 13h453z" />
    <glyph glyph-name="braceleft" unicode="{" horiz-adv-x="306" 
d="M283 856q11 0 11 -12v-16q0 -12 -11 -12h-44q-43 0 -62 -21.5t-19 -66.5v-255q0 -92 -66 -119q66 -22 66 -119v-254q0 -45 19 -66.5t62 -21.5h44q11 0 11 -12v-16q0 -12 -11 -12h-44q-67 0 -95 30t-28 96v251q0 52 -21 77t-70 25h-11q-10 0 -10 12v20q0 12 10 12h11
q49 0 70 25.5t21 76.5v252q0 66 28 96t94 30h45z" />
    <glyph glyph-name="bar" unicode="|" horiz-adv-x="181" 
d="M99 856q12 0 12 -12v-979q0 -12 -12 -12h-18q-11 0 -11 12v979q0 12 11 12h18z" />
    <glyph glyph-name="braceright" unicode="}" horiz-adv-x="306" 
d="M67 856q66 0 94.5 -30t28.5 -96v-252q0 -51 21 -76.5t70 -25.5h11q10 0 10 -12v-20q0 -12 -10 -12h-11q-49 0 -70 -25t-21 -77v-251q0 -66 -28 -96t-95 -30h-44q-12 0 -12 12v16q0 12 12 12h43q44 0 63 21.5t19 66.5v254q0 97 66 119q-66 26 -66 119v255q0 45 -19 66.5
t-63 21.5h-43q-12 0 -12 12v16q0 12 12 12h44z" />
    <glyph glyph-name="asciitilde" unicode="~" horiz-adv-x="562" 
d="M71 314q53 50 116 50q41 0 97 -22.5t89 -22.5q49 0 92 40q9 7 17 -1l12 -11q10 -8 0 -18q-56 -49 -117 -49q-41 0 -97 22t-89 22q-47 0 -92 -40q-8 -7 -17 1l-11 11q-10 9 0 18z" />
    <glyph glyph-name="exclamdown" unicode="&#xa1;" horiz-adv-x="178" 
d="M87 454q-16 0 -21.5 6t-5.5 21v6q0 16 5.5 21.5t21.5 5.5h5q16 0 21.5 -5.5t5.5 -21.5v-6q0 -15 -5.5 -21t-21.5 -6h-5zM78 -231q-12 0 -12 12l6 566q0 12 12 12h11q11 0 11 -12l6 -566q1 -12 -11 -12h-23z" />
    <glyph glyph-name="cent" unicode="&#xa2;" horiz-adv-x="533" 
d="M473 146q12 -5 7 -16q-21 -68 -66.5 -103.5t-122.5 -39.5v-59q0 -12 -12 -12h-20q-12 0 -12 12v59q-92 4 -141 55t-49 138v153q0 86 48.5 136.5t141.5 55.5v73q0 12 12 12h20q12 0 12 -12v-73q80 -4 123.5 -37.5t62.5 -97.5q4 -13 -8 -17l-16 -6q-11 -4 -17 8
q-18 59 -56 86t-111 27q-83 0 -126 -40.5t-43 -112.5v-156q0 -72 44 -113t125 -41q71 0 112 29t58 90q4 12 16 8z" />
    <glyph glyph-name="sterling" unicode="&#xa3;" horiz-adv-x="629" 
d="M146 542q0 81 51.5 131.5t155.5 50.5q85 0 138.5 -36t81.5 -119q5 -12 -8 -16l-19 -7q-10 -5 -16 8q-26 71 -67 99t-109 28q-81 0 -120.5 -38.5t-39.5 -101.5v-182h277q12 0 12 -13v-15q0 -13 -12 -13h-277v-168q0 -72 -50 -108v-2q96 3 116 3h301q12 0 12 -12v-18
q0 -13 -12 -13h-511q-12 0 -12 13v18q0 11 8 11h22q40 2 59 34t19 73v169h-84q-13 0 -13 13v15q0 13 13 13h84v183z" />
    <glyph glyph-name="currency" unicode="&#xa4;" horiz-adv-x="594" 
d="M528 138q8 -8 0 -17l-14 -14q-8 -8 -16 0l-57 56q-62 -54 -144 -54q-80 0 -143 52l-56 -56q-8 -8 -16 0l-14 14q-8 8 0 16l56 57q-54 60 -54 144q0 82 53 143l-57 57q-8 8 0 16l14 14q8 8 17 0l56 -56q63 53 144 53q82 0 142 -52l56 56q9 9 17 0l14 -13q8 -8 0 -17
l-56 -56q54 -62 54 -145q0 -80 -52 -142zM297 522q-78 0 -132 -53.5t-54 -131.5t54 -132.5t132 -54.5t132 54.5t54 132.5t-54 131.5t-132 53.5z" />
    <glyph glyph-name="yen" unicode="&#xa5;" horiz-adv-x="629" 
d="M591 710q14 0 7 -13l-242 -358h146q12 0 12 -12v-12q0 -11 -12 -11h-164v-108h164q12 0 12 -12v-12q0 -11 -12 -11h-164v-148q0 -13 -13 -13h-21q-12 0 -12 13v148h-166q-12 0 -12 11v12q0 12 12 12h166v108h-166q-12 0 -12 11v12q0 12 12 12h148l-242 358q-7 13 7 13h24
q17 0 23 -11l230 -345l229 345q7 11 24 11h22z" />
    <glyph glyph-name="brokenbar" unicode="&#xa6;" horiz-adv-x="190" 
d="M104 856q11 0 11 -12v-401q0 -12 -11 -12h-18q-11 0 -11 12v401q0 12 11 12h18zM104 279q11 0 11 -12v-401q0 -12 -11 -12h-18q-11 0 -11 12v401q0 12 11 12h18z" />
    <glyph glyph-name="section" unicode="&#xa7;" horiz-adv-x="590" 
d="M62 555q0 81 56.5 128t171.5 47q181 0 242 -168q5 -12 -8 -17l-18 -8q-12 -5 -17 8q-51 142 -199 142q-94 0 -138 -35t-44 -97q0 -32 12 -55t27.5 -35.5t46 -21.5t51 -12.5t59.5 -7.5t66.5 -9t60 -17t52.5 -29t33.5 -46t13.5 -67q0 -100 -101 -154q109 -35 109 -149
q0 -80 -60.5 -127.5t-178.5 -47.5q-188 0 -247 171q-4 12 9 16l18 7q12 4 17 -9q48 -142 203 -142q97 0 145 35t48 97q0 27 -7 47t-23 33.5t-31 22t-43 14t-45.5 8t-50.5 5.5q-43 5 -69.5 9t-62 15.5t-55.5 27.5t-34.5 45.5t-14.5 69.5q0 108 114 157q-108 34 -108 149z
M295 380q-51 6 -77 10q-11 -3 -21.5 -7.5t-29 -15.5t-31.5 -25t-23 -37t-10 -51q0 -30 11.5 -52.5t27.5 -35.5t45 -21.5t51.5 -12t59.5 -7.5q71 -8 84 -10q13 6 25 13.5t32 24t32 42.5t12 57q0 35 -15 60t-44.5 38t-58.5 19.5t-70 10.5z" />
    <glyph glyph-name="dieresis" unicode="&#xa8;" horiz-adv-x="439" 
d="M124 676q13 0 17.5 -5t4.5 -18v-7q0 -13 -4.5 -17.5t-17.5 -4.5h-7q-13 0 -17.5 4.5t-4.5 17.5v7q0 13 4.5 18t17.5 5h7zM314 676q24 0 24 -23v-7q0 -22 -24 -22h-5q-14 0 -19 4.5t-5 17.5v7q0 13 5 18t19 5h5z" />
    <glyph glyph-name="copyright" unicode="&#xa9;" horiz-adv-x="811" 
d="M47 351q0 152 104 255.5t256 103.5q150 0 253.5 -103.5t103.5 -255.5q0 -151 -103.5 -255t-253.5 -104q-152 0 -256 104t-104 255zM731 351q0 138 -93.5 232t-230.5 94q-139 0 -233 -93.5t-94 -232.5q0 -138 94 -232.5t233 -94.5q137 0 230.5 94.5t93.5 232.5zM246 406
q0 68 40.5 106t116.5 38q66 0 101.5 -25.5t50.5 -76.5q4 -9 -5 -13l-12 -4q-9 -2 -13 6q-13 45 -40 63.5t-83 18.5q-123 0 -123 -112v-120q0 -53 31.5 -83t91.5 -30q53 0 82 21t43 67q2 9 13 6l11 -4q9 -4 7 -12q-33 -109 -155 -109q-75 0 -116 38.5t-41 105.5v119z" />
    <glyph glyph-name="ordfeminine" unicode="&#xaa;" horiz-adv-x="373" 
d="M67 611q40 59 121 59q67 0 95 -32t28 -92v-124q0 -23 -7 -33t-26 -19q-33 -15 -96 -15q-68 0 -97 21.5t-29 64.5q0 45 29.5 68t98.5 23q53 0 92 -6v22q0 46 -20 68.5t-69 22.5q-59 0 -91 -47q-6 -5 -13 -2l-11 5q-12 7 -5 16zM276 498q-42 6 -93 6q-52 0 -72 -15.5
t-20 -46.5q0 -58 90 -58q47 0 74 11q13 5 17 11.5t4 20.5v71z" />
    <glyph glyph-name="guillemotleft" unicode="&#xab;" horiz-adv-x="552" 
d="M274 80q7 -8 0 -15l-14 -14q-7 -7 -16 0l-203 204q-7 7 0 15l205 207q8 7 16 0l12 -13q8 -8 0 -16l-184 -185zM498 80q8 -8 0 -15l-13 -14q-9 -7 -16 0l-204 204q-6 7 0 15l206 207q7 7 15 0l13 -13q7 -9 0 -16l-184 -185z" />
    <glyph glyph-name="logicalnot" unicode="&#xac;" horiz-adv-x="576" 
d="M498 378q12 0 12 -12v-215q0 -11 -12 -11h-20q-12 0 -12 11v186h-385q-12 0 -12 12v17q0 12 12 12h417z" />
    <glyph glyph-name="registered" unicode="&#xae;" horiz-adv-x="488" 
d="M50 516q0 80 57.5 137t137.5 57q79 0 136 -57t57 -137t-56.5 -137t-136.5 -57t-137.5 57t-57.5 137zM74 516q0 -71 50.5 -121.5t121.5 -50.5q70 0 120 50.5t50 121.5q0 70 -50 120.5t-120 50.5q-71 0 -121.5 -50t-50.5 -121zM267 619q32 0 51 -17.5t19 -48.5
q0 -51 -48 -61l40 -70q7 -9 -4 -9h-10q-7 0 -11 5l-40 71h-76v-71q0 -5 -6 -5h-11q-6 0 -6 5v192q0 9 10 9h92zM266 510q47 0 47 43q0 21 -12.5 32.5t-34.5 11.5h-78v-87h78z" />
    <glyph glyph-name="macron" unicode="&#xaf;" horiz-adv-x="352" 
d="M293 666q7 0 9 -2t2 -9v-11q0 -11 -11 -11h-238q-11 0 -11 11v11q0 11 11 11h238z" />
    <glyph glyph-name="degree" unicode="&#xb0;" horiz-adv-x="383" 
d="M337 555q0 -59 -43 -102.5t-102 -43.5q-61 0 -103.5 42.5t-42.5 103.5t42.5 103t103.5 42q60 0 102.5 -42t42.5 -103zM82 555q0 -46 32 -77.5t78 -31.5q44 0 76 32.5t32 76.5q0 45 -31.5 77t-76.5 32q-46 0 -78 -32t-32 -77z" />
    <glyph glyph-name="plusminus" unicode="&#xb1;" horiz-adv-x="659" 
d="M553 415q12 0 12 -13v-13q0 -12 -12 -12h-203v-130q0 -13 -13 -13h-14q-13 0 -13 13v130h-204q-13 0 -13 12v13q0 13 13 13h204v133q0 13 13 13h14q13 0 13 -13v-133h203zM553 171q12 0 12 -13v-13q0 -12 -12 -12h-447q-13 0 -13 12v13q0 13 13 13h447z" />
    <glyph glyph-name="twosuperior" unicode="&#xb2;" horiz-adv-x="351" 
d="M40 707l2 8l5.5 14.5t8.5 18t13 20t18 18.5t23.5 16.5t30.5 11t39 4.5q64 0 98.5 -32.5t34.5 -84.5q0 -28 -9 -48t-29 -33.5t-36 -20.5t-47 -17l-61 -22q-57 -22 -57 -79v-33h224q11 0 11 -11v-12q0 -11 -11 -11h-246q-14 0 -14 13v43q0 89 77 118l61 23q4 2 18 7t18.5 7
l16 7t15.5 8.5l11.5 10t10.5 13.5t5.5 16t2.5 20q0 37 -24.5 60t-70.5 23q-18 0 -33.5 -4.5t-25.5 -12t-18 -16.5t-12.5 -18.5t-7.5 -16.5t-4 -13l-2 -6q-5 -12 -16 -9l-12 4q-14 3 -8 16z" />
    <glyph glyph-name="threesuperior" unicode="&#xb3;" horiz-adv-x="360" 
d="M37 708q17 57 53 83.5t98 26.5q58 0 91 -30.5t33 -80.5q0 -64 -51 -89q62 -28 62 -101q0 -51 -35 -81t-101 -30q-63 0 -99 27t-52 81q-5 13 6 16l13 5q11 3 15 -9q14 -46 40 -66t77 -20q48 0 73.5 22t25.5 59q0 33 -19.5 55t-51.5 22h-71q-7 0 -9 2.5t-2 9.5v10q0 8 2 10
t10 2h68q31 0 47 20.5t16 50.5q0 37 -23.5 59t-64.5 22q-48 0 -75 -21t-40 -66q-5 -14 -19 -9l-9 3q-12 4 -8 17z" />
    <glyph glyph-name="acute" unicode="&#xb4;" horiz-adv-x="257" 
d="M201 723q15 7 23 -1l9 -11q9 -11 -2 -15l-177 -103q-12 -4 -16 2l-7 8q-8 8 1 13z" />
    <glyph glyph-name="mu" unicode="&#xb5;" horiz-adv-x="542" 
d="M466 512q12 0 12 -11v-429q0 -22 -7.5 -33t-30.5 -21q-82 -33 -173 -33q-120 0 -160 85l1 -278q0 -12 -11 -12h-21q-11 0 -11 12v709q0 11 12 11h20q11 0 11 -11v-321q0 -156 156 -156q83 0 149 27q22 9 22 33v417q0 11 11 11h20z" />
    <glyph glyph-name="paragraph" unicode="&#xb6;" horiz-adv-x="359" 
d="M271 710q12 0 12 -12v-775q0 -12 -12 -12h-18q-11 0 -11 12v743h-52v-743q0 -12 -12 -12h-17q-12 0 -12 12v586q-44 1 -71 28.5t-27 71.5q0 46 28 73.5t74 27.5h118z" />
    <glyph glyph-name="periodcentered" unicode="&#xb7;" horiz-adv-x="192" 
d="M98 297q16 0 22 -6t6 -21v-6q0 -16 -6 -21.5t-22 -5.5h-5q-16 0 -21.5 5.5t-5.5 21.5v6q0 15 5.5 21t21.5 6h5z" />
    <glyph glyph-name="cedilla" unicode="&#xb8;" horiz-adv-x="251" 
d="M117 -82q12 4 32 4q40 0 63.5 -20.5t22.5 -54.5q-1 -45 -31.5 -69t-80.5 -24q-47 0 -84 22q-9 5 -9 16v13q0 3 2 5t5 -1q34 -26 82 -26q37 0 57.5 17.5t20.5 48.5q0 49 -68 49q-21 0 -38 -6q-7 -2 -9.5 2t0.5 12l36 94h28z" />
    <glyph glyph-name="onesuperior" unicode="&#xb9;" horiz-adv-x="279" 
d="M206 810q12 0 12 -12v-372q0 -12 -12 -12h-13q-12 0 -12 12v337l-137 -76q-12 -6 -18 4l-5 10q-5 11 5 17l156 88q7 4 16 4h8z" />
    <glyph glyph-name="ordmasculine" unicode="&#xba;" horiz-adv-x="377" 
d="M56 552q0 55 34 86.5t98 31.5q65 0 98.5 -31t33.5 -87v-78q0 -56 -33.5 -87t-98.5 -31q-64 0 -98 31t-34 87v78zM284 553q0 40 -24.5 62t-71.5 22q-46 0 -71 -22.5t-25 -61.5v-80q0 -40 25 -62t71 -22q47 0 71.5 22t24.5 62v80z" />
    <glyph glyph-name="guillemotright" unicode="&#xbb;" horiz-adv-x="552" 
d="M52 448q-7 7 0 16l13 13q7 7 15 0l206 -207q6 -8 0 -15l-204 -204q-8 -8 -16 0l-13 14q-8 7 0 15l184 183zM277 448q-8 8 0 16l12 13q8 7 16 0l206 -207q6 -8 0 -15l-204 -204q-9 -7 -16 0l-14 14q-7 7 0 15l184 183z" />
    <glyph glyph-name="onequarter" unicode="&#xbc;" horiz-adv-x="777" 
d="M219 716q12 0 12 -12v-372q0 -12 -12 -12h-13q-13 0 -13 12v337l-137 -76q-11 -6 -17 4l-5 10q-6 11 5 17l156 88q7 4 16 4h8zM666 710q15 0 7 -13l-504 -685q-10 -12 -26 -12h-16q-16 0 -6 13l504 685q8 12 23 12h18zM670 397q8 0 10 -2.5t2 -10.5v-240h50q7 0 9 -2
t2 -8v-11q0 -7 -2 -9t-9 -2h-50v-101q0 -7 -2 -9t-9 -2h-15q-10 0 -10 11v101h-201q-7 0 -9 2t-2 9v9q0 10 4 15l198 242q7 8 18 8h16zM646 349l-168 -205h168v205z" />
    <glyph glyph-name="onehalf" unicode="&#xbd;" horiz-adv-x="843" 
d="M218 718q12 0 12 -12v-372q0 -12 -12 -12h-13q-12 0 -12 12v337l-137 -76q-12 -6 -18 4l-5 10q-5 11 5 17l156 88q7 4 16 4h8zM665 710q17 0 7 -13l-504 -685q-8 -12 -26 -12h-15q-16 0 -6 13l504 685q8 12 23 12h17zM526 293l3 9l5.5 14.5t8.5 17.5t12.5 20t18 19
t24 16.5t30.5 11t39 4.5q63 0 97.5 -33t34.5 -85q0 -28 -8.5 -47.5t-29 -33.5t-35.5 -20.5t-47 -17.5l-61 -22q-58 -20 -58 -79v-32h224q12 0 12 -12v-12q0 -11 -12 -11h-246q-14 0 -14 13v43q0 88 78 118l61 23q4 2 18 7t18.5 7l16 7t15.5 8.5l11.5 10t10.5 13.5t5.5 16
t2.5 20q0 37 -24.5 60t-70.5 23q-18 0 -33.5 -4.5t-26 -12t-18.5 -16.5t-12.5 -18.5t-7.5 -16.5t-4 -13l-2 -6q-4 -11 -15 -9l-13 4q-12 3 -8 16z" />
    <glyph glyph-name="threequarters" unicode="&#xbe;" horiz-adv-x="818" 
d="M45 616q17 57 53 83.5t98 26.5q58 0 91 -30.5t33 -80.5q0 -64 -51 -89q62 -28 62 -101q0 -51 -35 -81t-101 -30q-63 0 -99 27t-53 81q-4 13 6 16l13 5q12 3 16 -9q14 -46 40 -66t77 -20q48 0 73.5 22t25.5 59q0 33 -19.5 55t-51.5 22h-71q-7 0 -9 2.5t-2 9.5v10q0 8 2 10
t10 2h67q32 0 48 20.5t16 51.5q0 37 -23.5 58.5t-64.5 21.5q-48 0 -75 -21t-40 -66q-5 -14 -19 -9l-10 3q-11 5 -7 17zM709 710q15 0 7 -13l-504 -685q-10 -12 -26 -12h-16q-16 0 -6 13l504 685q8 12 24 12h17zM711 397q8 0 10 -2.5t2 -10.5v-240h50q12 0 12 -10v-11
q0 -7 -2.5 -9t-9.5 -2h-50v-101q0 -7 -2 -9t-9 -2h-15q-10 0 -10 11v101h-201q-11 0 -11 11v9q0 10 4 15l198 242q7 8 18 8h16zM519 144h168v205z" />
    <glyph glyph-name="questiondown" unicode="&#xbf;" horiz-adv-x="547" 
d="M296 455q-16 0 -22 5.5t-6 21.5v5q0 16 6 22t22 6h5q16 0 21.5 -6t5.5 -22v-5q0 -16 -5.5 -21.5t-21.5 -5.5h-5zM517 -65q-62 -165 -249 -165q-108 0 -171.5 58.5t-63.5 147.5q0 39 10 72t20.5 53t35.5 43t36 31t41 28q33 22 51.5 38t35 47t16.5 69q0 12 12 12h15
q12 0 12 -12q0 -37 -9 -66t-28 -51.5t-35 -35.5t-44 -32l-37.5 -26t-32 -27.5t-29.5 -37t-17 -45t-8 -59.5q0 -72 51 -119t140 -47q153 0 206 138q5 12 16 8l19 -6q12 -4 7 -16z" />
    <glyph glyph-name="Agrave" unicode="&#xc0;" horiz-adv-x="632" 
d="M223 886q7 9 22 2l172 -102q9 -5 2 -14l-7 -8q-5 -6 -16 -1l-181 98q-11 4 -2 14zM620 12q5 -12 -10 -12h-18q-20 0 -22 11l-89 221h-332l-88 -221q-4 -11 -23 -11h-17q-14 0 -9 12l277 691q5 12 17 12h20q13 0 17 -12zM326 626q-3 9 -10 43h-3q0 -20 -8 -43l-142 -355
h305z" />
    <glyph glyph-name="Aacute" unicode="&#xc1;" horiz-adv-x="632" 
d="M386 895q14 7 22 -2l10 -11q8 -10 -2 -15l-178 -102q-11 -4 -16 1l-7 8q-7 9 2 14zM620 12q5 -12 -10 -12h-18q-20 0 -22 11l-89 221h-332l-88 -221q-4 -11 -23 -11h-17q-14 0 -9 12l277 691q5 12 17 12h20q13 0 17 -12zM326 626q-3 9 -10 43h-3q0 -20 -8 -43l-142 -355
h305z" />
    <glyph glyph-name="Acircumflex" unicode="&#xc2;" horiz-adv-x="632" 
d="M319 897q12 0 24 -11l133 -112q8 -10 -7 -10h-18q-13 0 -20 7l-115 95l-116 -95q-8 -7 -19 -7h-18q-17 0 -7 10l134 112q11 11 24 11h5zM620 12q5 -12 -10 -12h-18q-20 0 -22 11l-89 221h-332l-88 -221q-4 -11 -23 -11h-17q-14 0 -9 12l277 691q5 12 17 12h20
q13 0 17 -12zM326 626q-3 9 -10 43h-3q0 -20 -8 -43l-142 -355h305z" />
    <glyph glyph-name="Atilde" unicode="&#xc3;" horiz-adv-x="632" 
d="M460 875q9 0 9 -8q0 -94 -75 -94q-37 0 -82 36t-74 36q-23 0 -35.5 -17.5t-12.5 -46.5q0 -8 -8 -8h-14q-8 0 -8 8q0 94 75 94q38 0 83.5 -36t72.5 -36q48 0 48 64q0 8 8 8h13zM620 12q5 -12 -10 -12h-18q-20 0 -22 11l-89 221h-332l-88 -221q-4 -11 -23 -11h-17
q-14 0 -9 12l277 691q5 12 17 12h20q13 0 17 -12zM326 626q-3 9 -10 43h-3q0 -20 -8 -43l-142 -355h305z" />
    <glyph glyph-name="Adieresis" unicode="&#xc4;" horiz-adv-x="632" 
d="M223 853q14 0 18.5 -5t4.5 -18v-7q0 -13 -4.5 -17.5t-18.5 -4.5h-6q-13 0 -18 4.5t-5 17.5v7q0 13 5 18t18 5h6zM414 853q13 0 18 -5t5 -18v-7q0 -13 -5 -17.5t-18 -4.5h-5q-14 0 -19 4.5t-5 17.5v7q0 13 5 18t19 5h5zM620 12q5 -12 -10 -12h-18q-20 0 -22 11l-89 221
h-332l-88 -221q-4 -11 -23 -11h-17q-14 0 -9 12l277 691q5 12 17 12h20q13 0 17 -12zM326 626q-3 9 -10 43h-3q0 -20 -8 -43l-142 -355h305z" />
    <glyph glyph-name="Aring" unicode="&#xc5;" horiz-adv-x="632" 
d="M215 786q0 45 28 72t74 27t73 -27t27 -72q0 -78 -71 -92l274 -682q5 -12 -10 -12h-18q-20 0 -22 11l-89 221h-332l-88 -221q-4 -11 -23 -11h-17q-14 0 -9 12l274 683q-34 7 -52.5 30.5t-18.5 60.5zM389 786q0 32 -19.5 51.5t-52.5 19.5q-34 0 -54 -19.5t-20 -51.5
t20 -51.5t54 -19.5q33 0 52.5 19.5t19.5 51.5zM326 626q-3 9 -10 43h-3q0 -20 -8 -43l-142 -355h305z" />
    <glyph glyph-name="AE" unicode="&#xc6;" horiz-adv-x="817" 
d="M765 43q12 0 12 -12v-18q0 -13 -12 -13h-329q-12 0 -12 13v174h-270l-106 -176q-7 -11 -22 -11h-20q-14 0 -9 12l418 686q7 12 17 12h319q12 0 12 -13v-18q0 -12 -12 -12h-282v-286h238q13 0 13 -13v-18q0 -12 -13 -12h-238v-295h296zM424 226v409l-246 -409h246z" />
    <glyph glyph-name="Ccedilla" unicode="&#xc7;" horiz-adv-x="634" 
d="M587 181q12 -4 8 -16q-26 -88 -86 -133t-174 -46l-25 -68q12 4 32 4q41 0 64 -20.5t22 -54.5q-1 -45 -31.5 -69t-80.5 -24q-48 0 -83 22q-9 4 -9 16l-1 13q0 10 8 4q34 -26 81 -26q37 0 58 17.5t21 48.5q0 49 -69 49q-20 0 -37 -6q-7 -1 -9.5 2.5t0.5 11.5l31 80
q-118 6 -182 71t-64 176v245q0 116 69 181t200 65q113 0 175 -43t88 -131q3 -11 -9 -17l-18 -6q-13 -3 -17 8q-23 76 -73.5 111t-145.5 35q-109 0 -166 -53t-57 -149v-247q0 -95 58 -149t165 -54q97 0 147 36.5t74 114.5q5 12 17 8z" />
    <glyph glyph-name="Egrave" unicode="&#xc8;" horiz-adv-x="570" 
d="M206 886q8 9 22 2l173 -102q8 -6 1 -14l-7 -8q-5 -6 -16 -1l-180 98q-12 4 -2 14zM503 710q13 0 13 -13v-18q0 -12 -13 -12h-375v-286h332q12 0 12 -12v-18q0 -13 -12 -13h-332v-295h389q13 0 13 -12v-18q0 -13 -13 -13h-422q-13 0 -13 13v684q0 13 13 13h408z" />
    <glyph glyph-name="Eacute" unicode="&#xc9;" horiz-adv-x="570" 
d="M369 895q15 7 23 -2l9 -11q9 -10 -2 -15l-177 -102q-12 -4 -16 1l-7 8q-8 9 1 14zM503 710q13 0 13 -13v-18q0 -12 -13 -12h-375v-286h332q12 0 12 -12v-18q0 -13 -12 -13h-332v-295h389q13 0 13 -12v-18q0 -13 -13 -13h-422q-13 0 -13 13v684q0 13 13 13h408z" />
    <glyph glyph-name="Ecircumflex" unicode="&#xca;" horiz-adv-x="570" 
d="M303 897q12 0 23 -11l133 -112q10 -10 -6 -10h-19q-13 0 -20 7l-115 95l-116 -95q-7 -7 -19 -7h-18q-16 0 -6 10l133 112q11 11 24 11h6zM503 710q13 0 13 -13v-18q0 -12 -13 -12h-375v-286h332q12 0 12 -12v-18q0 -13 -12 -13h-332v-295h389q13 0 13 -12v-18
q0 -13 -13 -13h-422q-13 0 -13 13v684q0 13 13 13h408z" />
    <glyph glyph-name="Edieresis" unicode="&#xcb;" horiz-adv-x="570" 
d="M207 853q13 0 18 -5t5 -18v-7q0 -13 -5 -17.5t-18 -4.5h-6q-13 0 -18 4.5t-5 17.5v7q0 13 5 18t18 5h6zM398 853q13 0 18 -5t5 -18v-7q0 -13 -5 -17.5t-18 -4.5h-6q-14 0 -19 4.5t-5 17.5v7q0 13 5.5 18t18.5 5h6zM503 710q13 0 13 -13v-18q0 -12 -13 -12h-375v-286h332
q12 0 12 -12v-18q0 -13 -12 -13h-332v-295h389q13 0 13 -12v-18q0 -13 -13 -13h-422q-13 0 -13 13v684q0 13 13 13h408z" />
    <glyph glyph-name="Igrave" unicode="&#xcc;" horiz-adv-x="210" 
d="M12 886q8 9 23 2l172 -102q9 -5 1 -14l-7 -8q-4 -6 -16 -1l-180 98q-11 4 -2 14zM83 697q0 13 12 13h21q13 0 13 -13v-684q0 -13 -13 -13h-21q-12 0 -12 13v684z" />
    <glyph glyph-name="Iacute" unicode="&#xcd;" horiz-adv-x="210" 
d="M175 895q14 7 22 -2l10 -11q8 -10 -2 -15l-178 -102q-11 -4 -16 1l-7 8q-7 8 1 14zM82 697q0 13 13 13h21q12 0 12 -13v-684q0 -13 -12 -13h-21q-13 0 -13 13v684z" />
    <glyph glyph-name="Icircumflex" unicode="&#xce;" horiz-adv-x="210" 
d="M108 897q12 0 24 -11l132 -112q10 -10 -6 -10h-18q-14 0 -21 7l-114 95l-116 -95q-8 -7 -19 -7h-18q-17 0 -7 10l134 112q11 11 24 11h5zM82 697q0 13 13 13h21q12 0 12 -13v-684q0 -13 -12 -13h-21q-13 0 -13 13v684z" />
    <glyph glyph-name="Idieresis" unicode="&#xcf;" horiz-adv-x="210" 
d="M12 853q14 0 18.5 -5t4.5 -18v-7q0 -13 -4.5 -17.5t-18.5 -4.5h-6q-13 0 -18 4.5t-5 17.5v7q0 13 5 18t18 5h6zM203 853q13 0 18 -5t5 -18v-7q0 -13 -5 -17.5t-18 -4.5h-5q-14 0 -19 4.5t-5 17.5v7q0 13 5 18t19 5h5zM82 697q0 13 13 13h21q12 0 12 -13v-684
q0 -13 -12 -13h-21q-13 0 -13 13v684z" />
    <glyph glyph-name="Eth" unicode="&#xd0;" horiz-adv-x="655" 
d="M309 710q138 0 214 -70.5t76 -193.5v-182q0 -123 -76 -193.5t-214 -70.5h-205q-13 0 -13 13v328h-80q-10 0 -10 10v13q0 10 10 10h80v323q0 13 13 13h205zM553 446q0 105 -63.5 163t-180.5 58h-171v-293h191q10 0 10 -10v-13q0 -10 -10 -10h-191v-298h171q117 0 180.5 58
t63.5 163v182z" />
    <glyph glyph-name="Ntilde" unicode="&#xd1;" horiz-adv-x="688" 
d="M489 875q8 0 8 -8q0 -94 -75 -94q-36 0 -81.5 36t-73.5 36q-23 0 -35.5 -17.5t-12.5 -46.5q0 -8 -8 -8h-14q-8 0 -8 8q0 94 75 94q30 0 57 -18t51 -36t48 -18q48 0 48 64q0 8 8 8h13zM594 710q12 0 12 -13v-684q0 -13 -12 -13h-21q-9 0 -14 8l-355 506q-18 25 -44.5 71
t-36.5 59h-2q0 -16 3 -73t3 -92v-466q0 -13 -12 -13h-20q-13 0 -13 13v684q0 13 13 13h20q9 0 14 -7l345 -493q20 -28 50.5 -78t41.5 -65h2q0 19 -3.5 80.5t-3.5 99.5v451q0 12 13 12h20z" />
    <glyph glyph-name="Ograve" unicode="&#xd2;" horiz-adv-x="660" 
d="M237 896q8 9 23 2l172 -102q9 -5 1 -14l-7 -8q-4 -6 -16 -1l-180 98q-11 4 -2 14zM61 477q0 116 70 181.5t200 65.5q129 0 198.5 -65.5t69.5 -181.5v-244q0 -116 -69.5 -181.5t-198.5 -65.5q-130 0 -200 65.5t-70 181.5v244zM553 477q0 97 -57.5 150.5t-164.5 53.5
q-109 0 -166.5 -53.5t-57.5 -150.5v-244q0 -97 57.5 -150.5t166.5 -53.5q107 0 164.5 53.5t57.5 150.5v244z" />
    <glyph glyph-name="Oacute" unicode="&#xd3;" horiz-adv-x="660" 
d="M400 905q15 7 23 -2l9 -11q10 -10 -2 -15l-177 -102q-11 -4 -16 1l-7 8q-7 8 1 14zM61 477q0 116 70 181.5t200 65.5q129 0 198.5 -65.5t69.5 -181.5v-244q0 -116 -69.5 -181.5t-198.5 -65.5q-130 0 -200 65.5t-70 181.5v244zM553 477q0 97 -57.5 150.5t-164.5 53.5
q-109 0 -166.5 -53.5t-57.5 -150.5v-244q0 -97 57.5 -150.5t166.5 -53.5q107 0 164.5 53.5t57.5 150.5v244z" />
    <glyph glyph-name="Ocircumflex" unicode="&#xd4;" horiz-adv-x="660" 
d="M334 907q12 0 24 -11l132 -112q10 -10 -6 -10h-18q-14 0 -21 7l-114 95l-116 -95q-8 -7 -19 -7h-19q-16 0 -6 10l133 112q12 11 24 11h6zM61 477q0 116 70 181.5t200 65.5q129 0 198.5 -65.5t69.5 -181.5v-244q0 -116 -69.5 -181.5t-198.5 -65.5q-130 0 -200 65.5
t-70 181.5v244zM553 477q0 97 -57.5 150.5t-164.5 53.5q-109 0 -166.5 -53.5t-57.5 -150.5v-244q0 -97 57.5 -150.5t166.5 -53.5q107 0 164.5 53.5t57.5 150.5v244z" />
    <glyph glyph-name="Otilde" unicode="&#xd5;" horiz-adv-x="660" 
d="M475 885q8 0 8 -8q0 -94 -75 -94q-36 0 -81.5 36t-73.5 36q-23 0 -35.5 -17.5t-12.5 -46.5q0 -8 -8 -8h-14q-8 0 -8 8q0 94 75 94q30 0 57 -18t51 -36t48 -18q48 0 48 64q0 8 8 8h13zM61 477q0 116 70 181.5t200 65.5q129 0 198.5 -65.5t69.5 -181.5v-244
q0 -116 -69.5 -181.5t-198.5 -65.5q-130 0 -200 65.5t-70 181.5v244zM553 477q0 97 -57.5 150.5t-164.5 53.5q-109 0 -166.5 -53.5t-57.5 -150.5v-244q0 -97 57.5 -150.5t166.5 -53.5q107 0 164.5 53.5t57.5 150.5v244z" />
    <glyph glyph-name="Odieresis" unicode="&#xd6;" horiz-adv-x="660" 
d="M238 863q14 0 18.5 -5t4.5 -18v-7q0 -13 -4.5 -17.5t-18.5 -4.5h-6q-13 0 -18 4.5t-5 17.5v7q0 13 5 18t18 5h6zM429 863q13 0 18 -5t5 -18v-7q0 -13 -5 -17.5t-18 -4.5h-6q-13 0 -18 4.5t-5 17.5v7q0 13 5 18t18 5h6zM61 477q0 116 70 181.5t200 65.5q129 0 198.5 -65.5
t69.5 -181.5v-244q0 -116 -69.5 -181.5t-198.5 -65.5q-130 0 -200 65.5t-70 181.5v244zM553 477q0 97 -57.5 150.5t-164.5 53.5q-109 0 -166.5 -53.5t-57.5 -150.5v-244q0 -97 57.5 -150.5t166.5 -53.5q107 0 164.5 53.5t57.5 150.5v244z" />
    <glyph glyph-name="multiply" unicode="&#xd7;" horiz-adv-x="504" 
d="M437 167q9 -9 0 -18l-10 -10q-9 -9 -18 0l-157 157l-157 -156q-9 -9 -18 0l-10 10q-9 8 0 18l157 156l-157 158q-9 9 0 18l10 10q9 9 18 0l157 -158l157 158q9 9 18 0l10 -10q9 -9 0 -18l-157 -158z" />
    <glyph glyph-name="Oslash" unicode="&#xd8;" horiz-adv-x="660" 
d="M602 749q5 0 3 -5l-63 -98q57 -62 57 -169v-244q0 -116 -69.5 -181.5t-198.5 -65.5q-113 0 -179 49l-47 -73q-3 -5 -12 -5h-25q-6 0 -3 5l60 94q-64 64 -64 177v244q0 116 70 181.5t200 65.5q118 0 185 -56l49 77q4 4 10 4h27zM492 630q-57 51 -161 51
q-109 0 -166.5 -53.5t-57.5 -150.5v-244q0 -84 47 -133zM176 74q57 -45 155 -45q107 0 164.5 53.5t57.5 150.5v244q0 77 -39 124z" />
    <glyph glyph-name="Ugrave" unicode="&#xd9;" 
d="M246 886q8 9 23 2l172 -102q9 -5 1 -14l-7 -8q-4 -6 -16 -1l-180 98q-11 4 -2 14zM122 240q0 -99 55 -155.5t163 -56.5q107 0 162 56.5t55 155.5v457q0 13 12 13h22q12 0 12 -13v-457q0 -119 -67 -187t-196 -68q-130 0 -197 68t-67 187v457q0 13 13 13h21q12 0 12 -13
v-457z" />
    <glyph glyph-name="Uacute" unicode="&#xda;" 
d="M409 895q15 7 23 -2l9 -11q10 -10 -2 -15l-177 -102q-11 -4 -16 1l-7 8q-7 8 1 14zM122 240q0 -99 55 -155.5t163 -56.5q107 0 162 56.5t55 155.5v457q0 13 12 13h22q12 0 12 -13v-457q0 -119 -67 -187t-196 -68q-130 0 -197 68t-67 187v457q0 13 13 13h21q12 0 12 -13
v-457z" />
    <glyph glyph-name="Ucircumflex" unicode="&#xdb;" 
d="M343 897q12 0 24 -11l132 -112q10 -10 -6 -10h-18q-14 0 -21 7l-114 95l-116 -95q-8 -7 -19 -7h-19q-16 0 -6 10l133 112q12 11 24 11h6zM122 240q0 -99 55 -155.5t163 -56.5q107 0 162 56.5t55 155.5v457q0 13 12 13h22q12 0 12 -13v-457q0 -119 -67 -187t-196 -68
q-130 0 -197 68t-67 187v457q0 13 13 13h21q12 0 12 -13v-457z" />
    <glyph glyph-name="Udieresis" unicode="&#xdc;" 
d="M247 853q14 0 18.5 -5t4.5 -18v-7q0 -13 -4.5 -17.5t-18.5 -4.5h-6q-13 0 -18 4.5t-5 17.5v7q0 13 5 18t18 5h6zM438 853q13 0 18 -5t5 -18v-7q0 -13 -5 -17.5t-18 -4.5h-6q-13 0 -18 4.5t-5 17.5v7q0 13 5 18t18 5h6zM122 240q0 -99 55 -155.5t163 -56.5q107 0 162 56.5
t55 155.5v457q0 13 12 13h22q12 0 12 -13v-457q0 -119 -67 -187t-196 -68q-130 0 -197 68t-67 187v457q0 13 13 13h21q12 0 12 -13v-457z" />
    <glyph glyph-name="Yacute" unicode="&#xdd;" horiz-adv-x="619" 
d="M380 895q15 7 23 -2l9 -11q9 -10 -2 -15l-177 -102q-12 -4 -16 1l-7 8q-8 9 1 14zM596 710q14 0 7 -13l-271 -405v-279q0 -13 -12 -13h-21q-13 0 -13 13v280l-270 404q-7 13 7 13h27q18 0 23 -11l237 -359l237 359q7 11 24 11h25z" />
    <glyph glyph-name="Thorn" unicode="&#xde;" horiz-adv-x="616" 
d="M354 587q106 0 168.5 -61.5t62.5 -166.5t-62.5 -165.5t-168.5 -60.5h-226v-120q0 -13 -12 -13h-21q-13 0 -13 13v684q0 13 13 13h21q12 0 12 -13v-110h226zM350 176q86 0 136.5 49.5t50.5 133.5q0 85 -50.5 135t-136.5 50h-222v-368h222z" />
    <glyph glyph-name="germandbls" unicode="&#xdf;" horiz-adv-x="547" 
d="M71 528q0 102 52 162t149 60q205 0 205 -199q0 -52 -24 -98t-74 -65v-1q59 -17 91.5 -63.5t32.5 -119.5q0 -101 -52 -152.5t-150 -51.5h-96q-12 0 -12 13v17q0 12 12 12h92q78 0 119 42t41 124q0 71 -40 113t-111 42h-97q-12 0 -12 13v16q0 13 12 13h94q65 0 97.5 44
t32.5 98q0 161 -161 161q-77 0 -117.5 -48t-40.5 -132v-515q0 -13 -13 -13h-17q-13 0 -13 13v515z" />
    <glyph glyph-name="agrave" unicode="&#xe0;" horiz-adv-x="632" 
d="M223 886q7 9 22 2l172 -102q9 -5 2 -14l-7 -8q-5 -6 -16 -1l-181 98q-11 4 -2 14zM620 12q5 -12 -10 -12h-18q-20 0 -22 11l-89 221h-332l-88 -221q-4 -11 -23 -11h-17q-14 0 -9 12l277 691q5 12 17 12h20q13 0 17 -12zM326 626q-3 9 -10 43h-3q0 -20 -8 -43l-142 -355
h305z" />
    <glyph glyph-name="aacute" unicode="&#xe1;" horiz-adv-x="632" 
d="M386 895q14 7 22 -2l10 -11q8 -10 -2 -15l-178 -102q-11 -4 -16 1l-7 8q-7 9 2 14zM620 12q5 -12 -10 -12h-18q-20 0 -22 11l-89 221h-332l-88 -221q-4 -11 -23 -11h-17q-14 0 -9 12l277 691q5 12 17 12h20q13 0 17 -12zM326 626q-3 9 -10 43h-3q0 -20 -8 -43l-142 -355
h305z" />
    <glyph glyph-name="acircumflex" unicode="&#xe2;" horiz-adv-x="632" 
d="M319 897q12 0 24 -11l133 -112q8 -10 -7 -10h-18q-13 0 -20 7l-115 95l-116 -95q-8 -7 -19 -7h-18q-17 0 -7 10l134 112q11 11 24 11h5zM620 12q5 -12 -10 -12h-18q-20 0 -22 11l-89 221h-332l-88 -221q-4 -11 -23 -11h-17q-14 0 -9 12l277 691q5 12 17 12h20
q13 0 17 -12zM326 626q-3 9 -10 43h-3q0 -20 -8 -43l-142 -355h305z" />
    <glyph glyph-name="atilde" unicode="&#xe3;" horiz-adv-x="632" 
d="M460 875q9 0 9 -8q0 -94 -75 -94q-37 0 -82 36t-74 36q-23 0 -35.5 -17.5t-12.5 -46.5q0 -8 -8 -8h-14q-8 0 -8 8q0 94 75 94q38 0 83.5 -36t72.5 -36q48 0 48 64q0 8 8 8h13zM620 12q5 -12 -10 -12h-18q-20 0 -22 11l-89 221h-332l-88 -221q-4 -11 -23 -11h-17
q-14 0 -9 12l277 691q5 12 17 12h20q13 0 17 -12zM326 626q-3 9 -10 43h-3q0 -20 -8 -43l-142 -355h305z" />
    <glyph glyph-name="adieresis" unicode="&#xe4;" horiz-adv-x="632" 
d="M223 853q14 0 18.5 -5t4.5 -18v-7q0 -13 -4.5 -17.5t-18.5 -4.5h-6q-13 0 -18 4.5t-5 17.5v7q0 13 5 18t18 5h6zM414 853q13 0 18 -5t5 -18v-7q0 -13 -5 -17.5t-18 -4.5h-5q-14 0 -19 4.5t-5 17.5v7q0 13 5 18t19 5h5zM620 12q5 -12 -10 -12h-18q-20 0 -22 11l-89 221
h-332l-88 -221q-4 -11 -23 -11h-17q-14 0 -9 12l277 691q5 12 17 12h20q13 0 17 -12zM326 626q-3 9 -10 43h-3q0 -20 -8 -43l-142 -355h305z" />
    <glyph glyph-name="aring" unicode="&#xe5;" horiz-adv-x="632" 
d="M215 786q0 45 28 72t74 27t73 -27t27 -72q0 -78 -71 -92l274 -682q5 -12 -10 -12h-18q-20 0 -22 11l-89 221h-332l-88 -221q-4 -11 -23 -11h-17q-14 0 -9 12l274 683q-34 7 -52.5 30.5t-18.5 60.5zM389 786q0 32 -19.5 51.5t-52.5 19.5q-34 0 -54 -19.5t-20 -51.5
t20 -51.5t54 -19.5q33 0 52.5 19.5t19.5 51.5zM326 626q-3 9 -10 43h-3q0 -20 -8 -43l-142 -355h305z" />
    <glyph glyph-name="ae" unicode="&#xe6;" horiz-adv-x="817" 
d="M765 43q12 0 12 -12v-18q0 -13 -12 -13h-329q-12 0 -12 13v174h-270l-106 -176q-7 -11 -22 -11h-20q-14 0 -9 12l418 686q7 12 17 12h319q12 0 12 -13v-18q0 -12 -12 -12h-282v-286h238q13 0 13 -13v-18q0 -12 -13 -12h-238v-295h296zM424 226v409l-246 -409h246z" />
    <glyph glyph-name="ccedilla" unicode="&#xe7;" horiz-adv-x="634" 
d="M587 181q12 -4 8 -16q-26 -88 -86 -133t-174 -46l-25 -68q12 4 32 4q41 0 64 -20.5t22 -54.5q-1 -45 -31.5 -69t-80.5 -24q-48 0 -83 22q-9 4 -9 16l-1 13q0 10 8 4q34 -26 81 -26q37 0 58 17.5t21 48.5q0 49 -69 49q-20 0 -37 -6q-7 -1 -9.5 2.5t0.5 11.5l31 80
q-118 6 -182 71t-64 176v245q0 116 69 181t200 65q113 0 175 -43t88 -131q3 -11 -9 -17l-18 -6q-13 -3 -17 8q-23 76 -73.5 111t-145.5 35q-109 0 -166 -53t-57 -149v-247q0 -95 58 -149t165 -54q97 0 147 36.5t74 114.5q5 12 17 8z" />
    <glyph glyph-name="egrave" unicode="&#xe8;" horiz-adv-x="570" 
d="M206 886q8 9 22 2l173 -102q8 -6 1 -14l-7 -8q-5 -6 -16 -1l-180 98q-12 4 -2 14zM503 710q13 0 13 -13v-18q0 -12 -13 -12h-375v-286h332q12 0 12 -12v-18q0 -13 -12 -13h-332v-295h389q13 0 13 -12v-18q0 -13 -13 -13h-422q-13 0 -13 13v684q0 13 13 13h408z" />
    <glyph glyph-name="eacute" unicode="&#xe9;" horiz-adv-x="570" 
d="M369 895q15 7 23 -2l9 -11q9 -10 -2 -15l-177 -102q-12 -4 -16 1l-7 8q-8 9 1 14zM503 710q13 0 13 -13v-18q0 -12 -13 -12h-375v-286h332q12 0 12 -12v-18q0 -13 -12 -13h-332v-295h389q13 0 13 -12v-18q0 -13 -13 -13h-422q-13 0 -13 13v684q0 13 13 13h408z" />
    <glyph glyph-name="ecircumflex" unicode="&#xea;" horiz-adv-x="570" 
d="M303 897q12 0 23 -11l133 -112q10 -10 -6 -10h-19q-13 0 -20 7l-115 95l-116 -95q-7 -7 -19 -7h-18q-16 0 -6 10l133 112q11 11 24 11h6zM503 710q13 0 13 -13v-18q0 -12 -13 -12h-375v-286h332q12 0 12 -12v-18q0 -13 -12 -13h-332v-295h389q13 0 13 -12v-18
q0 -13 -13 -13h-422q-13 0 -13 13v684q0 13 13 13h408z" />
    <glyph glyph-name="edieresis" unicode="&#xeb;" horiz-adv-x="570" 
d="M207 853q13 0 18 -5t5 -18v-7q0 -13 -5 -17.5t-18 -4.5h-6q-13 0 -18 4.5t-5 17.5v7q0 13 5 18t18 5h6zM398 853q13 0 18 -5t5 -18v-7q0 -13 -5 -17.5t-18 -4.5h-6q-14 0 -19 4.5t-5 17.5v7q0 13 5.5 18t18.5 5h6zM503 710q13 0 13 -13v-18q0 -12 -13 -12h-375v-286h332
q12 0 12 -12v-18q0 -13 -12 -13h-332v-295h389q13 0 13 -12v-18q0 -13 -13 -13h-422q-13 0 -13 13v684q0 13 13 13h408z" />
    <glyph glyph-name="igrave" unicode="&#xec;" horiz-adv-x="210" 
d="M12 886q8 9 23 2l172 -102q9 -5 1 -14l-7 -8q-4 -6 -16 -1l-180 98q-11 4 -2 14zM83 697q0 13 12 13h21q13 0 13 -13v-684q0 -13 -13 -13h-21q-12 0 -12 13v684z" />
    <glyph glyph-name="iacute" unicode="&#xed;" horiz-adv-x="210" 
d="M175 895q14 7 22 -2l10 -11q8 -10 -2 -15l-178 -102q-11 -4 -16 1l-7 8q-7 8 1 14zM82 697q0 13 13 13h21q12 0 12 -13v-684q0 -13 -12 -13h-21q-13 0 -13 13v684z" />
    <glyph glyph-name="icircumflex" unicode="&#xee;" horiz-adv-x="210" 
d="M108 897q12 0 24 -11l132 -112q10 -10 -6 -10h-18q-14 0 -21 7l-114 95l-116 -95q-8 -7 -19 -7h-18q-17 0 -7 10l134 112q11 11 24 11h5zM82 697q0 13 13 13h21q12 0 12 -13v-684q0 -13 -12 -13h-21q-13 0 -13 13v684z" />
    <glyph glyph-name="idieresis" unicode="&#xef;" horiz-adv-x="210" 
d="M12 853q14 0 18.5 -5t4.5 -18v-7q0 -13 -4.5 -17.5t-18.5 -4.5h-6q-13 0 -18 4.5t-5 17.5v7q0 13 5 18t18 5h6zM203 853q13 0 18 -5t5 -18v-7q0 -13 -5 -17.5t-18 -4.5h-5q-14 0 -19 4.5t-5 17.5v7q0 13 5 18t19 5h5zM82 697q0 13 13 13h21q12 0 12 -13v-684
q0 -13 -12 -13h-21q-13 0 -13 13v684z" />
    <glyph glyph-name="eth" unicode="&#xf0;" horiz-adv-x="655" 
d="M309 710q138 0 214 -70.5t76 -193.5v-182q0 -123 -76 -193.5t-214 -70.5h-205q-13 0 -13 13v328h-80q-10 0 -10 10v13q0 10 10 10h80v323q0 13 13 13h205zM553 446q0 105 -63.5 163t-180.5 58h-171v-293h191q10 0 10 -10v-13q0 -10 -10 -10h-191v-298h171q117 0 180.5 58
t63.5 163v182z" />
    <glyph glyph-name="ntilde" unicode="&#xf1;" horiz-adv-x="688" 
d="M489 875q8 0 8 -8q0 -94 -75 -94q-36 0 -81.5 36t-73.5 36q-23 0 -35.5 -17.5t-12.5 -46.5q0 -8 -8 -8h-14q-8 0 -8 8q0 94 75 94q30 0 57 -18t51 -36t48 -18q48 0 48 64q0 8 8 8h13zM594 710q12 0 12 -13v-684q0 -13 -12 -13h-21q-9 0 -14 8l-355 506q-18 25 -44.5 71
t-36.5 59h-2q0 -16 3 -73t3 -92v-466q0 -13 -12 -13h-20q-13 0 -13 13v684q0 13 13 13h20q9 0 14 -7l345 -493q20 -28 50.5 -78t41.5 -65h2q0 19 -3.5 80.5t-3.5 99.5v451q0 12 13 12h20z" />
    <glyph glyph-name="ograve" unicode="&#xf2;" horiz-adv-x="660" 
d="M237 896q8 9 23 2l172 -102q9 -5 1 -14l-7 -8q-4 -6 -16 -1l-180 98q-11 4 -2 14zM61 477q0 116 70 181.5t200 65.5q129 0 198.5 -65.5t69.5 -181.5v-244q0 -116 -69.5 -181.5t-198.5 -65.5q-130 0 -200 65.5t-70 181.5v244zM553 477q0 97 -57.5 150.5t-164.5 53.5
q-109 0 -166.5 -53.5t-57.5 -150.5v-244q0 -97 57.5 -150.5t166.5 -53.5q107 0 164.5 53.5t57.5 150.5v244z" />
    <glyph glyph-name="oacute" unicode="&#xf3;" horiz-adv-x="660" 
d="M400 905q15 7 23 -2l9 -11q10 -10 -2 -15l-177 -102q-11 -4 -16 1l-7 8q-7 8 1 14zM61 477q0 116 70 181.5t200 65.5q129 0 198.5 -65.5t69.5 -181.5v-244q0 -116 -69.5 -181.5t-198.5 -65.5q-130 0 -200 65.5t-70 181.5v244zM553 477q0 97 -57.5 150.5t-164.5 53.5
q-109 0 -166.5 -53.5t-57.5 -150.5v-244q0 -97 57.5 -150.5t166.5 -53.5q107 0 164.5 53.5t57.5 150.5v244z" />
    <glyph glyph-name="ocircumflex" unicode="&#xf4;" horiz-adv-x="660" 
d="M334 907q12 0 24 -11l132 -112q10 -10 -6 -10h-18q-14 0 -21 7l-114 95l-116 -95q-8 -7 -19 -7h-19q-16 0 -6 10l133 112q12 11 24 11h6zM61 477q0 116 70 181.5t200 65.5q129 0 198.5 -65.5t69.5 -181.5v-244q0 -116 -69.5 -181.5t-198.5 -65.5q-130 0 -200 65.5
t-70 181.5v244zM553 477q0 97 -57.5 150.5t-164.5 53.5q-109 0 -166.5 -53.5t-57.5 -150.5v-244q0 -97 57.5 -150.5t166.5 -53.5q107 0 164.5 53.5t57.5 150.5v244z" />
    <glyph glyph-name="otilde" unicode="&#xf5;" horiz-adv-x="660" 
d="M475 885q8 0 8 -8q0 -94 -75 -94q-36 0 -81.5 36t-73.5 36q-23 0 -35.5 -17.5t-12.5 -46.5q0 -8 -8 -8h-14q-8 0 -8 8q0 94 75 94q30 0 57 -18t51 -36t48 -18q48 0 48 64q0 8 8 8h13zM61 477q0 116 70 181.5t200 65.5q129 0 198.5 -65.5t69.5 -181.5v-244
q0 -116 -69.5 -181.5t-198.5 -65.5q-130 0 -200 65.5t-70 181.5v244zM553 477q0 97 -57.5 150.5t-164.5 53.5q-109 0 -166.5 -53.5t-57.5 -150.5v-244q0 -97 57.5 -150.5t166.5 -53.5q107 0 164.5 53.5t57.5 150.5v244z" />
    <glyph glyph-name="odieresis" unicode="&#xf6;" horiz-adv-x="660" 
d="M238 863q14 0 18.5 -5t4.5 -18v-7q0 -13 -4.5 -17.5t-18.5 -4.5h-6q-13 0 -18 4.5t-5 17.5v7q0 13 5 18t18 5h6zM429 863q13 0 18 -5t5 -18v-7q0 -13 -5 -17.5t-18 -4.5h-6q-13 0 -18 4.5t-5 17.5v7q0 13 5 18t18 5h6zM61 477q0 116 70 181.5t200 65.5q129 0 198.5 -65.5
t69.5 -181.5v-244q0 -116 -69.5 -181.5t-198.5 -65.5q-130 0 -200 65.5t-70 181.5v244zM553 477q0 97 -57.5 150.5t-164.5 53.5q-109 0 -166.5 -53.5t-57.5 -150.5v-244q0 -97 57.5 -150.5t166.5 -53.5q107 0 164.5 53.5t57.5 150.5v244z" />
    <glyph glyph-name="divide" unicode="&#xf7;" horiz-adv-x="591" 
d="M298 556q16 0 21.5 -6t5.5 -21v-6q0 -16 -5.5 -21.5t-21.5 -5.5h-5q-16 0 -21.5 5.5t-5.5 21.5v6q0 15 5.5 21t21.5 6h5zM518 345q13 0 13 -12v-17q0 -12 -13 -12h-445q-13 0 -13 12v17q0 12 13 12h445zM298 155q16 0 21.5 -5.5t5.5 -21.5v-6q0 -15 -5.5 -21t-21.5 -6h-5
q-16 0 -21.5 5.5t-5.5 21.5v6q0 16 5.5 21.5t21.5 5.5h5z" />
    <glyph glyph-name="oslash" unicode="&#xf8;" horiz-adv-x="660" 
d="M602 749q5 0 3 -5l-63 -98q57 -62 57 -169v-244q0 -116 -69.5 -181.5t-198.5 -65.5q-113 0 -179 49l-47 -73q-3 -5 -12 -5h-25q-6 0 -3 5l60 94q-64 64 -64 177v244q0 116 70 181.5t200 65.5q118 0 185 -56l49 77q4 4 10 4h27zM492 630q-57 51 -161 51
q-109 0 -166.5 -53.5t-57.5 -150.5v-244q0 -84 47 -133zM176 74q57 -45 155 -45q107 0 164.5 53.5t57.5 150.5v244q0 77 -39 124z" />
    <glyph glyph-name="ugrave" unicode="&#xf9;" 
d="M246 886q8 9 23 2l172 -102q9 -5 1 -14l-7 -8q-4 -6 -16 -1l-180 98q-11 4 -2 14zM122 240q0 -99 55 -155.5t163 -56.5q107 0 162 56.5t55 155.5v457q0 13 12 13h22q12 0 12 -13v-457q0 -119 -67 -187t-196 -68q-130 0 -197 68t-67 187v457q0 13 13 13h21q12 0 12 -13
v-457z" />
    <glyph glyph-name="uacute" unicode="&#xfa;" 
d="M409 895q15 7 23 -2l9 -11q10 -10 -2 -15l-177 -102q-11 -4 -16 1l-7 8q-7 8 1 14zM122 240q0 -99 55 -155.5t163 -56.5q107 0 162 56.5t55 155.5v457q0 13 12 13h22q12 0 12 -13v-457q0 -119 -67 -187t-196 -68q-130 0 -197 68t-67 187v457q0 13 13 13h21q12 0 12 -13
v-457z" />
    <glyph glyph-name="ucircumflex" unicode="&#xfb;" 
d="M343 897q12 0 24 -11l132 -112q10 -10 -6 -10h-18q-14 0 -21 7l-114 95l-116 -95q-8 -7 -19 -7h-19q-16 0 -6 10l133 112q12 11 24 11h6zM122 240q0 -99 55 -155.5t163 -56.5q107 0 162 56.5t55 155.5v457q0 13 12 13h22q12 0 12 -13v-457q0 -119 -67 -187t-196 -68
q-130 0 -197 68t-67 187v457q0 13 13 13h21q12 0 12 -13v-457z" />
    <glyph glyph-name="udieresis" unicode="&#xfc;" 
d="M247 853q14 0 18.5 -5t4.5 -18v-7q0 -13 -4.5 -17.5t-18.5 -4.5h-6q-13 0 -18 4.5t-5 17.5v7q0 13 5 18t18 5h6zM438 853q13 0 18 -5t5 -18v-7q0 -13 -5 -17.5t-18 -4.5h-6q-13 0 -18 4.5t-5 17.5v7q0 13 5 18t18 5h6zM122 240q0 -99 55 -155.5t163 -56.5q107 0 162 56.5
t55 155.5v457q0 13 12 13h22q12 0 12 -13v-457q0 -119 -67 -187t-196 -68q-130 0 -197 68t-67 187v457q0 13 13 13h21q12 0 12 -13v-457z" />
    <glyph glyph-name="yacute" unicode="&#xfd;" horiz-adv-x="619" 
d="M380 895q15 7 23 -2l9 -11q9 -10 -2 -15l-177 -102q-12 -4 -16 1l-7 8q-8 9 1 14zM596 710q14 0 7 -13l-271 -405v-279q0 -13 -12 -13h-21q-13 0 -13 13v280l-270 404q-7 13 7 13h27q18 0 23 -11l237 -359l237 359q7 11 24 11h25z" />
    <glyph glyph-name="thorn" unicode="&#xfe;" horiz-adv-x="616" 
d="M354 587q106 0 168.5 -61.5t62.5 -166.5t-62.5 -165.5t-168.5 -60.5h-226v-120q0 -13 -12 -13h-21q-13 0 -13 13v684q0 13 13 13h21q12 0 12 -13v-110h226zM350 176q86 0 136.5 49.5t50.5 133.5q0 85 -50.5 135t-136.5 50h-222v-368h222z" />
    <glyph glyph-name="ydieresis" unicode="&#xff;" horiz-adv-x="619" 
d="M218 853q13 0 18 -5t5 -18v-7q0 -13 -5 -17.5t-18 -4.5h-6q-13 0 -18 4.5t-5 17.5v7q0 13 5 18t18 5h6zM409 853q13 0 18 -5t5 -18v-7q0 -13 -5 -17.5t-18 -4.5h-6q-13 0 -18 4.5t-5 17.5v7q0 13 5 18t18 5h6zM596 710q14 0 7 -13l-271 -405v-279q0 -13 -12 -13h-21
q-13 0 -13 13v280l-270 404q-7 13 7 13h27q18 0 23 -11l237 -359l237 359q7 11 24 11h25z" />
    <glyph glyph-name="Amacron" unicode="&#x100;" horiz-adv-x="632" 
d="M435 839q11 0 11 -11v-10q0 -12 -11 -12h-238q-11 0 -11 12v10q0 11 11 11h238zM620 12q5 -12 -10 -12h-18q-20 0 -22 11l-89 221h-332l-88 -221q-4 -11 -23 -11h-17q-14 0 -9 12l277 691q5 12 17 12h20q13 0 17 -12zM326 626q-3 9 -10 43h-3q0 -20 -8 -43l-142 -355h305
z" />
    <glyph glyph-name="amacron" unicode="&#x101;" horiz-adv-x="632" 
d="M435 839q11 0 11 -11v-10q0 -12 -11 -12h-238q-11 0 -11 12v10q0 11 11 11h238zM620 12q5 -12 -10 -12h-18q-20 0 -22 11l-89 221h-332l-88 -221q-4 -11 -23 -11h-17q-14 0 -9 12l277 691q5 12 17 12h20q13 0 17 -12zM326 626q-3 9 -10 43h-3q0 -20 -8 -43l-142 -355h305
z" />
    <glyph glyph-name="Abreve" unicode="&#x102;" horiz-adv-x="632" 
d="M466 876q-31 -112 -150 -112q-118 0 -150 112q-3 8 6 11l16 6q9 3 12 -5q25 -90 116 -90t116 90q3 8 11 5l18 -6q8 -3 5 -11zM620 12q5 -12 -10 -12h-18q-20 0 -22 11l-89 221h-332l-88 -221q-4 -11 -23 -11h-17q-14 0 -9 12l277 691q5 12 17 12h20q13 0 17 -12zM326 626
q-3 9 -10 43h-3q0 -20 -8 -43l-142 -355h305z" />
    <glyph glyph-name="abreve" unicode="&#x103;" horiz-adv-x="632" 
d="M466 876q-31 -112 -150 -112q-118 0 -150 112q-3 8 6 11l16 6q9 3 12 -5q25 -90 116 -90t116 90q3 8 11 5l18 -6q8 -3 5 -11zM620 12q5 -12 -10 -12h-18q-20 0 -22 11l-89 221h-332l-88 -221q-4 -11 -23 -11h-17q-14 0 -9 12l277 691q5 12 17 12h20q13 0 17 -12zM326 626
q-3 9 -10 43h-3q0 -20 -8 -43l-142 -355h305z" />
    <glyph glyph-name="Aogonek" unicode="&#x104;" horiz-adv-x="631" 
d="M326 715q13 0 17 -12l276 -688q3 -10 -2 -15q-57 -46 -86.5 -98t-17.5 -83q11 -32 44 -32q38 0 65 28q5 5 8 -2l5 -15q2 -6 -2 -10q-35 -35 -87 -35q-56 0 -71 47q-14 41 14.5 97t94.5 108q-13 0 -16 12l-90 223h-325l-92 -229q-4 -11 -23 -11h-16q-16 0 -9 12l277 691
q4 12 17 12h19zM383 487q-13 32 -34.5 93.5t-31.5 86.5h-3q-10 -24 -31 -85.5t-34 -94.5l-82 -208h297z" />
    <glyph glyph-name="aogonek" unicode="&#x105;" horiz-adv-x="631" 
d="M326 715q13 0 17 -12l276 -688q3 -10 -2 -15q-57 -46 -86.5 -98t-17.5 -83q11 -32 44 -32q38 0 65 28q5 5 8 -2l5 -15q2 -6 -2 -10q-35 -35 -87 -35q-56 0 -71 47q-14 41 14.5 97t94.5 108q-13 0 -16 12l-90 223h-325l-92 -229q-4 -11 -23 -11h-16q-16 0 -9 12l277 691
q4 12 17 12h19zM383 487q-13 32 -34.5 93.5t-31.5 86.5h-3q-10 -24 -31 -85.5t-34 -94.5l-82 -208h297z" />
    <glyph glyph-name="Cacute" unicode="&#x106;" horiz-adv-x="634" 
d="M401 895q15 7 23 -2l9 -11q9 -10 -2 -15l-178 -102q-11 -4 -16 1l-6 8q-8 9 1 14zM61 478q0 116 69 181t200 65q113 0 175 -43t88 -131q3 -11 -9 -17l-18 -6q-13 -3 -17 8q-23 76 -73.5 111t-145.5 35q-109 0 -166 -53t-57 -149v-247q0 -95 58 -149t165 -54
q97 0 147 36.5t74 114.5q5 12 17 8l19 -7q12 -4 8 -16q-27 -90 -88.5 -134.5t-176.5 -44.5q-129 0 -199 65.5t-70 181.5v245z" />
    <glyph glyph-name="cacute" unicode="&#x107;" horiz-adv-x="634" 
d="M401 895q15 7 23 -2l9 -11q9 -10 -2 -15l-178 -102q-11 -4 -16 1l-6 8q-8 9 1 14zM61 478q0 116 69 181t200 65q113 0 175 -43t88 -131q3 -11 -9 -17l-18 -6q-13 -3 -17 8q-23 76 -73.5 111t-145.5 35q-109 0 -166 -53t-57 -149v-247q0 -95 58 -149t165 -54
q97 0 147 36.5t74 114.5q5 12 17 8l19 -7q12 -4 8 -16q-27 -90 -88.5 -134.5t-176.5 -44.5q-129 0 -199 65.5t-70 181.5v245z" />
    <glyph glyph-name="Ccircumflex" unicode="&#x108;" horiz-adv-x="634" 
d="M335 897q12 0 23 -11l133 -112q10 -10 -6 -10h-19q-13 0 -20 7l-115 95l-116 -95q-7 -7 -19 -7h-18q-16 0 -6 10l133 112q11 11 24 11h6zM61 478q0 116 69 181t200 65q113 0 175 -43t88 -131q3 -11 -9 -17l-18 -6q-13 -3 -17 8q-23 76 -73.5 111t-145.5 35
q-109 0 -166 -53t-57 -149v-247q0 -95 58 -149t165 -54q97 0 147 36.5t74 114.5q5 12 17 8l19 -7q12 -4 8 -16q-27 -90 -88.5 -134.5t-176.5 -44.5q-129 0 -199 65.5t-70 181.5v245z" />
    <glyph glyph-name="ccircumflex" unicode="&#x109;" horiz-adv-x="634" 
d="M335 897q12 0 23 -11l133 -112q10 -10 -6 -10h-19q-13 0 -20 7l-115 95l-116 -95q-7 -7 -19 -7h-18q-16 0 -6 10l133 112q11 11 24 11h6zM61 478q0 116 69 181t200 65q113 0 175 -43t88 -131q3 -11 -9 -17l-18 -6q-13 -3 -17 8q-23 76 -73.5 111t-145.5 35
q-109 0 -166 -53t-57 -149v-247q0 -95 58 -149t165 -54q97 0 147 36.5t74 114.5q5 12 17 8l19 -7q12 -4 8 -16q-27 -90 -88.5 -134.5t-176.5 -44.5q-129 0 -199 65.5t-70 181.5v245z" />
    <glyph glyph-name="Cdotaccent" unicode="&#x10a;" horiz-adv-x="634" 
d="M334 849q14 0 18.5 -5t4.5 -19v-5q0 -14 -4.5 -18.5t-18.5 -4.5h-5q-14 0 -19 4.5t-5 18.5v5q0 14 5 19t19 5h5zM61 478q0 116 69 181t200 65q113 0 175 -43t88 -131q3 -11 -9 -17l-18 -6q-13 -3 -17 8q-23 76 -73.5 111t-145.5 35q-109 0 -166 -53t-57 -149v-247
q0 -95 58 -149t165 -54q97 0 147 36.5t74 114.5q5 12 17 8l19 -7q12 -4 8 -16q-27 -90 -88.5 -134.5t-176.5 -44.5q-129 0 -199 65.5t-70 181.5v245z" />
    <glyph glyph-name="cdotaccent" unicode="&#x10b;" horiz-adv-x="634" 
d="M334 849q14 0 18.5 -5t4.5 -19v-5q0 -14 -4.5 -18.5t-18.5 -4.5h-5q-14 0 -19 4.5t-5 18.5v5q0 14 5 19t19 5h5zM61 478q0 116 69 181t200 65q113 0 175 -43t88 -131q3 -11 -9 -17l-18 -6q-13 -3 -17 8q-23 76 -73.5 111t-145.5 35q-109 0 -166 -53t-57 -149v-247
q0 -95 58 -149t165 -54q97 0 147 36.5t74 114.5q5 12 17 8l19 -7q12 -4 8 -16q-27 -90 -88.5 -134.5t-176.5 -44.5q-129 0 -199 65.5t-70 181.5v245z" />
    <glyph glyph-name="Ccaron" unicode="&#x10c;" horiz-adv-x="634" 
d="M484 898q16 0 5 -11l-132 -111q-12 -12 -23 -12h-6q-12 0 -24 12l-133 111q-4 3 -3 7t9 4h18q12 0 19 -7l116 -95l115 95q7 7 20 7h19zM61 478q0 116 69 181t200 65q113 0 175 -43t88 -131q3 -11 -9 -17l-18 -6q-13 -3 -17 8q-23 76 -73.5 111t-145.5 35q-109 0 -166 -53
t-57 -149v-247q0 -95 58 -149t165 -54q97 0 147 36.5t74 114.5q5 12 17 8l19 -7q12 -4 8 -16q-27 -90 -88.5 -134.5t-176.5 -44.5q-129 0 -199 65.5t-70 181.5v245z" />
    <glyph glyph-name="ccaron" unicode="&#x10d;" horiz-adv-x="634" 
d="M484 898q16 0 5 -11l-132 -111q-12 -12 -23 -12h-6q-12 0 -24 12l-133 111q-4 3 -3 7t9 4h18q12 0 19 -7l116 -95l115 95q7 7 20 7h19zM61 478q0 116 69 181t200 65q113 0 175 -43t88 -131q3 -11 -9 -17l-18 -6q-13 -3 -17 8q-23 76 -73.5 111t-145.5 35q-109 0 -166 -53
t-57 -149v-247q0 -95 58 -149t165 -54q97 0 147 36.5t74 114.5q5 12 17 8l19 -7q12 -4 8 -16q-27 -90 -88.5 -134.5t-176.5 -44.5q-129 0 -199 65.5t-70 181.5v245z" />
    <glyph glyph-name="Dcaron" unicode="&#x10e;" horiz-adv-x="646" 
d="M461 898q16 0 5 -11l-132 -111q-12 -12 -23 -12h-6q-12 0 -24 12l-132 111q-4 3 -3.5 7t8.5 4h18q12 0 19 -7l116 -95l115 95q7 7 20 7h19zM299 710q138 0 214 -70.5t76 -193.5v-182q0 -123 -76 -193.5t-214 -70.5h-204q-13 0 -13 13v684q0 13 13 13h204zM543 446
q0 105 -63 163t-180 58h-172v-624h172q116 0 179.5 58t63.5 163v182z" />
    <glyph glyph-name="dcaron" unicode="&#x10f;" horiz-adv-x="646" 
d="M461 898q16 0 5 -11l-132 -111q-12 -12 -23 -12h-6q-12 0 -24 12l-132 111q-4 3 -3.5 7t8.5 4h18q12 0 19 -7l116 -95l115 95q7 7 20 7h19zM299 710q138 0 214 -70.5t76 -193.5v-182q0 -123 -76 -193.5t-214 -70.5h-204q-13 0 -13 13v684q0 13 13 13h204zM543 446
q0 105 -63 163t-180 58h-172v-624h172q116 0 179.5 58t63.5 163v182z" />
    <glyph glyph-name="Dcroat" unicode="&#x110;" horiz-adv-x="655" 
d="M309 710q138 0 214 -70.5t76 -193.5v-182q0 -123 -76 -193.5t-214 -70.5h-205q-13 0 -13 13v328h-80q-10 0 -10 10v13q0 10 10 10h80v323q0 13 13 13h205zM553 446q0 105 -63.5 163t-180.5 58h-171v-293h191q10 0 10 -10v-13q0 -10 -10 -10h-191v-298h171q117 0 180.5 58
t63.5 163v182z" />
    <glyph glyph-name="dcroat" unicode="&#x111;" horiz-adv-x="655" 
d="M309 710q138 0 214 -70.5t76 -193.5v-182q0 -123 -76 -193.5t-214 -70.5h-205q-13 0 -13 13v328h-80q-10 0 -10 10v13q0 10 10 10h80v323q0 13 13 13h205zM553 446q0 105 -63.5 163t-180.5 58h-171v-293h191q10 0 10 -10v-13q0 -10 -10 -10h-191v-298h171q117 0 180.5 58
t63.5 163v182z" />
    <glyph glyph-name="Emacron" unicode="&#x112;" horiz-adv-x="570" 
d="M418 839q7 0 9 -2t2 -9v-10q0 -12 -11 -12h-237q-11 0 -11 12v10q0 11 11 11h237zM503 710q13 0 13 -13v-18q0 -12 -13 -12h-375v-286h332q12 0 12 -12v-18q0 -13 -12 -13h-332v-295h389q13 0 13 -12v-18q0 -13 -13 -13h-422q-13 0 -13 13v684q0 13 13 13h408z" />
    <glyph glyph-name="emacron" unicode="&#x113;" horiz-adv-x="570" 
d="M418 839q7 0 9 -2t2 -9v-10q0 -12 -11 -12h-237q-11 0 -11 12v10q0 11 11 11h237zM503 710q13 0 13 -13v-18q0 -12 -13 -12h-375v-286h332q12 0 12 -12v-18q0 -13 -12 -13h-332v-295h389q13 0 13 -12v-18q0 -13 -13 -13h-422q-13 0 -13 13v684q0 13 13 13h408z" />
    <glyph glyph-name="Ebreve" unicode="&#x114;" horiz-adv-x="570" 
d="M450 876q-32 -112 -151 -112q-118 0 -149 112q-3 8 5 11l16 6q9 3 13 -5q23 -90 115 -90q93 0 116 90q4 7 11 5l18 -6q9 -3 6 -11zM503 710q13 0 13 -13v-18q0 -12 -13 -12h-375v-286h332q12 0 12 -12v-18q0 -13 -12 -13h-332v-295h389q13 0 13 -12v-18q0 -13 -13 -13
h-422q-13 0 -13 13v684q0 13 13 13h408z" />
    <glyph glyph-name="ebreve" unicode="&#x115;" horiz-adv-x="570" 
d="M450 876q-32 -112 -151 -112q-118 0 -149 112q-3 8 5 11l16 6q9 3 13 -5q23 -90 115 -90q93 0 116 90q4 7 11 5l18 -6q9 -3 6 -11zM503 710q13 0 13 -13v-18q0 -12 -13 -12h-375v-286h332q12 0 12 -12v-18q0 -13 -12 -13h-332v-295h389q13 0 13 -12v-18q0 -13 -13 -13
h-422q-13 0 -13 13v684q0 13 13 13h408z" />
    <glyph glyph-name="Edotaccent" unicode="&#x116;" horiz-adv-x="570" 
d="M302 849q14 0 18.5 -5t4.5 -19v-5q0 -14 -4.5 -18.5t-18.5 -4.5h-5q-14 0 -19 4.5t-5 18.5v5q0 14 5 19t19 5h5zM503 710q13 0 13 -13v-18q0 -12 -13 -12h-375v-286h332q12 0 12 -12v-18q0 -13 -12 -13h-332v-295h389q13 0 13 -12v-18q0 -13 -13 -13h-422q-13 0 -13 13
v684q0 13 13 13h408z" />
    <glyph glyph-name="edotaccent" unicode="&#x117;" horiz-adv-x="570" 
d="M302 849q14 0 18.5 -5t4.5 -19v-5q0 -14 -4.5 -18.5t-18.5 -4.5h-5q-14 0 -19 4.5t-5 18.5v5q0 14 5 19t19 5h5zM503 710q13 0 13 -13v-18q0 -12 -13 -12h-375v-286h332q12 0 12 -12v-18q0 -13 -12 -13h-332v-295h389q13 0 13 -12v-18q0 -13 -13 -13h-422q-13 0 -13 13
v684q0 13 13 13h408z" />
    <glyph glyph-name="Eogonek" unicode="&#x118;" horiz-adv-x="570" 
d="M503 710q13 0 13 -13v-18q0 -12 -13 -12h-375v-286h332q12 0 12 -13v-18q0 -12 -12 -12h-332v-295h389q13 0 13 -12v-18q0 -5 -4 -11q-66 -52 -96 -101.5t-18 -81.5q11 -30 46 -30q36 0 61 27q6 5 9 -2l5 -14q3 -6 -2 -11q-38 -36 -87 -36q-55 0 -70 48q-14 40 15.5 94
t96.5 105h-391q-13 0 -13 13v684q0 13 13 13h408z" />
    <glyph glyph-name="eogonek" unicode="&#x119;" horiz-adv-x="570" 
d="M503 710q13 0 13 -13v-18q0 -12 -13 -12h-375v-286h332q12 0 12 -13v-18q0 -12 -12 -12h-332v-295h389q13 0 13 -12v-18q0 -5 -4 -11q-66 -52 -96 -101.5t-18 -81.5q11 -30 46 -30q36 0 61 27q6 5 9 -2l5 -14q3 -6 -2 -11q-38 -36 -87 -36q-55 0 -70 48q-14 40 15.5 94
t96.5 105h-391q-13 0 -13 13v684q0 13 13 13h408z" />
    <glyph glyph-name="Ecaron" unicode="&#x11a;" horiz-adv-x="570" 
d="M452 898q16 0 5 -11l-132 -111q-12 -12 -23 -12h-6q-12 0 -24 12l-132 111q-4 3 -3.5 7t8.5 4h18q12 0 19 -7l116 -95l115 95q7 7 20 7h19zM503 710q13 0 13 -13v-18q0 -12 -13 -12h-375v-286h332q12 0 12 -12v-18q0 -13 -12 -13h-332v-295h389q13 0 13 -12v-18
q0 -13 -13 -13h-422q-13 0 -13 13v684q0 13 13 13h408z" />
    <glyph glyph-name="ecaron" unicode="&#x11b;" horiz-adv-x="570" 
d="M452 898q16 0 5 -11l-132 -111q-12 -12 -23 -12h-6q-12 0 -24 12l-132 111q-4 3 -3.5 7t8.5 4h18q12 0 19 -7l116 -95l115 95q7 7 20 7h19zM503 710q13 0 13 -13v-18q0 -12 -13 -12h-375v-286h332q12 0 12 -12v-18q0 -13 -12 -13h-332v-295h389q13 0 13 -12v-18
q0 -13 -13 -13h-422q-13 0 -13 13v684q0 13 13 13h408z" />
    <glyph glyph-name="Gcircumflex" unicode="&#x11c;" horiz-adv-x="651" 
d="M333 907q12 0 24 -11l132 -112q10 -10 -6 -10h-18q-13 0 -21 7l-114 95l-116 -95q-8 -7 -19 -7h-18q-17 0 -7 10l134 112q11 11 24 11h5zM586 358q13 0 13 -14v-117q0 -111 -70 -176t-198 -65q-130 0 -200 66t-70 182v244q0 116 69 181t200 65q113 0 175 -43t88 -131
q3 -11 -9 -17l-18 -6q-13 -4 -17 8q-23 76 -73.5 111t-145.5 35q-110 0 -166.5 -53t-56.5 -149v-245q0 -97 58 -151t166 -54q107 0 165 53t58 145v87h-214q-13 0 -13 13v18q0 13 13 13h246z" />
    <glyph glyph-name="gcircumflex" unicode="&#x11d;" horiz-adv-x="651" 
d="M333 907q12 0 24 -11l132 -112q10 -10 -6 -10h-18q-13 0 -21 7l-114 95l-116 -95q-8 -7 -19 -7h-18q-17 0 -7 10l134 112q11 11 24 11h5zM586 358q13 0 13 -14v-117q0 -111 -70 -176t-198 -65q-130 0 -200 66t-70 182v244q0 116 69 181t200 65q113 0 175 -43t88 -131
q3 -11 -9 -17l-18 -6q-13 -4 -17 8q-23 76 -73.5 111t-145.5 35q-110 0 -166.5 -53t-56.5 -149v-245q0 -97 58 -151t166 -54q107 0 165 53t58 145v87h-214q-13 0 -13 13v18q0 13 13 13h246z" />
    <glyph glyph-name="Gbreve" unicode="&#x11e;" horiz-adv-x="651" 
d="M480 886q-31 -112 -150 -112t-150 112q-3 8 6 11l16 6q9 3 12 -5q25 -90 116 -90t116 90q3 8 11 5l18 -6q8 -3 5 -11zM586 358q13 0 13 -14v-117q0 -111 -70 -176t-198 -65q-130 0 -200 66t-70 182v244q0 116 69 181t200 65q113 0 175 -43t88 -131q3 -11 -9 -17l-18 -6
q-13 -4 -17 8q-23 76 -73.5 111t-145.5 35q-110 0 -166.5 -53t-56.5 -149v-245q0 -97 58 -151t166 -54q107 0 165 53t58 145v87h-214q-13 0 -13 13v18q0 13 13 13h246z" />
    <glyph glyph-name="gbreve" unicode="&#x11f;" horiz-adv-x="651" 
d="M480 886q-31 -112 -150 -112t-150 112q-3 8 6 11l16 6q9 3 12 -5q25 -90 116 -90t116 90q3 8 11 5l18 -6q8 -3 5 -11zM586 358q13 0 13 -14v-117q0 -111 -70 -176t-198 -65q-130 0 -200 66t-70 182v244q0 116 69 181t200 65q113 0 175 -43t88 -131q3 -11 -9 -17l-18 -6
q-13 -4 -17 8q-23 76 -73.5 111t-145.5 35q-110 0 -166.5 -53t-56.5 -149v-245q0 -97 58 -151t166 -54q107 0 165 53t58 145v87h-214q-13 0 -13 13v18q0 13 13 13h246z" />
    <glyph glyph-name="Gdotaccent" unicode="&#x120;" horiz-adv-x="651" 
d="M332 859q14 0 19 -5t5 -19v-5q0 -13 -5 -18t-19 -5h-4q-14 0 -19 4.5t-5 18.5v5q0 14 5 19t19 5h4zM586 358q13 0 13 -14v-117q0 -111 -70 -176t-198 -65q-130 0 -200 66t-70 182v244q0 116 69 181t200 65q113 0 175 -43t88 -131q3 -11 -9 -17l-18 -6q-13 -4 -17 8
q-23 76 -73.5 111t-145.5 35q-110 0 -166.5 -53t-56.5 -149v-245q0 -97 58 -151t166 -54q107 0 165 53t58 145v87h-214q-13 0 -13 13v18q0 13 13 13h246z" />
    <glyph glyph-name="gdotaccent" unicode="&#x121;" horiz-adv-x="651" 
d="M332 859q14 0 19 -5t5 -19v-5q0 -13 -5 -18t-19 -5h-4q-14 0 -19 4.5t-5 18.5v5q0 14 5 19t19 5h4zM586 358q13 0 13 -14v-117q0 -111 -70 -176t-198 -65q-130 0 -200 66t-70 182v244q0 116 69 181t200 65q113 0 175 -43t88 -131q3 -11 -9 -17l-18 -6q-13 -4 -17 8
q-23 76 -73.5 111t-145.5 35q-110 0 -166.5 -53t-56.5 -149v-245q0 -97 58 -151t166 -54q107 0 165 53t58 145v87h-214q-13 0 -13 13v18q0 13 13 13h246z" />
    <glyph glyph-name="Gcommaaccent" unicode="&#x122;" horiz-adv-x="651" 
d="M586 358q13 0 13 -14v-117q0 -111 -70 -176t-198 -65q-130 0 -200 66t-70 182v244q0 116 69 181t200 65q113 0 175 -43t88 -131q3 -11 -9 -17l-18 -6q-13 -4 -17 8q-23 76 -73.5 111t-145.5 35q-110 0 -166.5 -53t-56.5 -149v-245q0 -97 58 -151t166 -54q107 0 165 53
t58 145v87h-214q-13 0 -13 13v18q0 13 13 13h246zM325 -234q-4 -11 -14 -11h-14q-9 0 -8 9l39 146q2 12 15 12h19q15 0 11 -13z" />
    <glyph glyph-name="gcommaaccent" unicode="&#x123;" horiz-adv-x="651" 
d="M586 358q13 0 13 -14v-117q0 -111 -70 -176t-198 -65q-130 0 -200 66t-70 182v244q0 116 69 181t200 65q113 0 175 -43t88 -131q3 -11 -9 -17l-18 -6q-13 -4 -17 8q-23 76 -73.5 111t-145.5 35q-110 0 -166.5 -53t-56.5 -149v-245q0 -97 58 -151t166 -54q107 0 165 53
t58 145v87h-214q-13 0 -13 13v18q0 13 13 13h246zM325 -234q-4 -11 -14 -11h-14q-9 0 -8 9l39 146q2 12 15 12h19q15 0 11 -13z" />
    <glyph glyph-name="Hcircumflex" unicode="&#x124;" 
d="M343 897q12 0 23 -11l133 -112q10 -10 -6 -10h-19q-13 0 -20 7l-115 95l-116 -95q-7 -7 -19 -7h-18q-16 0 -6 10l133 112q11 11 24 11h6zM584 710q13 0 13 -13v-684q0 -13 -13 -13h-21q-12 0 -12 13v325h-423v-325q0 -13 -12 -13h-21q-13 0 -13 13v684q0 13 13 13h21
q12 0 12 -13v-316h423v316q0 13 12 13h21z" />
    <glyph glyph-name="hcircumflex" unicode="&#x125;" 
d="M343 897q12 0 23 -11l133 -112q10 -10 -6 -10h-19q-13 0 -20 7l-115 95l-116 -95q-7 -7 -19 -7h-18q-16 0 -6 10l133 112q11 11 24 11h6zM584 710q13 0 13 -13v-684q0 -13 -13 -13h-21q-12 0 -12 13v325h-423v-325q0 -13 -12 -13h-21q-13 0 -13 13v684q0 13 13 13h21
q12 0 12 -13v-316h423v316q0 13 12 13h21z" />
    <glyph glyph-name="Hbar" unicode="&#x126;" horiz-adv-x="685" 
d="M668 584q9 0 9 -10v-10q0 -11 -9 -11h-68v-540q0 -13 -13 -13h-21q-12 0 -12 13v325h-423v-325q0 -13 -12 -13h-21q-13 0 -13 13v540h-67q-9 0 -9 11v10q0 10 9 10h67v113q0 13 13 13h21q12 0 12 -13v-113h423v113q0 13 12 13h21q13 0 13 -13v-113h68zM554 381v172h-423
v-172h423z" />
    <glyph glyph-name="hbar" unicode="&#x127;" horiz-adv-x="685" 
d="M668 584q9 0 9 -10v-10q0 -11 -9 -11h-68v-540q0 -13 -13 -13h-21q-12 0 -12 13v325h-423v-325q0 -13 -12 -13h-21q-13 0 -13 13v540h-67q-9 0 -9 11v10q0 10 9 10h67v113q0 13 13 13h21q12 0 12 -13v-113h423v113q0 13 12 13h21q13 0 13 -13v-113h68zM554 381v172h-423
v-172h423z" />
    <glyph glyph-name="Itilde" unicode="&#x128;" horiz-adv-x="210" 
d="M249 875q8 0 8 -8q0 -94 -74 -94q-37 0 -82.5 36t-73.5 36q-23 0 -35.5 -17.5t-12.5 -46.5q0 -8 -8 -8h-14q-8 0 -8 8q0 94 75 94q38 0 83.5 -36t72.5 -36q48 0 48 64q0 8 8 8h13zM82 697q0 13 13 13h21q12 0 12 -13v-684q0 -13 -12 -13h-21q-13 0 -13 13v684z" />
    <glyph glyph-name="itilde" unicode="&#x129;" horiz-adv-x="210" 
d="M249 875q8 0 8 -8q0 -94 -74 -94q-37 0 -82.5 36t-73.5 36q-23 0 -35.5 -17.5t-12.5 -46.5q0 -8 -8 -8h-14q-8 0 -8 8q0 94 75 94q38 0 83.5 -36t72.5 -36q48 0 48 64q0 8 8 8h13zM82 697q0 13 13 13h21q12 0 12 -13v-684q0 -13 -12 -13h-21q-13 0 -13 13v684z" />
    <glyph glyph-name="Imacron" unicode="&#x12a;" horiz-adv-x="210" 
d="M224 839q11 0 11 -11v-10q0 -12 -11 -12h-238q-11 0 -11 12v10q0 11 11 11h238zM82 697q0 13 13 13h21q12 0 12 -13v-684q0 -13 -12 -13h-21q-13 0 -13 13v684z" />
    <glyph glyph-name="imacron" unicode="&#x12b;" horiz-adv-x="210" 
d="M224 839q11 0 11 -11v-10q0 -12 -11 -12h-238q-11 0 -11 12v10q0 11 11 11h238zM82 697q0 13 13 13h21q12 0 12 -13v-684q0 -13 -12 -13h-21q-13 0 -13 13v684z" />
    <glyph glyph-name="Ibreve" unicode="&#x12c;" horiz-adv-x="210" 
d="M255 876q-31 -112 -150 -112t-150 112q-3 8 6 11l16 6q9 3 12 -5q25 -90 116 -90t116 90q3 8 11 5l18 -6q8 -3 5 -11zM82 697q0 13 13 13h21q12 0 12 -13v-684q0 -13 -12 -13h-21q-13 0 -13 13v684z" />
    <glyph glyph-name="ibreve" unicode="&#x12d;" horiz-adv-x="210" 
d="M255 876q-31 -112 -150 -112t-150 112q-3 8 6 11l16 6q9 3 12 -5q25 -90 116 -90t116 90q3 8 11 5l18 -6q8 -3 5 -11zM82 697q0 13 13 13h21q12 0 12 -13v-684q0 -13 -12 -13h-21q-13 0 -13 13v684z" />
    <glyph glyph-name="Iogonek" unicode="&#x12e;" horiz-adv-x="210" 
d="M188 -201q2 -6 -2 -10q-36 -36 -87 -36q-58 0 -71 47q-27 74 65 201q-11 0 -11 12v684q0 13 13 13h21q12 0 12 -13v-684q0 -8 -3 -11q-84 -119 -59 -183q10 -31 45 -31q36 0 63 27q7 5 8 -2z" />
    <glyph glyph-name="iogonek" unicode="&#x12f;" horiz-adv-x="210" 
d="M188 -201q2 -6 -2 -10q-36 -36 -87 -36q-58 0 -71 47q-27 74 65 201q-11 0 -11 12v684q0 13 13 13h21q12 0 12 -13v-684q0 -8 -3 -11q-84 -119 -59 -183q10 -31 45 -31q36 0 63 27q7 5 8 -2z" />
    <glyph glyph-name="Idotaccent" unicode="&#x130;" horiz-adv-x="210" 
d="M107 849q14 0 19 -5t5 -19v-5q0 -13 -5 -18t-19 -5h-4q-14 0 -19 4.5t-5 18.5v5q0 14 5 19t19 5h4zM82 697q0 13 13 13h21q12 0 12 -13v-684q0 -13 -12 -13h-21q-13 0 -13 13v684z" />
    <glyph glyph-name="dotlessi" unicode="&#x131;" horiz-adv-x="210" 
d="M82 697q0 13 13 13h21q12 0 12 -13v-684q0 -13 -12 -13h-21q-13 0 -13 13v684z" />
    <glyph glyph-name="IJ" unicode="&#x132;" horiz-adv-x="780" 
d="M82 697q0 13 13 13h21q12 0 12 -13v-684q0 -13 -12 -13h-21q-13 0 -13 13v684zM691 710q12 0 12 -12v-481q0 -108 -61.5 -170t-174.5 -62q-194 0 -232 197q-4 13 8 17l20 7q12 4 16 -8q16 -84 60.5 -126.5t127.5 -42.5q92 0 141 49.5t49 138.5v481q0 12 12 12h22z" />
    <glyph glyph-name="ij" unicode="&#x133;" horiz-adv-x="780" 
d="M82 697q0 13 13 13h21q12 0 12 -13v-684q0 -13 -12 -13h-21q-13 0 -13 13v684zM691 710q12 0 12 -12v-481q0 -108 -61.5 -170t-174.5 -62q-194 0 -232 197q-4 13 8 17l20 7q12 4 16 -8q16 -84 60.5 -126.5t127.5 -42.5q92 0 141 49.5t49 138.5v481q0 12 12 12h22z" />
    <glyph glyph-name="Jcircumflex" unicode="&#x134;" horiz-adv-x="567" 
d="M470 897q12 0 24 -11l132 -112q10 -10 -6 -10h-18q-14 0 -21 7l-114 95l-116 -95q-8 -7 -20 -7h-18q-16 0 -6 10l133 112q12 11 24 11h6zM478 710q12 0 12 -12v-481q0 -108 -61.5 -170t-174.5 -62q-194 0 -232 197q-4 13 8 17l20 7q12 4 16 -8q16 -84 60.5 -126.5
t127.5 -42.5q92 0 141 49.5t49 138.5v481q0 12 12 12h22z" />
    <glyph glyph-name="jcircumflex" unicode="&#x135;" horiz-adv-x="567" 
d="M470 897q12 0 24 -11l132 -112q10 -10 -6 -10h-18q-14 0 -21 7l-114 95l-116 -95q-8 -7 -20 -7h-18q-16 0 -6 10l133 112q12 11 24 11h6zM478 710q12 0 12 -12v-481q0 -108 -61.5 -170t-174.5 -62q-194 0 -232 197q-4 13 8 17l20 7q12 4 16 -8q16 -84 60.5 -126.5
t127.5 -42.5q92 0 141 49.5t49 138.5v481q0 12 12 12h22z" />
    <glyph glyph-name="Kcommaaccent" unicode="&#x136;" horiz-adv-x="600" 
d="M579 13q7 -13 -7 -13h-20q-19 0 -25 11l-117 233q-26 51 -60 73t-95 22h-127v-326q0 -13 -12 -13h-21q-13 0 -13 13v684q0 13 13 13h21q12 0 12 -13v-316h124q18 0 25 -1l236 319q9 11 26 11h23q15 0 6 -13l-243 -325q44 -10 74 -36.5t54 -73.5zM305 -234q-2 -11 -14 -11
h-14q-9 0 -8 9l39 146q2 12 15 12h19q15 0 11 -13z" />
    <glyph glyph-name="kcommaaccent" unicode="&#x137;" horiz-adv-x="600" 
d="M579 13q7 -13 -7 -13h-20q-19 0 -25 11l-117 233q-26 51 -60 73t-95 22h-127v-326q0 -13 -12 -13h-21q-13 0 -13 13v684q0 13 13 13h21q12 0 12 -13v-316h124q18 0 25 -1l236 319q9 11 26 11h23q15 0 6 -13l-243 -325q44 -10 74 -36.5t54 -73.5zM305 -234q-2 -11 -14 -11
h-14q-9 0 -8 9l39 146q2 12 15 12h19q15 0 11 -13z" />
    <glyph glyph-name="kgreenlandic" unicode="&#x138;" horiz-adv-x="600" 
d="M579 13q7 -13 -7 -13h-20q-19 0 -25 11l-117 233q-26 51 -60 73t-95 22h-127v-326q0 -13 -12 -13h-21q-13 0 -13 13v684q0 13 13 13h21q12 0 12 -13v-316h124q18 0 25 -1l236 319q9 11 26 11h23q15 0 6 -13l-243 -325q44 -10 74 -36.5t54 -73.5z" />
    <glyph glyph-name="Lacute" unicode="&#x139;" horiz-adv-x="518" 
d="M175 895q15 7 23 -2l9 -11q10 -10 -2 -15l-177 -102q-11 -4 -16 1l-7 8q-7 8 1 14zM116 710q12 0 12 -13v-654h364q12 0 12 -12v-18q0 -13 -12 -13h-397q-13 0 -13 13v684q0 13 13 13h21z" />
    <glyph glyph-name="lacute" unicode="&#x13a;" horiz-adv-x="518" 
d="M175 895q15 7 23 -2l9 -11q10 -10 -2 -15l-177 -102q-11 -4 -16 1l-7 8q-7 8 1 14zM116 710q12 0 12 -13v-654h364q12 0 12 -12v-18q0 -13 -12 -13h-397q-13 0 -13 13v684q0 13 13 13h21z" />
    <glyph glyph-name="Lcommaaccent" unicode="&#x13b;" horiz-adv-x="518" 
d="M116 710q12 0 12 -13v-654h364q12 0 12 -12v-18q0 -13 -12 -13h-397q-13 0 -13 13v684q0 13 13 13h21zM271 -234q-2 -11 -14 -11h-13q-10 0 -9 9l40 146q1 12 14 12h19q15 0 11 -13z" />
    <glyph glyph-name="lcommaaccent" unicode="&#x13c;" horiz-adv-x="518" 
d="M116 710q12 0 12 -13v-654h364q12 0 12 -12v-18q0 -13 -12 -13h-397q-13 0 -13 13v684q0 13 13 13h21zM271 -234q-2 -11 -14 -11h-13q-10 0 -9 9l40 146q1 12 14 12h19q15 0 11 -13z" />
    <glyph glyph-name="Lcaron" unicode="&#x13d;" horiz-adv-x="518" 
d="M116 710q12 0 12 -13v-654h364q12 0 12 -12v-18q0 -13 -12 -13h-397q-13 0 -13 13v684q0 13 13 13h21zM359 500q-3 -12 -14 -12h-11q-10 0 -8 10l40 200q1 12 14 12h18q15 0 11 -13z" />
    <glyph glyph-name="lcaron" unicode="&#x13e;" horiz-adv-x="518" 
d="M116 710q12 0 12 -13v-654h364q12 0 12 -12v-18q0 -13 -12 -13h-397q-13 0 -13 13v684q0 13 13 13h21zM359 500q-3 -12 -14 -12h-11q-10 0 -8 10l40 200q1 12 14 12h18q15 0 11 -13z" />
    <glyph glyph-name="Ldot" unicode="&#x13f;" horiz-adv-x="518" 
d="M116 710q12 0 12 -13v-654h364q12 0 12 -12v-18q0 -13 -12 -13h-397q-13 0 -13 13v684q0 13 13 13h21zM341 383q15 0 21 -5.5t6 -21.5v-5q0 -16 -6 -22t-21 -6h-5q-16 0 -22 6t-6 22v5q0 16 6 21.5t22 5.5h5z" />
    <glyph glyph-name="ldot" unicode="&#x140;" horiz-adv-x="518" 
d="M116 710q12 0 12 -13v-654h364q12 0 12 -12v-18q0 -13 -12 -13h-397q-13 0 -13 13v684q0 13 13 13h21zM341 383q15 0 21 -5.5t6 -21.5v-5q0 -16 -6 -22t-21 -6h-5q-16 0 -22 6t-6 22v5q0 16 6 21.5t22 5.5h5z" />
    <glyph glyph-name="Lslash" unicode="&#x141;" horiz-adv-x="544" 
d="M518 43q12 0 12 -12v-18q0 -13 -12 -13h-398q-12 0 -12 13v285l-90 -44q-10 -4 -13 5l-7 14q-6 9 3 13l107 52v359q0 13 12 13h21q13 0 13 -13v-338l235 114q10 5 15 -4l7 -14q4 -9 -5 -13l-252 -122v-277h364z" />
    <glyph glyph-name="lslash" unicode="&#x142;" horiz-adv-x="544" 
d="M518 43q12 0 12 -12v-18q0 -13 -12 -13h-398q-12 0 -12 13v285l-90 -44q-10 -4 -13 5l-7 14q-6 9 3 13l107 52v359q0 13 12 13h21q13 0 13 -13v-338l235 114q10 5 15 -4l7 -14q4 -9 -5 -13l-252 -122v-277h364z" />
    <glyph glyph-name="Nacute" unicode="&#x143;" horiz-adv-x="688" 
d="M414 895q15 7 23 -2l9 -11q10 -10 -2 -15l-177 -102q-11 -4 -16 1l-7 8q-7 8 1 14zM594 710q12 0 12 -13v-684q0 -13 -12 -13h-21q-9 0 -14 8l-355 506q-18 25 -44.5 71t-36.5 59h-2q0 -16 3 -73t3 -92v-466q0 -13 -12 -13h-20q-13 0 -13 13v684q0 13 13 13h20q9 0 14 -7
l345 -493q20 -28 50.5 -78t41.5 -65h2q0 19 -3.5 80.5t-3.5 99.5v451q0 12 13 12h20z" />
    <glyph glyph-name="nacute" unicode="&#x144;" horiz-adv-x="688" 
d="M414 895q15 7 23 -2l9 -11q10 -10 -2 -15l-177 -102q-11 -4 -16 1l-7 8q-7 8 1 14zM594 710q12 0 12 -13v-684q0 -13 -12 -13h-21q-9 0 -14 8l-355 506q-18 25 -44.5 71t-36.5 59h-2q0 -16 3 -73t3 -92v-466q0 -13 -12 -13h-20q-13 0 -13 13v684q0 13 13 13h20q9 0 14 -7
l345 -493q20 -28 50.5 -78t41.5 -65h2q0 19 -3.5 80.5t-3.5 99.5v451q0 12 13 12h20z" />
    <glyph glyph-name="Ncommaaccent" unicode="&#x145;" horiz-adv-x="688" 
d="M594 710q12 0 12 -13v-684q0 -13 -12 -13h-21q-9 0 -14 8l-355 506q-18 25 -44.5 71t-36.5 59h-2q0 -16 3 -73t3 -92v-466q0 -13 -12 -13h-20q-13 0 -13 13v684q0 13 13 13h20q9 0 14 -7l345 -493q20 -28 50.5 -78t41.5 -65h2q0 19 -3.5 80.5t-3.5 99.5v451q0 12 13 12
h20zM325 -234q-4 -11 -14 -11h-14q-9 0 -8 9l39 146q2 12 15 12h18q15 0 11 -13z" />
    <glyph glyph-name="ncommaaccent" unicode="&#x146;" horiz-adv-x="688" 
d="M594 710q12 0 12 -13v-684q0 -13 -12 -13h-21q-9 0 -14 8l-355 506q-18 25 -44.5 71t-36.5 59h-2q0 -16 3 -73t3 -92v-466q0 -13 -12 -13h-20q-13 0 -13 13v684q0 13 13 13h20q9 0 14 -7l345 -493q20 -28 50.5 -78t41.5 -65h2q0 19 -3.5 80.5t-3.5 99.5v451q0 12 13 12
h20zM325 -234q-4 -11 -14 -11h-14q-9 0 -8 9l39 146q2 12 15 12h18q15 0 11 -13z" />
    <glyph glyph-name="Ncaron" unicode="&#x147;" horiz-adv-x="688" 
d="M497 898q15 0 6 -11l-132 -111q-13 -12 -24 -12h-6q-11 0 -23 12l-133 111q-4 3 -3.5 7t8.5 4h19q11 0 19 -7l116 -95l114 95q7 7 21 7h18zM594 710q12 0 12 -13v-684q0 -13 -12 -13h-21q-9 0 -14 8l-355 506q-18 25 -44.5 71t-36.5 59h-2q0 -16 3 -73t3 -92v-466
q0 -13 -12 -13h-20q-13 0 -13 13v684q0 13 13 13h20q9 0 14 -7l345 -493q20 -28 50.5 -78t41.5 -65h2q0 19 -3.5 80.5t-3.5 99.5v451q0 12 13 12h20z" />
    <glyph glyph-name="ncaron" unicode="&#x148;" horiz-adv-x="688" 
d="M497 898q15 0 6 -11l-132 -111q-13 -12 -24 -12h-6q-11 0 -23 12l-133 111q-4 3 -3.5 7t8.5 4h19q11 0 19 -7l116 -95l114 95q7 7 21 7h18zM594 710q12 0 12 -13v-684q0 -13 -12 -13h-21q-9 0 -14 8l-355 506q-18 25 -44.5 71t-36.5 59h-2q0 -16 3 -73t3 -92v-466
q0 -13 -12 -13h-20q-13 0 -13 13v684q0 13 13 13h20q9 0 14 -7l345 -493q20 -28 50.5 -78t41.5 -65h2q0 19 -3.5 80.5t-3.5 99.5v451q0 12 13 12h20z" />
    <glyph glyph-name="napostrophe" unicode="&#x149;" horiz-adv-x="688" 
d="M594 710q12 0 12 -13v-684q0 -13 -12 -13h-21q-9 0 -14 8l-355 506q-18 25 -44.5 71t-36.5 59h-2q0 -16 3 -73t3 -92v-466q0 -13 -12 -13h-20q-13 0 -13 13v684q0 13 13 13h20q9 0 14 -7l345 -493q20 -28 50.5 -78t41.5 -65h2q0 19 -3.5 80.5t-3.5 99.5v451q0 12 13 12
h20z" />
    <glyph glyph-name="Eng" unicode="&#x14a;" horiz-adv-x="688" 
d="M594 710q12 0 12 -13v-710q0 -103 -57.5 -160t-164.5 -57q-11 0 -11 12v17q0 7 2 9t9 2q85 0 131 47.5t46 131.5v16l-357 509q-18 25 -44.5 71t-36.5 59h-2q0 -14 3 -65t3 -82v-484q0 -13 -12 -13h-20q-13 0 -13 13v684q0 13 13 13h20q9 0 14 -7l345 -493
q20 -28 50.5 -78t41.5 -65h2q0 19 -3.5 80.5t-3.5 99.5v451q0 12 13 12h20z" />
    <glyph glyph-name="eng" unicode="&#x14b;" horiz-adv-x="688" 
d="M594 710q12 0 12 -13v-710q0 -103 -57.5 -160t-164.5 -57q-11 0 -11 12v17q0 7 2 9t9 2q85 0 131 47.5t46 131.5v16l-357 509q-18 25 -44.5 71t-36.5 59h-2q0 -14 3 -65t3 -82v-484q0 -13 -12 -13h-20q-13 0 -13 13v684q0 13 13 13h20q9 0 14 -7l345 -493
q20 -28 50.5 -78t41.5 -65h2q0 19 -3.5 80.5t-3.5 99.5v451q0 12 13 12h20z" />
    <glyph glyph-name="Omacron" unicode="&#x14c;" horiz-adv-x="660" 
d="M449 849q12 0 12 -11v-10q0 -12 -12 -12h-237q-11 0 -11 12v10q0 11 11 11h237zM61 477q0 116 70 181.5t200 65.5q129 0 198.5 -65.5t69.5 -181.5v-244q0 -116 -69.5 -181.5t-198.5 -65.5q-130 0 -200 65.5t-70 181.5v244zM553 477q0 97 -57.5 150.5t-164.5 53.5
q-109 0 -166.5 -53.5t-57.5 -150.5v-244q0 -97 57.5 -150.5t166.5 -53.5q107 0 164.5 53.5t57.5 150.5v244z" />
    <glyph glyph-name="omacron" unicode="&#x14d;" horiz-adv-x="660" 
d="M449 849q12 0 12 -11v-10q0 -12 -12 -12h-237q-11 0 -11 12v10q0 11 11 11h237zM61 477q0 116 70 181.5t200 65.5q129 0 198.5 -65.5t69.5 -181.5v-244q0 -116 -69.5 -181.5t-198.5 -65.5q-130 0 -200 65.5t-70 181.5v244zM553 477q0 97 -57.5 150.5t-164.5 53.5
q-109 0 -166.5 -53.5t-57.5 -150.5v-244q0 -97 57.5 -150.5t166.5 -53.5q107 0 164.5 53.5t57.5 150.5v244z" />
    <glyph glyph-name="Obreve" unicode="&#x14e;" horiz-adv-x="660" 
d="M481 886q-32 -112 -150 -112q-119 0 -150 112q-3 8 5 11l17 6q8 2 12 -5q23 -90 116 -90q91 0 116 90q3 8 11 5l17 -6q9 -3 6 -11zM61 477q0 116 70 181.5t200 65.5q129 0 198.5 -65.5t69.5 -181.5v-244q0 -116 -69.5 -181.5t-198.5 -65.5q-130 0 -200 65.5t-70 181.5
v244zM553 477q0 97 -57.5 150.5t-164.5 53.5q-109 0 -166.5 -53.5t-57.5 -150.5v-244q0 -97 57.5 -150.5t166.5 -53.5q107 0 164.5 53.5t57.5 150.5v244z" />
    <glyph glyph-name="obreve" unicode="&#x14f;" horiz-adv-x="660" 
d="M481 886q-32 -112 -150 -112q-119 0 -150 112q-3 8 5 11l17 6q8 2 12 -5q23 -90 116 -90q91 0 116 90q3 8 11 5l17 -6q9 -3 6 -11zM61 477q0 116 70 181.5t200 65.5q129 0 198.5 -65.5t69.5 -181.5v-244q0 -116 -69.5 -181.5t-198.5 -65.5q-130 0 -200 65.5t-70 181.5
v244zM553 477q0 97 -57.5 150.5t-164.5 53.5q-109 0 -166.5 -53.5t-57.5 -150.5v-244q0 -97 57.5 -150.5t166.5 -53.5q107 0 164.5 53.5t57.5 150.5v244z" />
    <glyph glyph-name="Ohungarumlaut" unicode="&#x150;" horiz-adv-x="660" 
d="M297 901q9 10 20 8l15 -4q13 -4 5 -14l-113 -113q-8 -8 -15 -5l-9 3q-10 3 -4 12zM472 901q9 10 20 8l16 -4q14 -4 4 -14l-115 -114q-9 -9 -15 -5l-9 3q-11 3 -4 12zM61 477q0 116 70 181.5t200 65.5q129 0 198.5 -65.5t69.5 -181.5v-244q0 -116 -69.5 -181.5
t-198.5 -65.5q-130 0 -200 65.5t-70 181.5v244zM553 477q0 97 -57.5 150.5t-164.5 53.5q-109 0 -166.5 -53.5t-57.5 -150.5v-244q0 -97 57.5 -150.5t166.5 -53.5q107 0 164.5 53.5t57.5 150.5v244z" />
    <glyph glyph-name="ohungarumlaut" unicode="&#x151;" horiz-adv-x="660" 
d="M297 901q9 10 20 8l15 -4q13 -4 5 -14l-113 -113q-8 -8 -15 -5l-9 3q-10 3 -4 12zM472 901q9 10 20 8l16 -4q14 -4 4 -14l-115 -114q-9 -9 -15 -5l-9 3q-11 3 -4 12zM61 477q0 116 70 181.5t200 65.5q129 0 198.5 -65.5t69.5 -181.5v-244q0 -116 -69.5 -181.5
t-198.5 -65.5q-130 0 -200 65.5t-70 181.5v244zM553 477q0 97 -57.5 150.5t-164.5 53.5q-109 0 -166.5 -53.5t-57.5 -150.5v-244q0 -97 57.5 -150.5t166.5 -53.5q107 0 164.5 53.5t57.5 150.5v244z" />
    <glyph glyph-name="OE" unicode="&#x152;" horiz-adv-x="838" 
d="M785 43q12 0 12 -12v-18q0 -13 -12 -13h-344q-53 -15 -110 -15q-130 0 -200 66t-70 182v244q0 116 70 182t200 66q57 0 110 -15h330q13 0 13 -13v-18q0 -12 -13 -12h-297v-286h253q13 0 13 -13v-18q0 -12 -13 -12h-253v-295h311zM107 233q0 -97 58 -151t166 -54
q57 0 96 14v626q-48 14 -96 14q-108 0 -166 -54t-58 -151v-244z" />
    <glyph glyph-name="oe" unicode="&#x153;" horiz-adv-x="838" 
d="M785 43q12 0 12 -12v-18q0 -13 -12 -13h-344q-53 -15 -110 -15q-130 0 -200 66t-70 182v244q0 116 70 182t200 66q57 0 110 -15h330q13 0 13 -13v-18q0 -12 -13 -12h-297v-286h253q13 0 13 -13v-18q0 -12 -13 -12h-253v-295h311zM107 233q0 -97 58 -151t166 -54
q57 0 96 14v626q-48 14 -96 14q-108 0 -166 -54t-58 -151v-244z" />
    <glyph glyph-name="Racute" unicode="&#x154;" horiz-adv-x="640" 
d="M382 895q14 7 22 -2l10 -11q8 -10 -2 -15l-178 -102q-11 -4 -16 1l-7 8q-7 9 2 14zM382 710q95 0 149 -52.5t54 -147.5q0 -85 -47 -135.5t-129 -57.5q49 -21 82 -82l112 -222q9 -13 -7 -13h-19q-20 0 -25 11l-104 206q-26 51 -60 73t-95 22h-165v-299q0 -13 -12 -13h-21
q-13 0 -13 13v684q0 13 13 13h287zM537 510q0 75 -42 116t-118 41h-249v-312h249q76 0 118 40.5t42 114.5z" />
    <glyph glyph-name="racute" unicode="&#x155;" horiz-adv-x="640" 
d="M382 895q14 7 22 -2l10 -11q8 -10 -2 -15l-178 -102q-11 -4 -16 1l-7 8q-7 9 2 14zM382 710q95 0 149 -52.5t54 -147.5q0 -85 -47 -135.5t-129 -57.5q49 -21 82 -82l112 -222q9 -13 -7 -13h-19q-20 0 -25 11l-104 206q-26 51 -60 73t-95 22h-165v-299q0 -13 -12 -13h-21
q-13 0 -13 13v684q0 13 13 13h287zM537 510q0 75 -42 116t-118 41h-249v-312h249q76 0 118 40.5t42 114.5z" />
    <glyph glyph-name="Rcommaaccent" unicode="&#x156;" horiz-adv-x="640" 
d="M382 710q95 0 149 -52.5t54 -147.5q0 -85 -47 -135.5t-129 -57.5q49 -21 82 -82l112 -222q9 -13 -7 -13h-19q-20 0 -25 11l-104 206q-26 51 -60 73t-95 22h-165v-299q0 -13 -12 -13h-21q-13 0 -13 13v684q0 13 13 13h287zM537 510q0 75 -42 116t-118 41h-249v-312h249
q76 0 118 40.5t42 114.5zM318 -234q-2 -11 -14 -11h-13q-10 0 -9 9l40 146q1 12 14 12h19q15 0 11 -13z" />
    <glyph glyph-name="rcommaaccent" unicode="&#x157;" horiz-adv-x="640" 
d="M382 710q95 0 149 -52.5t54 -147.5q0 -85 -47 -135.5t-129 -57.5q49 -21 82 -82l112 -222q9 -13 -7 -13h-19q-20 0 -25 11l-104 206q-26 51 -60 73t-95 22h-165v-299q0 -13 -12 -13h-21q-13 0 -13 13v684q0 13 13 13h287zM537 510q0 75 -42 116t-118 41h-249v-312h249
q76 0 118 40.5t42 114.5zM318 -234q-2 -11 -14 -11h-13q-10 0 -9 9l40 146q1 12 14 12h19q15 0 11 -13z" />
    <glyph glyph-name="Rcaron" unicode="&#x158;" horiz-adv-x="640" 
d="M464 898q8 0 9 -3.5t-3 -7.5l-132 -111q-13 -12 -24 -12h-5q-12 0 -24 12l-133 111q-4 3 -3 7t9 4h18q11 0 19 -7l116 -95l115 95q7 7 20 7h18zM382 710q95 0 149 -52.5t54 -147.5q0 -85 -47 -135.5t-129 -57.5q49 -21 82 -82l112 -222q9 -13 -7 -13h-19q-20 0 -25 11
l-104 206q-26 51 -60 73t-95 22h-165v-299q0 -13 -12 -13h-21q-13 0 -13 13v684q0 13 13 13h287zM537 510q0 75 -42 116t-118 41h-249v-312h249q76 0 118 40.5t42 114.5z" />
    <glyph glyph-name="rcaron" unicode="&#x159;" horiz-adv-x="640" 
d="M464 898q8 0 9 -3.5t-3 -7.5l-132 -111q-13 -12 -24 -12h-5q-12 0 -24 12l-133 111q-4 3 -3 7t9 4h18q11 0 19 -7l116 -95l115 95q7 7 20 7h18zM382 710q95 0 149 -52.5t54 -147.5q0 -85 -47 -135.5t-129 -57.5q49 -21 82 -82l112 -222q9 -13 -7 -13h-19q-20 0 -25 11
l-104 206q-26 51 -60 73t-95 22h-165v-299q0 -13 -12 -13h-21q-13 0 -13 13v684q0 13 13 13h287zM537 510q0 75 -42 116t-118 41h-249v-312h249q76 0 118 40.5t42 114.5z" />
    <glyph glyph-name="Sacute" unicode="&#x15a;" horiz-adv-x="622" 
d="M384 904q15 7 23 -1l9 -11q10 -11 -2 -15l-177 -103q-11 -4 -16 2l-7 8q-7 7 1 13zM56 525q0 92 66.5 145.5t184.5 53.5q99 0 160.5 -37t101.5 -118q7 -12 -6 -17l-20 -9q-10 -4 -16 6q-34 68 -85.5 99.5t-134.5 31.5q-97 0 -150.5 -40t-53.5 -112q0 -34 13 -59.5
t32.5 -40.5t52 -25.5t59 -15t67.5 -8.5q45 -5 73.5 -10t65.5 -18t58.5 -32t36.5 -52t15 -77q0 -98 -67.5 -151t-196.5 -53q-104 0 -168.5 42.5t-100.5 132.5q-5 13 7 18l19 7q11 4 17 -8q63 -148 226 -148q218 0 218 158q0 34 -12.5 59t-30 39.5t-49.5 24.5t-56 14t-65 9
q-39 5 -63.5 9t-59 12.5t-55.5 21.5t-42 32.5t-31 48.5t-10 67z" />
    <glyph glyph-name="sacute" unicode="&#x15b;" horiz-adv-x="622" 
d="M384 904q15 7 23 -1l9 -11q10 -11 -2 -15l-177 -103q-11 -4 -16 2l-7 8q-7 7 1 13zM56 525q0 92 66.5 145.5t184.5 53.5q99 0 160.5 -37t101.5 -118q7 -12 -6 -17l-20 -9q-10 -4 -16 6q-34 68 -85.5 99.5t-134.5 31.5q-97 0 -150.5 -40t-53.5 -112q0 -34 13 -59.5
t32.5 -40.5t52 -25.5t59 -15t67.5 -8.5q45 -5 73.5 -10t65.5 -18t58.5 -32t36.5 -52t15 -77q0 -98 -67.5 -151t-196.5 -53q-104 0 -168.5 42.5t-100.5 132.5q-5 13 7 18l19 7q11 4 17 -8q63 -148 226 -148q218 0 218 158q0 34 -12.5 59t-30 39.5t-49.5 24.5t-56 14t-65 9
q-39 5 -63.5 9t-59 12.5t-55.5 21.5t-42 32.5t-31 48.5t-10 67z" />
    <glyph glyph-name="Scircumflex" unicode="&#x15c;" horiz-adv-x="622" 
d="M318 907q11 0 24 -11l132 -113q10 -10 -6 -10h-18q-13 0 -21 7l-114 95l-116 -95q-8 -7 -19 -7h-19q-16 0 -6 10l133 113q13 11 24 11h6zM56 525q0 92 66.5 145.5t184.5 53.5q99 0 160.5 -37t101.5 -118q7 -12 -6 -17l-20 -9q-10 -4 -16 6q-34 68 -85.5 99.5t-134.5 31.5
q-97 0 -150.5 -40t-53.5 -112q0 -34 13 -59.5t32.5 -40.5t52 -25.5t59 -15t67.5 -8.5q45 -5 73.5 -10t65.5 -18t58.5 -32t36.5 -52t15 -77q0 -98 -67.5 -151t-196.5 -53q-104 0 -168.5 42.5t-100.5 132.5q-5 13 7 18l19 7q11 4 17 -8q63 -148 226 -148q218 0 218 158
q0 34 -12.5 59t-30 39.5t-49.5 24.5t-56 14t-65 9q-39 5 -63.5 9t-59 12.5t-55.5 21.5t-42 32.5t-31 48.5t-10 67z" />
    <glyph glyph-name="scircumflex" unicode="&#x15d;" horiz-adv-x="622" 
d="M318 907q11 0 24 -11l132 -113q10 -10 -6 -10h-18q-13 0 -21 7l-114 95l-116 -95q-8 -7 -19 -7h-19q-16 0 -6 10l133 113q13 11 24 11h6zM56 525q0 92 66.5 145.5t184.5 53.5q99 0 160.5 -37t101.5 -118q7 -12 -6 -17l-20 -9q-10 -4 -16 6q-34 68 -85.5 99.5t-134.5 31.5
q-97 0 -150.5 -40t-53.5 -112q0 -34 13 -59.5t32.5 -40.5t52 -25.5t59 -15t67.5 -8.5q45 -5 73.5 -10t65.5 -18t58.5 -32t36.5 -52t15 -77q0 -98 -67.5 -151t-196.5 -53q-104 0 -168.5 42.5t-100.5 132.5q-5 13 7 18l19 7q11 4 17 -8q63 -148 226 -148q218 0 218 158
q0 34 -12.5 59t-30 39.5t-49.5 24.5t-56 14t-65 9q-39 5 -63.5 9t-59 12.5t-55.5 21.5t-42 32.5t-31 48.5t-10 67z" />
    <glyph glyph-name="Scedilla" unicode="&#x15e;" horiz-adv-x="622" 
d="M327 379q37 -4 61 -8t56.5 -12.5t53 -21.5t40 -32.5t29 -48.5t9.5 -66q0 -95 -62 -147.5t-182 -56.5l-25 -70q16 4 32 4q40 0 63.5 -20.5t22.5 -54.5q-2 -45 -32.5 -69t-79.5 -24t-84 22q-9 5 -9 15v13q0 9 7 5q35 -27 82 -27q37 0 57.5 17.5t20.5 48.5q0 49 -68 49
q-24 0 -38 -5q-7 -1 -9.5 2t0.5 11l31 83q-100 1 -162.5 43.5t-98.5 131.5q-5 13 8 18l19 7q11 4 16 -8q64 -148 226 -148q218 0 218 158q0 34 -12.5 59t-29.5 39.5t-49.5 24.5t-56 14t-64.5 9q-39 5 -63.5 9t-59 12.5t-55.5 21.5t-42 32.5t-31 48.5t-10 67q0 92 66.5 145.5
t184.5 53.5q99 0 160.5 -37t101.5 -118q7 -12 -7 -17l-19 -9q-11 -4 -17 6q-34 68 -85 99.5t-134 31.5q-97 0 -150.5 -40t-53.5 -112q0 -34 13 -59.5t32.5 -40.5t52 -25.5t59 -15t67.5 -8.5z" />
    <glyph glyph-name="scedilla" unicode="&#x15f;" horiz-adv-x="622" 
d="M327 379q37 -4 61 -8t56.5 -12.5t53 -21.5t40 -32.5t29 -48.5t9.5 -66q0 -95 -62 -147.5t-182 -56.5l-25 -70q16 4 32 4q40 0 63.5 -20.5t22.5 -54.5q-2 -45 -32.5 -69t-79.5 -24t-84 22q-9 5 -9 15v13q0 9 7 5q35 -27 82 -27q37 0 57.5 17.5t20.5 48.5q0 49 -68 49
q-24 0 -38 -5q-7 -1 -9.5 2t0.5 11l31 83q-100 1 -162.5 43.5t-98.5 131.5q-5 13 8 18l19 7q11 4 16 -8q64 -148 226 -148q218 0 218 158q0 34 -12.5 59t-29.5 39.5t-49.5 24.5t-56 14t-64.5 9q-39 5 -63.5 9t-59 12.5t-55.5 21.5t-42 32.5t-31 48.5t-10 67q0 92 66.5 145.5
t184.5 53.5q99 0 160.5 -37t101.5 -118q7 -12 -7 -17l-19 -9q-11 -4 -17 6q-34 68 -85 99.5t-134 31.5q-97 0 -150.5 -40t-53.5 -112q0 -34 13 -59.5t32.5 -40.5t52 -25.5t59 -15t67.5 -8.5z" />
    <glyph glyph-name="Scaron" unicode="&#x160;" horiz-adv-x="622" 
d="M467 907q15 0 6 -11l-132 -111q-12 -11 -24 -11h-6q-12 0 -23 11l-133 111q-11 11 5 11h19q11 0 19 -7l116 -95l114 95q7 7 21 7h18zM56 525q0 92 66.5 145.5t184.5 53.5q99 0 160.5 -37t101.5 -118q7 -12 -6 -17l-20 -9q-10 -4 -16 6q-34 68 -85.5 99.5t-134.5 31.5
q-97 0 -150.5 -40t-53.5 -112q0 -34 13 -59.5t32.5 -40.5t52 -25.5t59 -15t67.5 -8.5q45 -5 73.5 -10t65.5 -18t58.5 -32t36.5 -52t15 -77q0 -98 -67.5 -151t-196.5 -53q-104 0 -168.5 42.5t-100.5 132.5q-5 13 7 18l19 7q11 4 17 -8q63 -148 226 -148q218 0 218 158
q0 34 -12.5 59t-30 39.5t-49.5 24.5t-56 14t-65 9q-39 5 -63.5 9t-59 12.5t-55.5 21.5t-42 32.5t-31 48.5t-10 67z" />
    <glyph glyph-name="scaron" unicode="&#x161;" horiz-adv-x="622" 
d="M467 907q15 0 6 -11l-132 -111q-12 -11 -24 -11h-6q-12 0 -23 11l-133 111q-11 11 5 11h19q11 0 19 -7l116 -95l114 95q7 7 21 7h18zM56 525q0 92 66.5 145.5t184.5 53.5q99 0 160.5 -37t101.5 -118q7 -12 -6 -17l-20 -9q-10 -4 -16 6q-34 68 -85.5 99.5t-134.5 31.5
q-97 0 -150.5 -40t-53.5 -112q0 -34 13 -59.5t32.5 -40.5t52 -25.5t59 -15t67.5 -8.5q45 -5 73.5 -10t65.5 -18t58.5 -32t36.5 -52t15 -77q0 -98 -67.5 -151t-196.5 -53q-104 0 -168.5 42.5t-100.5 132.5q-5 13 7 18l19 7q11 4 17 -8q63 -148 226 -148q218 0 218 158
q0 34 -12.5 59t-30 39.5t-49.5 24.5t-56 14t-65 9q-39 5 -63.5 9t-59 12.5t-55.5 21.5t-42 32.5t-31 48.5t-10 67z" />
    <glyph glyph-name="Tcaron" unicode="&#x164;" horiz-adv-x="532" 
d="M419 898q15 0 6 -11l-132 -111q-13 -12 -24 -12h-6q-11 0 -24 12l-132 111q-4 3 -3.5 7t8.5 4h19q11 0 19 -7l116 -95l114 95q7 7 21 7h18zM506 710q13 0 13 -13v-18q0 -12 -13 -12h-217v-654q0 -13 -12 -13h-21q-13 0 -13 13v654h-217q-13 0 -13 12v18q0 13 13 13h480z
" />
    <glyph glyph-name="tcaron" unicode="&#x165;" horiz-adv-x="532" 
d="M419 898q15 0 6 -11l-132 -111q-13 -12 -24 -12h-6q-11 0 -24 12l-132 111q-4 3 -3.5 7t8.5 4h19q11 0 19 -7l116 -95l114 95q7 7 21 7h18zM506 710q13 0 13 -13v-18q0 -12 -13 -12h-217v-654q0 -13 -12 -13h-21q-13 0 -13 13v654h-217q-13 0 -13 12v18q0 13 13 13h480z
" />
    <glyph glyph-name="Tbar" unicode="&#x166;" horiz-adv-x="555" 
d="M518 710q13 0 13 -13v-18q0 -12 -13 -12h-217v-319h151q10 0 10 -10v-15q0 -10 -10 -10h-151v-300q0 -13 -12 -13h-22q-12 0 -12 13v300h-151q-10 0 -10 10v15q0 10 10 10h151v319h-217q-13 0 -13 12v18q0 13 13 13h480z" />
    <glyph glyph-name="tbar" unicode="&#x167;" horiz-adv-x="555" 
d="M518 710q13 0 13 -13v-18q0 -12 -13 -12h-217v-319h151q10 0 10 -10v-15q0 -10 -10 -10h-151v-300q0 -13 -12 -13h-22q-12 0 -12 13v300h-151q-10 0 -10 10v15q0 10 10 10h151v319h-217q-13 0 -13 12v18q0 13 13 13h480z" />
    <glyph glyph-name="Utilde" unicode="&#x168;" 
d="M484 875q8 0 8 -8q0 -94 -75 -94q-36 0 -81.5 36t-73.5 36q-23 0 -35.5 -17.5t-12.5 -46.5q0 -8 -8 -8h-14q-8 0 -8 8q0 94 75 94q30 0 57 -18t51 -36t48 -18q48 0 48 64q0 8 8 8h13zM122 240q0 -99 55 -155.5t163 -56.5q107 0 162 56.5t55 155.5v457q0 13 12 13h22
q12 0 12 -13v-457q0 -119 -67 -187t-196 -68q-130 0 -197 68t-67 187v457q0 13 13 13h21q12 0 12 -13v-457z" />
    <glyph glyph-name="utilde" unicode="&#x169;" 
d="M490 876q-32 -112 -150 -112q-119 0 -150 112q-3 8 5 11l17 6q8 2 12 -5q23 -90 116 -90q91 0 116 90q3 8 11 5l17 -6q9 -3 6 -11zM122 240q0 -99 55 -155.5t163 -56.5q107 0 162 56.5t55 155.5v457q0 13 12 13h22q12 0 12 -13v-457q0 -119 -67 -187t-196 -68
q-130 0 -197 68t-67 187v457q0 13 13 13h21q12 0 12 -13v-457z" />
    <glyph glyph-name="Umacron" unicode="&#x16a;" 
d="M458 839q12 0 12 -11v-10q0 -12 -12 -12h-237q-11 0 -11 12v10q0 11 11 11h237zM122 240q0 -99 55 -155.5t163 -56.5q107 0 162 56.5t55 155.5v457q0 13 12 13h22q12 0 12 -13v-457q0 -119 -67 -187t-196 -68q-130 0 -197 68t-67 187v457q0 13 13 13h21q12 0 12 -13v-457
z" />
    <glyph glyph-name="umacron" unicode="&#x16b;" 
d="M458 839q12 0 12 -11v-10q0 -12 -12 -12h-237q-11 0 -11 12v10q0 11 11 11h237zM122 240q0 -99 55 -155.5t163 -56.5q107 0 162 56.5t55 155.5v457q0 13 12 13h22q12 0 12 -13v-457q0 -119 -67 -187t-196 -68q-130 0 -197 68t-67 187v457q0 13 13 13h21q12 0 12 -13v-457
z" />
    <glyph glyph-name="Ubreve" unicode="&#x16c;" 
d="M490 876q-32 -112 -150 -112q-119 0 -150 112q-3 8 5 11l17 6q8 2 12 -5q23 -90 116 -90q91 0 116 90q3 8 11 5l17 -6q9 -3 6 -11zM122 240q0 -99 55 -155.5t163 -56.5q107 0 162 56.5t55 155.5v457q0 13 12 13h22q12 0 12 -13v-457q0 -119 -67 -187t-196 -68
q-130 0 -197 68t-67 187v457q0 13 13 13h21q12 0 12 -13v-457z" />
    <glyph glyph-name="ubreve" unicode="&#x16d;" 
d="M490 876q-32 -112 -150 -112q-119 0 -150 112q-3 8 5 11l17 6q8 2 12 -5q23 -90 116 -90q91 0 116 90q3 8 11 5l17 -6q9 -3 6 -11zM122 240q0 -99 55 -155.5t163 -56.5q107 0 162 56.5t55 155.5v457q0 13 12 13h22q12 0 12 -13v-457q0 -119 -67 -187t-196 -68
q-130 0 -197 68t-67 187v457q0 13 13 13h21q12 0 12 -13v-457z" />
    <glyph glyph-name="Uring" unicode="&#x16e;" 
d="M243 837q0 44 26.5 69.5t71.5 25.5q44 0 70 -25.5t26 -69.5q0 -43 -26 -68.5t-70 -25.5q-45 0 -71.5 25.5t-26.5 68.5zM412 837q0 32 -19 51t-52 19q-34 0 -53.5 -19t-19.5 -51t19.5 -50.5t53.5 -18.5q33 0 52 18.5t19 50.5zM122 240q0 -99 55 -155.5t163 -56.5
q107 0 162 56.5t55 155.5v457q0 13 12 13h22q12 0 12 -13v-457q0 -119 -67 -187t-196 -68q-130 0 -197 68t-67 187v457q0 13 13 13h21q12 0 12 -13v-457z" />
    <glyph glyph-name="uring" unicode="&#x16f;" 
d="M243 837q0 44 26.5 69.5t71.5 25.5q44 0 70 -25.5t26 -69.5q0 -43 -26 -68.5t-70 -25.5q-45 0 -71.5 25.5t-26.5 68.5zM412 837q0 32 -19 51t-52 19q-34 0 -53.5 -19t-19.5 -51t19.5 -50.5t53.5 -18.5q33 0 52 18.5t19 50.5zM122 240q0 -99 55 -155.5t163 -56.5
q107 0 162 56.5t55 155.5v457q0 13 12 13h22q12 0 12 -13v-457q0 -119 -67 -187t-196 -68q-130 0 -197 68t-67 187v457q0 13 13 13h21q12 0 12 -13v-457z" />
    <glyph glyph-name="Uhungarumlaut" unicode="&#x170;" 
d="M306 891q9 10 20 8l15 -4q13 -4 5 -14l-113 -113q-8 -8 -15 -5l-9 3q-10 3 -4 12zM481 891q9 10 20 8l16 -4q14 -4 4 -14l-115 -114q-9 -9 -15 -5l-9 3q-11 3 -4 12zM122 240q0 -99 55 -155.5t163 -56.5q107 0 162 56.5t55 155.5v457q0 13 12 13h22q12 0 12 -13v-457
q0 -119 -67 -187t-196 -68q-130 0 -197 68t-67 187v457q0 13 13 13h21q12 0 12 -13v-457z" />
    <glyph glyph-name="uhungarumlaut" unicode="&#x171;" 
d="M306 891q9 10 20 8l15 -4q13 -4 5 -14l-113 -113q-8 -8 -15 -5l-9 3q-10 3 -4 12zM481 891q9 10 20 8l16 -4q14 -4 4 -14l-115 -114q-9 -9 -15 -5l-9 3q-11 3 -4 12zM122 240q0 -99 55 -155.5t163 -56.5q107 0 162 56.5t55 155.5v457q0 13 12 13h22q12 0 12 -13v-457
q0 -119 -67 -187t-196 -68q-130 0 -197 68t-67 187v457q0 13 13 13h21q12 0 12 -13v-457z" />
    <glyph glyph-name="Uogonek" unicode="&#x172;" 
d="M591 710q12 0 12 -13v-457q0 -143 -92 -207q-65 -54 -104.5 -118.5t-27.5 -95.5q10 -31 45 -31q36 0 63 27q7 5 8 -2l6 -14q2 -6 -2 -10q-36 -36 -87 -36q-58 0 -71 47q-12 37 16.5 92.5t82.5 107.5q-42 -15 -100 -15q-130 0 -197 68t-67 187v457q0 13 13 13h21
q12 0 12 -13v-457q0 -99 55 -155.5t163 -56.5q107 0 162 56.5t55 155.5v457q0 13 12 13h22z" />
    <glyph glyph-name="uogonek" unicode="&#x173;" 
d="M591 710q12 0 12 -13v-457q0 -143 -92 -207q-65 -54 -104.5 -118.5t-27.5 -95.5q10 -31 45 -31q36 0 63 27q7 5 8 -2l6 -14q2 -6 -2 -10q-36 -36 -87 -36q-58 0 -71 47q-12 37 16.5 92.5t82.5 107.5q-42 -15 -100 -15q-130 0 -197 68t-67 187v457q0 13 13 13h21
q12 0 12 -13v-457q0 -99 55 -155.5t163 -56.5q107 0 162 56.5t55 155.5v457q0 13 12 13h22z" />
    <glyph glyph-name="Wcircumflex" unicode="&#x174;" horiz-adv-x="870" 
d="M441 897q12 0 23 -11l133 -112q10 -10 -6 -10h-19q-13 0 -20 7l-114 95l-116 -95q-8 -7 -20 -7h-18q-16 0 -6 10l133 112q12 11 24 11h6zM838 710q12 0 8 -12l-185 -686q-4 -12 -17 -12h-20q-15 0 -17 11l-149 527q-10 37 -21 91h-3q-11 -57 -22 -91l-149 -526
q-2 -12 -17 -12h-19q-15 0 -17 11l-186 687q-3 12 8 12h25q15 0 17 -11l143 -538q4 -15 10.5 -49t9.5 -46h2q1 5 9 40.5t13 53.5l149 523q2 12 17 12h20q15 0 17 -12l149 -525q5 -20 21 -92h3q7 41 18 92l144 541q2 11 17 11h22z" />
    <glyph glyph-name="wcircumflex" unicode="&#x175;" horiz-adv-x="870" 
d="M441 897q12 0 23 -11l133 -112q10 -10 -6 -10h-19q-13 0 -20 7l-114 95l-116 -95q-8 -7 -20 -7h-18q-16 0 -6 10l133 112q12 11 24 11h6zM838 710q12 0 8 -12l-185 -686q-4 -12 -17 -12h-20q-15 0 -17 11l-149 527q-10 37 -21 91h-3q-11 -57 -22 -91l-149 -526
q-2 -12 -17 -12h-19q-15 0 -17 11l-186 687q-3 12 8 12h25q15 0 17 -11l143 -538q4 -15 10.5 -49t9.5 -46h2q1 5 9 40.5t13 53.5l149 523q2 12 17 12h20q15 0 17 -12l149 -525q5 -20 21 -92h3q7 41 18 92l144 541q2 11 17 11h22z" />
    <glyph glyph-name="Ycircumflex" unicode="&#x176;" horiz-adv-x="619" 
d="M314 897q12 0 23 -11l133 -112q10 -10 -6 -10h-19q-13 0 -20 7l-115 95l-116 -95q-7 -7 -19 -7h-18q-16 0 -6 10l133 112q11 11 24 11h6zM596 710q14 0 7 -13l-271 -405v-279q0 -13 -12 -13h-21q-13 0 -13 13v280l-270 404q-7 13 7 13h27q18 0 23 -11l237 -359l237 359
q7 11 24 11h25z" />
    <glyph glyph-name="ycircumflex" unicode="&#x177;" horiz-adv-x="619" 
d="M314 897q12 0 23 -11l133 -112q10 -10 -6 -10h-19q-13 0 -20 7l-115 95l-116 -95q-7 -7 -19 -7h-18q-16 0 -6 10l133 112q11 11 24 11h6zM596 710q14 0 7 -13l-271 -405v-279q0 -13 -12 -13h-21q-13 0 -13 13v280l-270 404q-7 13 7 13h27q18 0 23 -11l237 -359l237 359
q7 11 24 11h25z" />
    <glyph glyph-name="Ydieresis" unicode="&#x178;" horiz-adv-x="619" 
d="M218 853q13 0 18 -5t5 -18v-7q0 -13 -5 -17.5t-18 -4.5h-6q-13 0 -18 4.5t-5 17.5v7q0 13 5 18t18 5h6zM409 853q13 0 18 -5t5 -18v-7q0 -13 -5 -17.5t-18 -4.5h-6q-13 0 -18 4.5t-5 17.5v7q0 13 5 18t18 5h6zM596 710q14 0 7 -13l-271 -405v-279q0 -13 -12 -13h-21
q-13 0 -13 13v280l-270 404q-7 13 7 13h27q18 0 23 -11l237 -359l237 359q7 11 24 11h25z" />
    <glyph glyph-name="Zacute" unicode="&#x179;" horiz-adv-x="555" 
d="M351 895q15 7 23 -2l9 -11q9 -10 -2 -15l-178 -102q-11 -4 -16 1l-6 8q-8 9 1 14zM502 710q13 0 13 -13v-16q0 -10 -5 -16l-421 -621h425q13 0 13 -13v-18q0 -13 -13 -13h-470q-12 0 -12 13v17q0 10 5 17l420 620h-408q-13 0 -13 12v18q0 13 13 13h453z" />
    <glyph glyph-name="zacute" unicode="&#x17a;" horiz-adv-x="555" 
d="M351 895q15 7 23 -2l9 -11q9 -10 -2 -15l-178 -102q-11 -4 -16 1l-6 8q-8 9 1 14zM502 710q13 0 13 -13v-16q0 -10 -5 -16l-421 -621h425q13 0 13 -13v-18q0 -13 -13 -13h-470q-12 0 -12 13v17q0 10 5 17l420 620h-408q-13 0 -13 12v18q0 13 13 13h453z" />
    <glyph glyph-name="Zdotaccent" unicode="&#x17b;" horiz-adv-x="555" 
d="M284 849q14 0 18.5 -5t4.5 -19v-5q0 -14 -4.5 -18.5t-18.5 -4.5h-5q-14 0 -19 4.5t-5 18.5v5q0 14 5 19t19 5h5zM502 710q13 0 13 -13v-16q0 -10 -5 -16l-421 -621h425q13 0 13 -13v-18q0 -13 -13 -13h-470q-12 0 -12 13v17q0 10 5 17l420 620h-408q-13 0 -13 12v18
q0 13 13 13h453z" />
    <glyph glyph-name="zdotaccent" unicode="&#x17c;" horiz-adv-x="555" 
d="M284 849q14 0 18.5 -5t4.5 -19v-5q0 -14 -4.5 -18.5t-18.5 -4.5h-5q-14 0 -19 4.5t-5 18.5v5q0 14 5 19t19 5h5zM502 710q13 0 13 -13v-16q0 -10 -5 -16l-421 -621h425q13 0 13 -13v-18q0 -13 -13 -13h-470q-12 0 -12 13v17q0 10 5 17l420 620h-408q-13 0 -13 12v18
q0 13 13 13h453z" />
    <glyph glyph-name="Zcaron" unicode="&#x17d;" horiz-adv-x="555" 
d="M434 898q16 0 5 -11l-132 -111q-12 -12 -23 -12h-6q-12 0 -24 12l-133 111q-4 3 -3 7t9 4h18q12 0 19 -7l116 -95l115 95q7 7 20 7h19zM502 710q13 0 13 -13v-16q0 -10 -5 -16l-421 -621h425q13 0 13 -13v-18q0 -13 -13 -13h-470q-12 0 -12 13v17q0 10 5 17l420 620h-408
q-13 0 -13 12v18q0 13 13 13h453z" />
    <glyph glyph-name="zcaron" unicode="&#x17e;" horiz-adv-x="555" 
d="M434 898q16 0 5 -11l-132 -111q-12 -12 -23 -12h-6q-12 0 -24 12l-133 111q-4 3 -3 7t9 4h18q12 0 19 -7l116 -95l115 95q7 7 20 7h19zM502 710q13 0 13 -13v-16q0 -10 -5 -16l-421 -621h425q13 0 13 -13v-18q0 -13 -13 -13h-470q-12 0 -12 13v17q0 10 5 17l420 620h-408
q-13 0 -13 12v18q0 13 13 13h453z" />
    <glyph glyph-name="longs" unicode="&#x17f;" horiz-adv-x="243" 
d="M109 546q0 108 45.5 151t155.5 43q11 0 11 -12v-17q0 -11 -11 -11q-91 0 -124.5 -32.5t-33.5 -124.5v-531q0 -12 -12 -12h-19q-12 0 -12 12v461h-89q-12 0 -12 11v17q0 11 12 11h89v34z" />
    <glyph glyph-name="florin" unicode="&#x192;" horiz-adv-x="437" 
d="M209 542q10 95 58.5 146.5t149.5 51.5q12 0 12 -12v-17q0 -11 -12 -11q-81 0 -118.5 -41t-46.5 -119l-17 -162h153q12 0 12 -12v-17q0 -11 -12 -11h-158l-38 -359q-22 -199 -209 -199q-12 0 -12 12v17q0 11 12 11q80 0 118.5 42t46.5 120l39 356h-145q-12 0 -12 11v17
q0 12 12 12h149z" />
    <glyph glyph-name="Aringacute" unicode="&#x1fa;" horiz-adv-x="632" 
d="M386 954q15 6 21 -1l8 -10q7 -7 -2 -11l-168 -71q-10 -4 -15 1l-6 7q-7 7 6 12zM219 761q0 40 27 65.5t70 25.5q42 0 68.5 -25.5t26.5 -65.5q0 -29 -17.5 -49.5t-46.5 -25.5l272 -674q7 -12 -9 -12h-18q-19 0 -23 11l-91 229h-326l-92 -229q-4 -11 -22 -11h-17
q-14 0 -9 12l273 674q-30 6 -48 26.5t-18 48.5zM384 762q0 29 -19 47t-49 18q-31 0 -50 -18t-19 -47q0 -26 19 -42.5t50 -16.5q30 0 49 16.5t19 42.5zM362 536l-24 68.5l-21 60.5h-3q-6 -14 -21 -60.5t-23 -67.5l-104 -258h298z" />
    <glyph glyph-name="aringacute" unicode="&#x1fb;" horiz-adv-x="632" 
d="M386 954q15 6 21 -1l8 -10q7 -7 -2 -11l-168 -71q-10 -4 -15 1l-6 7q-7 7 6 12zM219 761q0 40 27 65.5t70 25.5q42 0 68.5 -25.5t26.5 -65.5q0 -29 -17.5 -49.5t-46.5 -25.5l272 -674q7 -12 -9 -12h-18q-19 0 -23 11l-91 229h-326l-92 -229q-4 -11 -22 -11h-17
q-14 0 -9 12l273 674q-30 6 -48 26.5t-18 48.5zM384 762q0 29 -19 47t-49 18q-31 0 -50 -18t-19 -47q0 -26 19 -42.5t50 -16.5q30 0 49 16.5t19 42.5zM362 536l-24 68.5l-21 60.5h-3q-6 -14 -21 -60.5t-23 -67.5l-104 -258h298z" />
    <glyph glyph-name="AEacute" unicode="&#x1fc;" horiz-adv-x="817" 
d="M661 895q14 7 22 -2l9 -11q10 -10 -2 -15l-177 -102q-11 -4 -16 1l-7 8q-7 8 1 14zM765 43q12 0 12 -12v-18q0 -13 -12 -13h-329q-12 0 -12 13v174h-270l-106 -176q-7 -11 -22 -11h-20q-14 0 -9 12l418 686q7 12 17 12h319q12 0 12 -13v-18q0 -12 -12 -12h-282v-286h238
q13 0 13 -13v-18q0 -12 -13 -12h-238v-295h296zM424 226v409l-246 -409h246z" />
    <glyph glyph-name="aeacute" unicode="&#x1fd;" horiz-adv-x="817" 
d="M661 895q14 7 22 -2l9 -11q10 -10 -2 -15l-177 -102q-11 -4 -16 1l-7 8q-7 8 1 14zM765 43q12 0 12 -12v-18q0 -13 -12 -13h-329q-12 0 -12 13v174h-270l-106 -176q-7 -11 -22 -11h-20q-14 0 -9 12l418 686q7 12 17 12h319q12 0 12 -13v-18q0 -12 -12 -12h-282v-286h238
q13 0 13 -13v-18q0 -12 -13 -12h-238v-295h296zM424 226v409l-246 -409h246z" />
    <glyph glyph-name="Oslashacute" unicode="&#x1fe;" horiz-adv-x="660" 
d="M407 905q14 7 22 -2l9 -11q10 -10 -2 -15l-177 -102q-11 -4 -16 1l-7 8q-7 8 1 14zM602 749q5 0 3 -5l-63 -98q57 -62 57 -169v-244q0 -116 -69.5 -181.5t-198.5 -65.5q-113 0 -179 49l-47 -73q-3 -5 -12 -5h-25q-6 0 -3 5l60 94q-64 64 -64 177v244q0 116 70 181.5
t200 65.5q118 0 185 -56l49 77q4 4 10 4h27zM492 630q-57 51 -161 51q-109 0 -166.5 -53.5t-57.5 -150.5v-244q0 -84 47 -133zM176 74q57 -45 155 -45q107 0 164.5 53.5t57.5 150.5v244q0 77 -39 124z" />
    <glyph glyph-name="oslashacute" unicode="&#x1ff;" horiz-adv-x="660" 
d="M407 905q14 7 22 -2l9 -11q10 -10 -2 -15l-177 -102q-11 -4 -16 1l-7 8q-7 8 1 14zM602 749q5 0 3 -5l-63 -98q57 -62 57 -169v-244q0 -116 -69.5 -181.5t-198.5 -65.5q-113 0 -179 49l-47 -73q-3 -5 -12 -5h-25q-6 0 -3 5l60 94q-64 64 -64 177v244q0 116 70 181.5
t200 65.5q118 0 185 -56l49 77q4 4 10 4h27zM492 630q-57 51 -161 51q-109 0 -166.5 -53.5t-57.5 -150.5v-244q0 -84 47 -133zM176 74q57 -45 155 -45q107 0 164.5 53.5t57.5 150.5v244q0 77 -39 124z" />
    <glyph glyph-name="Scommaaccent" unicode="&#x218;" horiz-adv-x="622" 
d="M56 525q0 92 66.5 145.5t184.5 53.5q99 0 160.5 -37t101.5 -118q7 -12 -6 -17l-20 -9q-10 -4 -16 6q-34 68 -85.5 99.5t-134.5 31.5q-97 0 -150.5 -40t-53.5 -112q0 -34 13 -59.5t32.5 -40.5t52 -25.5t59 -15t67.5 -8.5q45 -5 73.5 -10t65.5 -18t58.5 -32t36.5 -52
t15 -77q0 -98 -67.5 -151t-196.5 -53q-104 0 -168.5 42.5t-100.5 132.5q-5 13 7 18l19 7q11 4 17 -8q63 -148 226 -148q218 0 218 158q0 34 -12.5 59t-30 39.5t-49.5 24.5t-56 14t-65 9q-39 5 -63.5 9t-59 12.5t-55.5 21.5t-42 32.5t-31 48.5t-10 67zM309 -241
q-4 -11 -15 -11h-13q-10 0 -9 9l40 146q1 12 14 12h19q15 0 11 -13z" />
    <glyph glyph-name="scommaaccent" unicode="&#x219;" horiz-adv-x="622" 
d="M56 525q0 92 66.5 145.5t184.5 53.5q99 0 160.5 -37t101.5 -118q7 -12 -6 -17l-20 -9q-10 -4 -16 6q-34 68 -85.5 99.5t-134.5 31.5q-97 0 -150.5 -40t-53.5 -112q0 -34 13 -59.5t32.5 -40.5t52 -25.5t59 -15t67.5 -8.5q45 -5 73.5 -10t65.5 -18t58.5 -32t36.5 -52
t15 -77q0 -98 -67.5 -151t-196.5 -53q-104 0 -168.5 42.5t-100.5 132.5q-5 13 7 18l19 7q11 4 17 -8q63 -148 226 -148q218 0 218 158q0 34 -12.5 59t-30 39.5t-49.5 24.5t-56 14t-65 9q-39 5 -63.5 9t-59 12.5t-55.5 21.5t-42 32.5t-31 48.5t-10 67zM309 -241
q-4 -11 -15 -11h-13q-10 0 -9 9l40 146q1 12 14 12h19q15 0 11 -13z" />
    <glyph glyph-name="uni021A" unicode="&#x21a;" horiz-adv-x="532" 
d="M506 710q13 0 13 -13v-18q0 -12 -13 -12h-217v-654q0 -13 -12 -13h-21q-13 0 -13 13v654h-217q-13 0 -13 12v18q0 13 13 13h480zM249 -234q-4 -11 -14 -11h-14q-9 0 -8 9l39 146q2 12 15 12h19q15 0 11 -13z" />
    <glyph glyph-name="uni021B" unicode="&#x21b;" horiz-adv-x="532" 
d="M506 710q13 0 13 -13v-18q0 -12 -13 -12h-217v-654q0 -13 -12 -13h-21q-13 0 -13 13v654h-217q-13 0 -13 12v18q0 13 13 13h480zM249 -234q-4 -11 -14 -11h-14q-9 0 -8 9l39 146q2 12 15 12h19q15 0 11 -13z" />
    <glyph glyph-name="dotlessj" unicode="&#x237;" horiz-adv-x="567" 
d="M478 710q12 0 12 -12v-481q0 -108 -61.5 -170t-174.5 -62q-194 0 -232 197q-4 13 8 17l20 7q12 4 16 -8q16 -84 60.5 -126.5t127.5 -42.5q92 0 141 49.5t49 138.5v481q0 12 12 12h22z" />
    <glyph glyph-name="circumflex" unicode="&#x2c6;" horiz-adv-x="370" 
d="M187 720q11 0 24 -11l132 -113q10 -10 -6 -10h-18q-13 0 -21 7l-114 95l-116 -95q-8 -7 -19 -7h-19q-16 0 -6 10l134 113q12 11 24 11h5z" />
    <glyph glyph-name="caron" unicode="&#x2c7;" horiz-adv-x="332" 
d="M319 719q14 0 6 -10l-132 -112q-12 -11 -24 -11h-5q-13 0 -24 11l-134 112q-10 10 5 10h20q11 0 19 -7l116 -95l114 95q7 7 21 7h18z" />
    <glyph glyph-name="breve" unicode="&#x2d8;" horiz-adv-x="287" 
d="M288 702q-31 -111 -150 -111q-117 0 -150 111q-3 9 6 12l16 6q9 3 12 -5q25 -91 116 -91t116 91q3 8 11 5l18 -6q7 -4 5 -12z" />
    <glyph glyph-name="dotaccent" unicode="&#x2d9;" horiz-adv-x="216" 
d="M110 677q14 0 19 -5.5t5 -18.5v-5q0 -14 -5 -19t-19 -5h-4q-14 0 -19 5t-5 19v5q0 13 5 18.5t19 5.5h4z" />
    <glyph glyph-name="ring" unicode="&#x2da;" horiz-adv-x="240" 
d="M24 639q0 44 26.5 69.5t71.5 25.5q44 0 69.5 -25.5t25.5 -69.5t-25.5 -69t-69.5 -25q-45 0 -71.5 25.5t-26.5 68.5zM192 639q0 32 -19 51t-51 19q-34 0 -53.5 -19t-19.5 -51t19.5 -51t53.5 -19q32 0 51 19t19 51z" />
    <glyph glyph-name="ogonek" unicode="&#x2db;" horiz-adv-x="252" 
d="M187 0q-57 -48 -84 -98.5t-15 -82.5q10 -31 45 -31q36 0 63 27q7 5 8 -2l6 -14q2 -6 -2 -10q-36 -36 -87 -36q-58 0 -71 47q-14 41 13.5 96.5t89.5 103.5h34z" />
    <glyph glyph-name="tilde" unicode="&#x2dc;" horiz-adv-x="305" 
d="M299 704q8 0 8 -8q0 -94 -75 -94q-36 0 -81.5 36t-74.5 36q-22 0 -35 -17.5t-13 -46.5q0 -8 -8 -8h-14q-8 0 -8 8q0 94 75 94q38 0 83.5 -36t73.5 -36q47 0 47 64q0 8 8 8h14z" />
    <glyph glyph-name="hungarumlaut" unicode="&#x2dd;" horiz-adv-x="395" 
d="M159 713q9 11 20 8l16 -4q12 -4 4 -13l-113 -114q-9 -7 -15 -5l-9 3q-10 4 -4 13zM336 712q9 10 20 8l16 -4q14 -4 4 -14l-118 -111q-8 -8 -16 -5l-9 3q-12 3 -3 12z" />
    <glyph glyph-name="uni0326" unicode="&#x326;" horiz-adv-x="0" 
d="M105 -234q-4 -11 -14 -11h-14q-11 0 -8 9l39 146q2 12 15 12h18q15 0 11 -13z" />
    <glyph glyph-name="pi" unicode="&#x3c0;" horiz-adv-x="604" 
d="M575 512q12 0 12 -11v-16q0 -12 -12 -12h-69v-329q0 -74 28 -119q6 -13 -5 -18l-16 -8q-11 -5 -17 6q-33 55 -33 141v327h-275v-461q0 -12 -11 -12h-20q-12 0 -12 12v461q-58 -1 -111 -32q-12 -6 -17 3l-7 16q-5 11 6 16q62 36 149 36h410z" />
    <glyph glyph-name="uni0401" unicode="&#x401;" horiz-adv-x="570" 
d="M208 843q14 0 18.5 -5t4.5 -18v-7q0 -13 -4.5 -17.5t-18.5 -4.5h-6q-13 0 -18 4.5t-5 17.5v7q0 13 5 18t18 5h6zM399 843q13 0 18 -5t5 -18v-7q0 -13 -5 -17.5t-18 -4.5h-6q-13 0 -18 4.5t-5 17.5v7q0 13 5 18t18 5h6zM503 710q13 0 13 -13v-18q0 -12 -13 -12h-375v-286
h332q12 0 12 -12v-18q0 -13 -12 -13h-332v-295h389q13 0 13 -12v-18q0 -13 -13 -13h-422q-13 0 -13 13v684q0 13 13 13h408z" />
    <glyph glyph-name="uni0410" unicode="&#x410;" horiz-adv-x="632" 
d="M620 12q5 -12 -10 -12h-18q-20 0 -22 11l-89 221h-332l-88 -221q-4 -11 -23 -11h-17q-14 0 -9 12l277 691q5 12 17 12h20q13 0 17 -12zM326 626q-3 9 -10 43h-3q0 -20 -8 -43l-142 -355h305z" />
    <glyph glyph-name="uni0411" unicode="&#x411;" horiz-adv-x="625" 
d="M526 710q12 0 12 -13v-18q0 -12 -12 -12h-398v-269h259q95 0 148.5 -52t53.5 -147q0 -94 -53.5 -146.5t-148.5 -52.5h-293q-12 0 -12 12v685q0 13 13 13h431zM542 199q0 75 -42 115.5t-117 40.5h-255v-312h255q75 0 117 41t42 115z" />
    <glyph glyph-name="uni0412" unicode="&#x412;" horiz-adv-x="640" 
d="M379 710q90 0 139 -46t49 -133q0 -127 -104 -164v-2q128 -28 128 -176q0 -90 -53 -139.5t-146 -49.5h-297q-13 0 -13 13v684q0 13 13 13h284zM520 526q0 69 -37.5 105t-108.5 36h-246v-284h246q70 0 108 36t38 107zM543 193q0 72 -39.5 110t-113.5 38h-262v-298h262
q74 0 113.5 38.5t39.5 111.5z" />
    <glyph glyph-name="uni0413" unicode="&#x413;" horiz-adv-x="508" 
d="M479 710q12 0 12 -13v-18q0 -12 -12 -12h-351v-654q0 -13 -12 -13h-21q-13 0 -13 13v684q0 13 13 13h384z" />
    <glyph glyph-name="uni0414" unicode="&#x414;" horiz-adv-x="699" 
d="M584 710q12 0 12 -13v-654h69q12 0 12 -12v-171q0 -13 -12 -13h-21q-12 0 -12 13v140h-573v-140q0 -13 -13 -13h-20q-13 0 -13 13v171q0 12 13 12h41q23 16 38.5 36t34 66t28 134.5t9.5 216.5v201q0 13 13 13h394zM221 496q0 -220 -26.5 -316t-69.5 -137h425v624h-329
v-171z" />
    <glyph glyph-name="uni0415" unicode="&#x415;" horiz-adv-x="570" 
d="M503 710q13 0 13 -13v-18q0 -12 -13 -12h-375v-286h332q12 0 12 -12v-18q0 -13 -12 -13h-332v-295h389q13 0 13 -12v-18q0 -13 -13 -13h-422q-13 0 -13 13v684q0 13 13 13h408z" />
    <glyph glyph-name="uni0416" unicode="&#x416;" horiz-adv-x="905" 
d="M866 710q16 0 7 -13l-224 -332q66 -21 108 -103l126 -249q9 -13 -7 -13h-20q-19 0 -25 11l-116 233q-26 51 -60 73t-95 22h-84v-326q0 -13 -13 -13h-21q-13 0 -13 13v326h-84q-61 0 -95 -22t-60 -73l-116 -233q-6 -11 -25 -11h-20q-16 0 -7 13l126 249q42 82 108 103
l-224 332q-7 13 7 13h22q19 0 26 -11l214 -320q28 2 44 2h84v316q0 13 13 13h21q13 0 13 -13v-316h84q18 0 44 -2l214 320q7 11 26 11h22z" />
    <glyph glyph-name="uni0417" unicode="&#x417;" horiz-adv-x="613" 
d="M543 527q0 -56 -23.5 -99t-72.5 -61q117 -36 117 -175q0 -98 -62 -152t-187 -54q-119 0 -183 44.5t-91 133.5q-4 12 8 16l19 7q13 4 17 -8q24 -78 75.5 -114t154.5 -36q102 0 152 42.5t50 121.5q0 69 -38 109.5t-109 40.5h-188q-12 0 -12 12v17q0 13 12 13h184
q66 0 98.5 39.5t32.5 99.5q0 76 -47 116.5t-137 40.5q-98 0 -148.5 -34.5t-73.5 -111.5q-4 -11 -17 -7l-19 6q-12 4 -8 17q26 88 89 130.5t179 42.5q112 0 170 -51.5t58 -145.5z" />
    <glyph glyph-name="uni0418" unicode="&#x418;" horiz-adv-x="691" 
d="M596 710q13 0 13 -13v-684q0 -13 -13 -13h-21q-13 0 -13 13v442q0 85 8 192h-2q-43 -72 -110 -169l-328 -470q-5 -8 -15 -8h-20q-13 0 -13 13v684q0 13 13 13h21q12 0 12 -13v-429q0 -121 -7 -205h2q35 59 119 183l319 457q5 7 14 7h21z" />
    <glyph glyph-name="uni0419" unicode="&#x419;" horiz-adv-x="691" 
d="M507 879q-34 -109 -158 -109q-126 0 -158 109q-3 8 5 11l18 6q9 3 13 -5q25 -88 122 -88q96 0 122 88q4 7 12 5l18 -6q9 -3 6 -11zM596 710q13 0 13 -13v-684q0 -13 -13 -13h-21q-13 0 -13 13v442q0 85 8 192h-2q-43 -72 -110 -169l-328 -470q-5 -8 -15 -8h-20
q-13 0 -13 13v684q0 13 13 13h21q12 0 12 -13v-429q0 -121 -7 -205h2q35 59 119 183l319 457q5 7 14 7h21z" />
    <glyph glyph-name="uni041A" unicode="&#x41a;" horiz-adv-x="600" 
d="M579 13q7 -13 -7 -13h-20q-19 0 -25 11l-117 233q-26 51 -60 73t-95 22h-127v-326q0 -13 -12 -13h-21q-13 0 -13 13v684q0 13 13 13h21q12 0 12 -13v-316h124q18 0 25 -1l236 319q9 11 26 11h23q15 0 6 -13l-243 -325q44 -10 74 -36.5t54 -73.5z" />
    <glyph glyph-name="uni041B" unicode="&#x41b;" horiz-adv-x="646" 
d="M552 710q12 0 12 -13v-684q0 -13 -12 -13h-21q-13 0 -13 13v654h-325v-202q0 -84 -4.5 -150t-11 -111t-20 -80t-23.5 -54.5t-31 -37t-33 -24.5t-38 -20q-12 -6 -17 5l-10 19q-6 11 6 17q31 16 45.5 26t35.5 39t30.5 71t17 117.5t7.5 182.5v232q0 13 13 13h392z" />
    <glyph glyph-name="uni041C" unicode="&#x41c;" horiz-adv-x="795" 
d="M701 710q12 0 12 -13v-684q0 -13 -12 -13h-20q-12 0 -12 13v459q0 84 7 167h-2q-37 -76 -75 -143l-178 -316q-5 -10 -16 -10h-13q-13 0 -17 10l-181 320q-36 61 -72 139h-2q6 -88 6 -167v-459q0 -13 -13 -13h-18q-13 0 -13 13v684q0 13 13 13h16q12 0 19 -11l268 -473
l266 472q7 12 18 12h19z" />
    <glyph glyph-name="uni041D" unicode="&#x41d;" 
d="M584 710q13 0 13 -13v-684q0 -13 -13 -13h-21q-12 0 -12 13v325h-423v-325q0 -13 -12 -13h-21q-13 0 -13 13v684q0 13 13 13h21q12 0 12 -13v-316h423v316q0 13 12 13h21z" />
    <glyph glyph-name="uni041E" unicode="&#x41e;" horiz-adv-x="660" 
d="M61 477q0 116 70 181.5t200 65.5q129 0 198.5 -65.5t69.5 -181.5v-244q0 -116 -69.5 -181.5t-198.5 -65.5q-130 0 -200 65.5t-70 181.5v244zM553 477q0 97 -57.5 150.5t-164.5 53.5q-109 0 -166.5 -53.5t-57.5 -150.5v-244q0 -97 57.5 -150.5t166.5 -53.5
q107 0 164.5 53.5t57.5 150.5v244z" />
    <glyph glyph-name="uni041F" unicode="&#x41f;" horiz-adv-x="672" 
d="M578 710q12 0 12 -13v-684q0 -13 -12 -13h-21q-13 0 -13 13v654h-416v-654q0 -13 -12 -13h-21q-13 0 -13 13v684q0 13 13 13h483z" />
    <glyph glyph-name="uni0420" unicode="&#x420;" horiz-adv-x="618" 
d="M364 710q102 0 161.5 -58t59.5 -160q0 -101 -59.5 -158.5t-161.5 -57.5h-236v-263q0 -13 -12 -13h-21q-13 0 -13 13v684q0 13 13 13h269zM360 319q82 0 129.5 46t47.5 127q0 82 -47.5 128.5t-129.5 46.5h-232v-348h232z" />
    <glyph glyph-name="uni0421" unicode="&#x421;" horiz-adv-x="634" 
d="M61 478q0 116 69 181t200 65q113 0 175 -43t88 -131q3 -11 -9 -17l-18 -6q-13 -3 -17 8q-23 76 -73.5 111t-145.5 35q-109 0 -166 -53t-57 -149v-247q0 -95 58 -149t165 -54q97 0 147 36.5t74 114.5q5 12 17 8l19 -7q12 -4 8 -16q-27 -90 -88.5 -134.5t-176.5 -44.5
q-129 0 -199 65.5t-70 181.5v245z" />
    <glyph glyph-name="uni0422" unicode="&#x422;" horiz-adv-x="532" 
d="M506 710q13 0 13 -13v-18q0 -12 -13 -12h-217v-654q0 -13 -12 -13h-21q-13 0 -13 13v654h-217q-13 0 -13 12v18q0 13 13 13h480z" />
    <glyph glyph-name="uni0423" unicode="&#x423;" horiz-adv-x="582" 
d="M565 710q13 0 7 -13l-346 -686q-6 -11 -22 -11h-23q-13 0 -7 13l97 188l-264 496q-6 13 7 13h22q17 0 24 -11l235 -448l226 448q5 11 23 11h21z" />
    <glyph glyph-name="uni0424" unicode="&#x424;" horiz-adv-x="824" 
d="M422 735q13 0 13 -13v-72h69q131 0 200.5 -67t69.5 -187v-77q0 -120 -69.5 -187t-200.5 -67h-69v-72q0 -13 -13 -13h-21q-12 0 -12 13v72h-69q-131 0 -200.5 67t-69.5 187v77q0 120 69.5 187t200.5 67h69v72q0 13 12 13h21zM320 608q-109 0 -166 -55.5t-57 -155.5v-79
q0 -100 57 -155.5t166 -55.5h69v501h-69zM727 397q0 100 -57 155.5t-166 55.5h-69v-501h69q109 0 166 55.5t57 155.5v79z" />
    <glyph glyph-name="uni0425" unicode="&#x425;" horiz-adv-x="607" 
d="M589 15q11 -15 -5 -15h-26q-17 0 -24 11l-232 314l-230 -314q-8 -11 -24 -11h-25q-15 0 -6 15l257 345l-250 338q-8 12 7 12h26q16 0 23 -11l224 -302l223 302q7 11 23 11h26q6 0 8 -4t-2 -8l-249 -337z" />
    <glyph glyph-name="uni0426" unicode="&#x426;" horiz-adv-x="689" 
d="M655 43q12 0 12 -12v-171q0 -13 -12 -13h-20q-13 0 -13 13v140h-527q-13 0 -13 13v684q0 13 13 13h21q12 0 12 -13v-654h413v654q0 13 12 13h21q13 0 13 -13v-654h68z" />
    <glyph glyph-name="uni0427" unicode="&#x427;" horiz-adv-x="623" 
d="M528 710q13 0 13 -13v-684q0 -13 -13 -13h-21q-13 0 -13 13v281q-88 -22 -203 -22q-133 0 -191 61.5t-58 183.5v180q0 13 12 13h22q12 0 12 -13v-180q0 -103 46.5 -152.5t158.5 -49.5q115 0 201 23v359q0 13 13 13h21z" />
    <glyph glyph-name="uni0428" unicode="&#x428;" horiz-adv-x="904" 
d="M809 710q13 0 13 -13v-684q0 -13 -13 -13h-714q-13 0 -13 13v684q0 13 13 13h21q12 0 12 -13v-654h301v654q0 13 12 13h22q12 0 12 -13v-654h301v654q0 13 12 13h21z" />
    <glyph glyph-name="uni0429" unicode="&#x429;" horiz-adv-x="925" 
d="M891 43q13 0 13 -12v-171q0 -13 -13 -13h-19q-13 0 -13 13v140h-764q-13 0 -13 13v684q0 13 13 13h21q12 0 12 -13v-654h301v654q0 13 12 13h22q12 0 12 -13v-654h301v654q0 13 12 13h21q13 0 13 -13v-654h69z" />
    <glyph glyph-name="uni042A" unicode="&#x42a;" horiz-adv-x="722" 
d="M468 434q102 0 161.5 -57.5t59.5 -158.5q0 -102 -59 -160t-162 -58h-269q-13 0 -13 13v654h-161q-12 0 -12 12v18q0 13 12 13h195q12 0 12 -13v-263h236zM464 43q82 0 129.5 46.5t47.5 128.5q0 81 -47.5 127t-129.5 46h-232v-348h232z" />
    <glyph glyph-name="uni042B" unicode="&#x42b;" horiz-adv-x="841" 
d="M95 0q-13 0 -13 13v684q0 13 13 13h21q12 0 12 -13v-263h236q102 0 161.5 -57.5t59.5 -158.5q0 -102 -59.5 -160t-161.5 -58h-269zM713 697q0 13 13 13h21q12 0 12 -13v-684q0 -13 -12 -13h-21q-13 0 -13 13v684zM360 43q82 0 129.5 46.5t47.5 128.5q0 81 -47.5 127
t-129.5 46h-232v-348h232z" />
    <glyph glyph-name="uni042C" unicode="&#x42c;" horiz-adv-x="618" 
d="M95 0q-13 0 -13 13v684q0 13 13 13h21q12 0 12 -13v-263h236q102 0 161.5 -57.5t59.5 -158.5q0 -102 -59.5 -160t-161.5 -58h-269zM360 43q82 0 129.5 46.5t47.5 128.5q0 81 -47.5 127t-129.5 46h-232v-348h232z" />
    <glyph glyph-name="uni042D" unicode="&#x42d;" horiz-adv-x="638" 
d="M46 551q25 87 87 130t175 43q131 0 200.5 -64.5t69.5 -180.5v-247q0 -116 -70.5 -181t-199.5 -65q-115 0 -176.5 44.5t-88.5 133.5q-4 12 9 16l19 7q12 4 16 -8q23 -77 73.5 -113.5t147.5 -36.5q108 0 165.5 53.5t57.5 148.5v107h-328q-12 0 -12 12v18q0 13 12 13h328v99
q0 95 -57 148t-166 53q-95 0 -145.5 -35t-73.5 -111q-4 -11 -16 -7l-19 6q-12 4 -8 17z" />
    <glyph glyph-name="uni042E" unicode="&#x42e;" horiz-adv-x="912" 
d="M320 479q0 116 68.5 180.5t198.5 64.5q128 0 196.5 -65t68.5 -180v-248q0 -115 -68.5 -180t-196.5 -65q-130 0 -198.5 64.5t-68.5 180.5v107h-192v-325q0 -13 -12 -13h-21q-13 0 -13 13v684q0 13 13 13h21q12 0 12 -13v-316h192v98zM806 478q0 96 -56.5 149.5
t-162.5 53.5q-108 0 -164.5 -53.5t-56.5 -149.5v-246q0 -96 56.5 -149.5t164.5 -53.5q106 0 162.5 53.5t56.5 149.5v246z" />
    <glyph glyph-name="uni042F" unicode="&#x42f;" horiz-adv-x="639" 
d="M54 510q0 95 54 147.5t149 52.5h287q13 0 13 -13v-684q0 -13 -13 -13h-21q-12 0 -12 13v299h-169q-62 0 -95.5 -21.5t-58.5 -73.5l-96 -206q-6 -11 -25 -11h-20q-14 0 -7 13l106 222q29 62 75 82q-80 9 -123.5 58.5t-43.5 134.5zM262 667q-76 0 -118 -41t-42 -116
q0 -74 42 -114.5t118 -40.5h249v312h-249z" />
    <glyph glyph-name="uni0430" unicode="&#x430;" horiz-adv-x="632" 
d="M620 12q5 -12 -10 -12h-18q-20 0 -22 11l-89 221h-332l-88 -221q-4 -11 -23 -11h-17q-14 0 -9 12l277 691q5 12 17 12h20q13 0 17 -12zM326 626q-3 9 -10 43h-3q0 -20 -8 -43l-142 -355h305z" />
    <glyph glyph-name="uni0431" unicode="&#x431;" horiz-adv-x="625" 
d="M526 710q12 0 12 -13v-18q0 -12 -12 -12h-398v-269h259q95 0 148.5 -52t53.5 -147q0 -94 -53.5 -146.5t-148.5 -52.5h-293q-12 0 -12 12v685q0 13 13 13h431zM542 199q0 75 -42 115.5t-117 40.5h-255v-312h255q75 0 117 41t42 115z" />
    <glyph glyph-name="uni0432" unicode="&#x432;" horiz-adv-x="640" 
d="M379 710q90 0 139 -46t49 -133q0 -127 -104 -164v-2q128 -28 128 -176q0 -90 -53 -139.5t-146 -49.5h-297q-13 0 -13 13v684q0 13 13 13h284zM520 526q0 69 -37.5 105t-108.5 36h-246v-284h246q70 0 108 36t38 107zM543 193q0 72 -39.5 110t-113.5 38h-262v-298h262
q74 0 113.5 38.5t39.5 111.5z" />
    <glyph glyph-name="uni0433" unicode="&#x433;" horiz-adv-x="508" 
d="M479 710q12 0 12 -13v-18q0 -12 -12 -12h-351v-654q0 -13 -12 -13h-21q-13 0 -13 13v684q0 13 13 13h384z" />
    <glyph glyph-name="uni0434" unicode="&#x434;" horiz-adv-x="699" 
d="M584 710q12 0 12 -13v-654h69q12 0 12 -12v-171q0 -13 -12 -13h-21q-12 0 -12 13v140h-573v-140q0 -13 -13 -13h-20q-13 0 -13 13v171q0 12 13 12h41q23 16 38.5 36t34 66t28 134.5t9.5 216.5v201q0 13 13 13h394zM221 496q0 -220 -26.5 -316t-69.5 -137h425v624h-329
v-171z" />
    <glyph glyph-name="uni0435" unicode="&#x435;" horiz-adv-x="570" 
d="M503 710q13 0 13 -13v-18q0 -12 -13 -12h-375v-286h332q12 0 12 -12v-18q0 -13 -12 -13h-332v-295h389q13 0 13 -12v-18q0 -13 -13 -13h-422q-13 0 -13 13v684q0 13 13 13h408z" />
    <glyph glyph-name="uni0436" unicode="&#x436;" horiz-adv-x="905" 
d="M866 710q16 0 7 -13l-224 -332q66 -21 108 -103l126 -249q9 -13 -7 -13h-20q-19 0 -25 11l-116 233q-26 51 -60 73t-95 22h-84v-326q0 -13 -13 -13h-21q-13 0 -13 13v326h-84q-61 0 -95 -22t-60 -73l-116 -233q-6 -11 -25 -11h-20q-16 0 -7 13l126 249q42 82 108 103
l-224 332q-7 13 7 13h22q19 0 26 -11l214 -320q28 2 44 2h84v316q0 13 13 13h21q13 0 13 -13v-316h84q18 0 44 -2l214 320q7 11 26 11h22z" />
    <glyph glyph-name="uni0437" unicode="&#x437;" horiz-adv-x="613" 
d="M543 527q0 -56 -23.5 -99t-72.5 -61q117 -36 117 -175q0 -98 -62 -152t-187 -54q-119 0 -183 44.5t-91 133.5q-4 12 8 16l19 7q13 4 17 -8q24 -78 75.5 -114t154.5 -36q102 0 152 42.5t50 121.5q0 69 -38 109.5t-109 40.5h-188q-12 0 -12 12v17q0 13 12 13h184
q66 0 98.5 39.5t32.5 99.5q0 76 -47 116.5t-137 40.5q-98 0 -148.5 -34.5t-73.5 -111.5q-4 -11 -17 -7l-19 6q-12 4 -8 17q26 88 89 130.5t179 42.5q112 0 170 -51.5t58 -145.5z" />
    <glyph glyph-name="uni0438" unicode="&#x438;" horiz-adv-x="691" 
d="M596 710q13 0 13 -13v-684q0 -13 -13 -13h-21q-13 0 -13 13v442q0 85 8 192h-2q-43 -72 -110 -169l-328 -470q-5 -8 -15 -8h-20q-13 0 -13 13v684q0 13 13 13h21q12 0 12 -13v-429q0 -121 -7 -205h2q35 59 119 183l319 457q5 7 14 7h21z" />
    <glyph glyph-name="uni0439" unicode="&#x439;" horiz-adv-x="691" 
d="M507 879q-34 -109 -158 -109q-126 0 -158 109q-3 8 5 11l18 6q9 3 13 -5q25 -88 122 -88q96 0 122 88q4 7 12 5l18 -6q9 -3 6 -11zM596 710q13 0 13 -13v-684q0 -13 -13 -13h-21q-13 0 -13 13v442q0 85 8 192h-2q-43 -72 -110 -169l-328 -470q-5 -8 -15 -8h-20
q-13 0 -13 13v684q0 13 13 13h21q12 0 12 -13v-429q0 -121 -7 -205h2q35 59 119 183l319 457q5 7 14 7h21z" />
    <glyph glyph-name="uni043A" unicode="&#x43a;" horiz-adv-x="600" 
d="M579 13q7 -13 -7 -13h-20q-19 0 -25 11l-117 233q-26 51 -60 73t-95 22h-127v-326q0 -13 -12 -13h-21q-13 0 -13 13v684q0 13 13 13h21q12 0 12 -13v-316h124q18 0 25 -1l236 319q9 11 26 11h23q15 0 6 -13l-243 -325q44 -10 74 -36.5t54 -73.5z" />
    <glyph glyph-name="uni043B" unicode="&#x43b;" horiz-adv-x="646" 
d="M552 710q12 0 12 -13v-684q0 -13 -12 -13h-21q-13 0 -13 13v654h-325v-202q0 -84 -4.5 -150t-11 -111t-20 -80t-23.5 -54.5t-31 -37t-33 -24.5t-38 -20q-12 -6 -17 5l-10 19q-6 11 6 17q31 16 45.5 26t35.5 39t30.5 71t17 117.5t7.5 182.5v232q0 13 13 13h392z" />
    <glyph glyph-name="uni043C" unicode="&#x43c;" horiz-adv-x="795" 
d="M701 710q12 0 12 -13v-684q0 -13 -12 -13h-20q-12 0 -12 13v459q0 84 7 167h-2q-37 -76 -75 -143l-178 -316q-5 -10 -16 -10h-13q-13 0 -17 10l-181 320q-36 61 -72 139h-2q6 -88 6 -167v-459q0 -13 -13 -13h-18q-13 0 -13 13v684q0 13 13 13h16q12 0 19 -11l268 -473
l266 472q7 12 18 12h19z" />
    <glyph glyph-name="uni043D" unicode="&#x43d;" 
d="M584 710q13 0 13 -13v-684q0 -13 -13 -13h-21q-12 0 -12 13v325h-423v-325q0 -13 -12 -13h-21q-13 0 -13 13v684q0 13 13 13h21q12 0 12 -13v-316h423v316q0 13 12 13h21z" />
    <glyph glyph-name="uni043E" unicode="&#x43e;" horiz-adv-x="660" 
d="M61 477q0 116 70 181.5t200 65.5q129 0 198.5 -65.5t69.5 -181.5v-244q0 -116 -69.5 -181.5t-198.5 -65.5q-130 0 -200 65.5t-70 181.5v244zM553 477q0 97 -57.5 150.5t-164.5 53.5q-109 0 -166.5 -53.5t-57.5 -150.5v-244q0 -97 57.5 -150.5t166.5 -53.5
q107 0 164.5 53.5t57.5 150.5v244z" />
    <glyph glyph-name="uni043F" unicode="&#x43f;" horiz-adv-x="672" 
d="M578 710q12 0 12 -13v-684q0 -13 -12 -13h-21q-13 0 -13 13v654h-416v-654q0 -13 -12 -13h-21q-13 0 -13 13v684q0 13 13 13h483z" />
    <glyph glyph-name="uni0440" unicode="&#x440;" horiz-adv-x="618" 
d="M364 710q102 0 161.5 -58t59.5 -160q0 -101 -59.5 -158.5t-161.5 -57.5h-236v-263q0 -13 -12 -13h-21q-13 0 -13 13v684q0 13 13 13h269zM360 319q82 0 129.5 46t47.5 127q0 82 -47.5 128.5t-129.5 46.5h-232v-348h232z" />
    <glyph glyph-name="uni0441" unicode="&#x441;" horiz-adv-x="634" 
d="M61 478q0 116 69 181t200 65q113 0 175 -43t88 -131q3 -11 -9 -17l-18 -6q-13 -3 -17 8q-23 76 -73.5 111t-145.5 35q-109 0 -166 -53t-57 -149v-247q0 -95 58 -149t165 -54q97 0 147 36.5t74 114.5q5 12 17 8l19 -7q12 -4 8 -16q-27 -90 -88.5 -134.5t-176.5 -44.5
q-129 0 -199 65.5t-70 181.5v245z" />
    <glyph glyph-name="uni0442" unicode="&#x442;" horiz-adv-x="532" 
d="M506 710q13 0 13 -13v-18q0 -12 -13 -12h-217v-654q0 -13 -12 -13h-21q-13 0 -13 13v654h-217q-13 0 -13 12v18q0 13 13 13h480z" />
    <glyph glyph-name="uni0443" unicode="&#x443;" horiz-adv-x="582" 
d="M565 710q13 0 7 -13l-346 -686q-6 -11 -22 -11h-23q-13 0 -7 13l97 188l-264 496q-6 13 7 13h22q17 0 24 -11l235 -448l226 448q5 11 23 11h21z" />
    <glyph glyph-name="uni0444" unicode="&#x444;" horiz-adv-x="824" 
d="M422 735q13 0 13 -13v-72h69q131 0 200.5 -67t69.5 -187v-77q0 -120 -69.5 -187t-200.5 -67h-69v-72q0 -13 -13 -13h-21q-12 0 -12 13v72h-69q-131 0 -200.5 67t-69.5 187v77q0 120 69.5 187t200.5 67h69v72q0 13 12 13h21zM320 608q-109 0 -166 -55.5t-57 -155.5v-79
q0 -100 57 -155.5t166 -55.5h69v501h-69zM727 397q0 100 -57 155.5t-166 55.5h-69v-501h69q109 0 166 55.5t57 155.5v79z" />
    <glyph glyph-name="uni0445" unicode="&#x445;" horiz-adv-x="607" 
d="M589 15q11 -15 -5 -15h-26q-17 0 -24 11l-232 314l-230 -314q-8 -11 -24 -11h-25q-15 0 -6 15l257 345l-250 338q-8 12 7 12h26q16 0 23 -11l224 -302l223 302q7 11 23 11h26q6 0 8 -4t-2 -8l-249 -337z" />
    <glyph glyph-name="uni0446" unicode="&#x446;" horiz-adv-x="689" 
d="M655 43q12 0 12 -12v-171q0 -13 -12 -13h-20q-13 0 -13 13v140h-527q-13 0 -13 13v684q0 13 13 13h21q12 0 12 -13v-654h413v654q0 13 12 13h21q13 0 13 -13v-654h68z" />
    <glyph glyph-name="uni0447" unicode="&#x447;" horiz-adv-x="623" 
d="M528 710q13 0 13 -13v-684q0 -13 -13 -13h-21q-13 0 -13 13v281q-88 -22 -203 -22q-133 0 -191 61.5t-58 183.5v180q0 13 12 13h22q12 0 12 -13v-180q0 -103 46.5 -152.5t158.5 -49.5q115 0 201 23v359q0 13 13 13h21z" />
    <glyph glyph-name="uni0448" unicode="&#x448;" horiz-adv-x="904" 
d="M809 710q13 0 13 -13v-684q0 -13 -13 -13h-714q-13 0 -13 13v684q0 13 13 13h21q12 0 12 -13v-654h301v654q0 13 12 13h22q12 0 12 -13v-654h301v654q0 13 12 13h21z" />
    <glyph glyph-name="uni0449" unicode="&#x449;" horiz-adv-x="925" 
d="M891 43q13 0 13 -12v-171q0 -13 -13 -13h-19q-13 0 -13 13v140h-764q-13 0 -13 13v684q0 13 13 13h21q12 0 12 -13v-654h301v654q0 13 12 13h22q12 0 12 -13v-654h301v654q0 13 12 13h21q13 0 13 -13v-654h69z" />
    <glyph glyph-name="uni044A" unicode="&#x44a;" horiz-adv-x="722" 
d="M468 434q102 0 161.5 -57.5t59.5 -158.5q0 -102 -59 -160t-162 -58h-269q-13 0 -13 13v654h-161q-12 0 -12 12v18q0 13 12 13h195q12 0 12 -13v-263h236zM464 43q82 0 129.5 46.5t47.5 128.5q0 81 -47.5 127t-129.5 46h-232v-348h232z" />
    <glyph glyph-name="uni044B" unicode="&#x44b;" horiz-adv-x="841" 
d="M95 0q-13 0 -13 13v684q0 13 13 13h21q12 0 12 -13v-263h236q102 0 161.5 -57.5t59.5 -158.5q0 -102 -59.5 -160t-161.5 -58h-269zM713 697q0 13 13 13h21q12 0 12 -13v-684q0 -13 -12 -13h-21q-13 0 -13 13v684zM360 43q82 0 129.5 46.5t47.5 128.5q0 81 -47.5 127
t-129.5 46h-232v-348h232z" />
    <glyph glyph-name="uni044C" unicode="&#x44c;" horiz-adv-x="618" 
d="M95 0q-13 0 -13 13v684q0 13 13 13h21q12 0 12 -13v-263h236q102 0 161.5 -57.5t59.5 -158.5q0 -102 -59.5 -160t-161.5 -58h-269zM360 43q82 0 129.5 46.5t47.5 128.5q0 81 -47.5 127t-129.5 46h-232v-348h232z" />
    <glyph glyph-name="uni044D" unicode="&#x44d;" horiz-adv-x="638" 
d="M46 551q25 87 87 130t175 43q131 0 200.5 -64.5t69.5 -180.5v-247q0 -116 -70.5 -181t-199.5 -65q-115 0 -176.5 44.5t-88.5 133.5q-4 12 9 16l19 7q12 4 16 -8q23 -77 73.5 -113.5t147.5 -36.5q108 0 165.5 53.5t57.5 148.5v107h-328q-12 0 -12 12v18q0 13 12 13h328v99
q0 95 -57 148t-166 53q-95 0 -145.5 -35t-73.5 -111q-4 -11 -16 -7l-19 6q-12 4 -8 17z" />
    <glyph glyph-name="uni044E" unicode="&#x44e;" horiz-adv-x="912" 
d="M320 479q0 116 68.5 180.5t198.5 64.5q128 0 196.5 -65t68.5 -180v-248q0 -115 -68.5 -180t-196.5 -65q-130 0 -198.5 64.5t-68.5 180.5v107h-192v-325q0 -13 -12 -13h-21q-13 0 -13 13v684q0 13 13 13h21q12 0 12 -13v-316h192v98zM806 478q0 96 -56.5 149.5
t-162.5 53.5q-108 0 -164.5 -53.5t-56.5 -149.5v-246q0 -96 56.5 -149.5t164.5 -53.5q106 0 162.5 53.5t56.5 149.5v246z" />
    <glyph glyph-name="uni044F" unicode="&#x44f;" horiz-adv-x="639" 
d="M54 510q0 95 54 147.5t149 52.5h287q13 0 13 -13v-684q0 -13 -13 -13h-21q-12 0 -12 13v299h-169q-62 0 -95.5 -21.5t-58.5 -73.5l-96 -206q-6 -11 -25 -11h-20q-14 0 -7 13l106 222q29 62 75 82q-80 9 -123.5 58.5t-43.5 134.5zM262 667q-76 0 -118 -41t-42 -116
q0 -74 42 -114.5t118 -40.5h249v312h-249z" />
    <glyph glyph-name="uni0451" unicode="&#x451;" horiz-adv-x="570" 
d="M208 843q14 0 18.5 -5t4.5 -18v-7q0 -13 -4.5 -17.5t-18.5 -4.5h-6q-13 0 -18 4.5t-5 17.5v7q0 13 5 18t18 5h6zM399 843q13 0 18 -5t5 -18v-7q0 -13 -5 -17.5t-18 -4.5h-6q-13 0 -18 4.5t-5 17.5v7q0 13 5 18t18 5h6zM503 710q13 0 13 -13v-18q0 -12 -13 -12h-375v-286
h332q12 0 12 -12v-18q0 -13 -12 -13h-332v-295h389q13 0 13 -12v-18q0 -13 -13 -13h-422q-13 0 -13 13v684q0 13 13 13h408z" />
    <glyph glyph-name="Wgrave" unicode="&#x1e80;" horiz-adv-x="870" 
d="M344 886q8 9 23 2l172 -102q8 -6 1 -14l-7 -8q-5 -6 -16 -1l-180 98q-12 4 -2 14zM838 710q12 0 8 -12l-185 -686q-4 -12 -17 -12h-20q-15 0 -17 11l-149 527q-10 37 -21 91h-3q-11 -57 -22 -91l-149 -526q-2 -12 -17 -12h-19q-15 0 -17 11l-186 687q-3 12 8 12h25
q15 0 17 -11l143 -538q4 -15 10.5 -49t9.5 -46h2q1 5 9 40.5t13 53.5l149 523q2 12 17 12h20q15 0 17 -12l149 -525q5 -20 21 -92h3q7 41 18 92l144 541q2 11 17 11h22z" />
    <glyph glyph-name="wgrave" unicode="&#x1e81;" horiz-adv-x="870" 
d="M344 886q8 9 23 2l172 -102q8 -6 1 -14l-7 -8q-5 -6 -16 -1l-180 98q-12 4 -2 14zM838 710q12 0 8 -12l-185 -686q-4 -12 -17 -12h-20q-15 0 -17 11l-149 527q-10 37 -21 91h-3q-11 -57 -22 -91l-149 -526q-2 -12 -17 -12h-19q-15 0 -17 11l-186 687q-3 12 8 12h25
q15 0 17 -11l143 -538q4 -15 10.5 -49t9.5 -46h2q1 5 9 40.5t13 53.5l149 523q2 12 17 12h20q15 0 17 -12l149 -525q5 -20 21 -92h3q7 41 18 92l144 541q2 11 17 11h22z" />
    <glyph glyph-name="Wacute" unicode="&#x1e82;" horiz-adv-x="870" 
d="M507 895q15 7 23 -2l9 -11q10 -10 -2 -15l-177 -102q-11 -4 -16 1l-7 8q-7 8 1 14zM838 710q12 0 8 -12l-185 -686q-4 -12 -17 -12h-20q-15 0 -17 11l-149 527q-10 37 -21 91h-3q-11 -57 -22 -91l-149 -526q-2 -12 -17 -12h-19q-15 0 -17 11l-186 687q-3 12 8 12h25
q15 0 17 -11l143 -538q4 -15 10.5 -49t9.5 -46h2q1 5 9 40.5t13 53.5l149 523q2 12 17 12h20q15 0 17 -12l149 -525q5 -20 21 -92h3q7 41 18 92l144 541q2 11 17 11h22z" />
    <glyph glyph-name="wacute" unicode="&#x1e83;" horiz-adv-x="870" 
d="M507 895q15 7 23 -2l9 -11q10 -10 -2 -15l-177 -102q-11 -4 -16 1l-7 8q-7 8 1 14zM838 710q12 0 8 -12l-185 -686q-4 -12 -17 -12h-20q-15 0 -17 11l-149 527q-10 37 -21 91h-3q-11 -57 -22 -91l-149 -526q-2 -12 -17 -12h-19q-15 0 -17 11l-186 687q-3 12 8 12h25
q15 0 17 -11l143 -538q4 -15 10.5 -49t9.5 -46h2q1 5 9 40.5t13 53.5l149 523q2 12 17 12h20q15 0 17 -12l149 -525q5 -20 21 -92h3q7 41 18 92l144 541q2 11 17 11h22z" />
    <glyph glyph-name="Wdieresis" unicode="&#x1e84;" horiz-adv-x="870" 
d="M345 853q13 0 18 -5t5 -18v-7q0 -13 -5 -17.5t-18 -4.5h-6q-13 0 -18 4.5t-5 17.5v7q0 13 5 18t18 5h6zM536 853q13 0 18 -5t5 -18v-7q0 -13 -5 -17.5t-18 -4.5h-6q-13 0 -18 4.5t-5 17.5v7q0 13 5 18t18 5h6zM838 710q12 0 8 -12l-185 -686q-4 -12 -17 -12h-20
q-15 0 -17 11l-149 527q-10 37 -21 91h-3q-11 -57 -22 -91l-149 -526q-2 -12 -17 -12h-19q-15 0 -17 11l-186 687q-3 12 8 12h25q15 0 17 -11l143 -538q4 -15 10.5 -49t9.5 -46h2q1 5 9 40.5t13 53.5l149 523q2 12 17 12h20q15 0 17 -12l149 -525q5 -20 21 -92h3q7 41 18 92
l144 541q2 11 17 11h22z" />
    <glyph glyph-name="wdieresis" unicode="&#x1e85;" horiz-adv-x="870" 
d="M345 853q13 0 18 -5t5 -18v-7q0 -13 -5 -17.5t-18 -4.5h-6q-13 0 -18 4.5t-5 17.5v7q0 13 5 18t18 5h6zM536 853q13 0 18 -5t5 -18v-7q0 -13 -5 -17.5t-18 -4.5h-6q-13 0 -18 4.5t-5 17.5v7q0 13 5 18t18 5h6zM838 710q12 0 8 -12l-185 -686q-4 -12 -17 -12h-20
q-15 0 -17 11l-149 527q-10 37 -21 91h-3q-11 -57 -22 -91l-149 -526q-2 -12 -17 -12h-19q-15 0 -17 11l-186 687q-3 12 8 12h25q15 0 17 -11l143 -538q4 -15 10.5 -49t9.5 -46h2q1 5 9 40.5t13 53.5l149 523q2 12 17 12h20q15 0 17 -12l149 -525q5 -20 21 -92h3q7 41 18 92
l144 541q2 11 17 11h22z" />
    <glyph glyph-name="Ygrave" unicode="&#x1ef2;" horiz-adv-x="619" 
d="M217 886q8 9 23 2l172 -102q8 -6 1 -14l-7 -8q-5 -6 -16 -1l-180 98q-12 4 -2 14zM596 710q14 0 7 -13l-271 -405v-279q0 -13 -12 -13h-21q-13 0 -13 13v280l-270 404q-7 13 7 13h27q18 0 23 -11l237 -359l237 359q7 11 24 11h25z" />
    <glyph glyph-name="ygrave" unicode="&#x1ef3;" horiz-adv-x="619" 
d="M217 886q8 9 23 2l172 -102q8 -6 1 -14l-7 -8q-5 -6 -16 -1l-180 98q-12 4 -2 14zM596 710q14 0 7 -13l-271 -405v-279q0 -13 -12 -13h-21q-13 0 -13 13v280l-270 404q-7 13 7 13h27q18 0 23 -11l237 -359l237 359q7 11 24 11h25z" />
    <glyph glyph-name="endash" unicode="&#x2013;" horiz-adv-x="579" 
d="M503 288q13 0 13 -12v-17q0 -12 -13 -12h-427q-12 0 -12 12v17q0 12 12 12h427z" />
    <glyph glyph-name="emdash" unicode="&#x2014;" horiz-adv-x="779" 
d="M703 288q12 0 12 -12v-17q0 -12 -12 -12h-627q-13 0 -13 12v17q0 12 13 12h627z" />
    <glyph glyph-name="quoteleft" unicode="&#x2018;" horiz-adv-x="185" 
d="M110 698q4 12 14 12h9q9 0 8 -9l-38 -157q-4 -15 -18 -15h-17q-19 0 -13 15z" />
    <glyph glyph-name="quoteright" unicode="&#x2019;" horiz-adv-x="181" 
d="M88 541q-4 -12 -14 -12h-9q-9 0 -8 9l38 157q4 15 18 15h17q19 0 13 -15z" />
    <glyph glyph-name="quotesinglbase" unicode="&#x201a;" horiz-adv-x="153" 
d="M89 -104q0 -12 -12 -12h-10q-11 0 -11 12v202q0 12 11 12h20q12 0 12 -12z" />
    <glyph glyph-name="quotedblleft" unicode="&#x201c;" horiz-adv-x="290" 
d="M110 698q4 12 14 12h9q9 0 8 -9l-38 -157q-4 -15 -18 -15h-17q-19 0 -13 15zM215 698q4 12 14 12h8q10 0 9 -9l-38 -157q-4 -15 -18 -15h-17q-19 0 -13 15z" />
    <glyph glyph-name="quotedblright" unicode="&#x201d;" horiz-adv-x="286" 
d="M88 541q-4 -12 -14 -12h-9q-9 0 -8 9l38 157q4 15 18 15h17q19 0 13 -15zM193 541q-4 -12 -14 -12h-9q-9 0 -8 9l38 157q4 15 18 15h17q17 0 13 -15z" />
    <glyph glyph-name="quotedblbase" unicode="&#x201e;" horiz-adv-x="267" 
d="M52 -110q-4 -11 -15 -11h-8q-9 0 -8 9l38 157q4 15 18 15h17q18 0 13 -15zM157 -110q-4 -11 -15 -11h-8q-9 0 -8 9l38 157q2 15 18 15h17q18 0 12 -15z" />
    <glyph glyph-name="dagger" unicode="&#x2020;" horiz-adv-x="536" 
d="M490 466q13 0 13 -13v-18q0 -12 -13 -12h-199v-510q0 -13 -13 -13h-19q-12 0 -12 13v510h-201q-12 0 -12 12v18q0 13 12 13h201v231q0 13 12 13h19q13 0 13 -13v-231h199z" />
    <glyph glyph-name="daggerdbl" unicode="&#x2021;" horiz-adv-x="587" 
d="M304 710q12 0 12 -13v-231h200q12 0 12 -13v-18q0 -12 -12 -12h-200v-237h200q12 0 12 -13v-18q0 -12 -12 -12h-200v-230q0 -13 -12 -13h-19q-13 0 -13 13v230h-200q-13 0 -13 12v18q0 13 13 13h200v237h-200q-13 0 -13 12v18q0 13 13 13h200v231q0 13 13 13h19z" />
    <glyph glyph-name="bullet" unicode="&#x2022;" horiz-adv-x="273" 
d="M136 213q-21 0 -35 14.5t-14 35.5q0 22 14 36t35 14q22 0 36 -14t14 -36q0 -21 -14 -35.5t-36 -14.5z" />
    <glyph glyph-name="ellipsis" unicode="&#x2026;" horiz-adv-x="558" 
d="M85 55q16 0 21.5 -5.5t5.5 -21.5v-6q0 -15 -5.5 -21t-21.5 -6h-5q-16 0 -22 5.5t-6 21.5v6q0 16 6 21.5t22 5.5h5zM281 55q16 0 22 -5.5t6 -21.5v-6q0 -15 -6 -21t-22 -6h-5q-16 0 -21.5 5.5t-5.5 21.5v6q0 16 5.5 21.5t21.5 5.5h5zM478 55q16 0 21.5 -5.5t5.5 -21.5v-6
q0 -15 -5.5 -21t-21.5 -6h-5q-16 0 -22 5.5t-6 21.5v6q0 16 6 21.5t22 5.5h5z" />
    <glyph glyph-name="perthousand" unicode="&#x2030;" horiz-adv-x="1177" 
d="M38 579q0 68 40 107t115 39t114.5 -38.5t39.5 -107.5v-75q0 -68 -39.5 -106.5t-114.5 -38.5t-115 38.5t-40 106.5v75zM675 710q14 0 6 -13l-505 -686q-9 -11 -25 -11h-16q-16 0 -7 13l505 686q8 11 23 11h19zM310 577q0 53 -30.5 82.5t-86.5 29.5t-86.5 -29.5
t-30.5 -82.5v-71q0 -53 30 -82t87 -29t87 29t30 82v71zM461 204q0 69 40 108t114 39q75 0 115 -39t40 -108v-74q0 -68 -40 -106.5t-115 -38.5q-74 0 -114 38.5t-40 106.5v74zM833 204q0 69 40 108t114 39q75 0 115 -39t40 -108v-74q0 -68 -40 -106.5t-115 -38.5
q-74 0 -114 38.5t-40 106.5v74zM732 203q0 53 -30.5 82.5t-86.5 29.5t-86.5 -29.5t-30.5 -82.5v-71q0 -53 30 -82t87 -29t87 29t30 82v71zM1104 203q0 53 -30.5 82.5t-86.5 29.5t-86.5 -29.5t-30.5 -82.5v-71q0 -53 30 -82t87 -29t87 29t30 82v71z" />
    <glyph glyph-name="guilsinglleft" unicode="&#x2039;" horiz-adv-x="327" 
d="M274 80q7 -8 0 -15l-14 -14q-7 -7 -16 0l-203 204q-7 7 0 15l205 207q8 7 16 0l12 -13q8 -8 0 -16l-184 -185z" />
    <glyph glyph-name="guilsinglright" unicode="&#x203a;" horiz-adv-x="327" 
d="M52 448q-7 7 0 16l13 13q7 7 15 0l206 -207q6 -8 0 -15l-204 -204q-8 -8 -16 0l-13 14q-8 7 0 15l183 183z" />
    <glyph glyph-name="fraction" unicode="&#x2044;" horiz-adv-x="141" 
d="M299 698q8 12 23 12h17q17 0 7 -13l-504 -685q-6 -8 -10 -10t-16 -2h-15q-15 0 -7 13z" />
    <glyph glyph-name="zerosuperior" unicode="&#x2070;" horiz-adv-x="373" 
d="M43 685q0 61 38 97t106 36q67 0 105 -36t38 -97v-146q0 -62 -38 -97.5t-105 -35.5q-68 0 -106 35.5t-38 97.5v146zM293 685q0 45 -28 71.5t-78 26.5q-51 0 -79 -26t-28 -72v-146q0 -46 28 -72t79 -26q50 0 78 26.5t28 71.5v146z" />
    <glyph glyph-name="foursuperior" unicode="&#x2074;" horiz-adv-x="353" 
d="M318 558q7 0 9 -2t2 -9v-10q0 -8 -2 -10t-9 -2h-51v-100q0 -7 -2 -9t-9 -2h-14q-10 0 -10 11v100h-201q-11 0 -11 12v9q0 9 4 14l198 242q6 8 18 8h15q7 0 9.5 -2t2.5 -10v-240h51zM232 558v205l-168 -205h168z" />
    <glyph glyph-name="fivesuperior" unicode="&#x2075;" horiz-adv-x="347" 
d="M291 810q9 0 9 -9v-15q0 -9 -9 -9h-193l-13 -124h88q71 0 106 -32t35 -89q0 -55 -34.5 -90.5t-101.5 -35.5q-117 0 -147 107q-4 13 6 17l12 3q11 4 16 -7q23 -86 112 -86q50 0 75.5 25.5t25.5 66.5q0 88 -106 88h-112q-14 0 -12 13l16 165q2 12 15 12h212z" />
    <glyph glyph-name="sixsuperior" unicode="&#x2076;" horiz-adv-x="372" 
d="M79 619q60 27 124 27q134 0 134 -118q0 -122 -150 -122q-145 0 -145 152v107q0 74 38 113.5t111 39.5q98 0 133 -74q4 -9 -4 -13l-15 -7q-9 -5 -14 3q-26 57 -100 57q-112 0 -112 -117v-48zM79 557q0 -117 108 -117q112 0 112 88q0 84 -100 84q-53 0 -120 -28v-27z" />
    <glyph glyph-name="sevensuperior" unicode="&#x2077;" horiz-adv-x="308" 
d="M283 810q7 0 9 -1.5t2 -7.5v-9q0 -5 -3 -14l-153 -356q-3 -8 -15 -8h-16q-14 0 -7 12l150 349h-217q-10 0 -10 10v15q0 7 2 8.5t8 1.5h250z" />
    <glyph glyph-name="eightsuperior" unicode="&#x2078;" horiz-adv-x="373" 
d="M47 709q0 52 37.5 80.5t102.5 28.5t101 -27.5t36 -74.5q0 -72 -75 -101q45 -12 66.5 -34t21.5 -61q0 -114 -150 -114q-72 0 -111.5 27t-39.5 77q0 74 85 105q-74 24 -74 94zM286 713q0 34 -26 54t-74 20t-74.5 -20.5t-26.5 -57.5q0 -36 26 -54t93 -28q82 22 82 86z
M298 519q0 37 -28.5 54t-102.5 27q-65 -17 -83 -51q-9 -16 -9 -35q0 -37 29 -57t83 -20q111 0 111 82z" />
    <glyph glyph-name="ninesuperior" unicode="&#x2079;" horiz-adv-x="372" 
d="M292 604q-62 -26 -124 -26q-133 0 -133 118q0 122 150 122q145 0 145 -152v-107q0 -74 -38 -113.5t-111 -39.5q-99 0 -134 74q-4 8 5 13l15 7q9 4 13 -3q28 -57 101 -57q111 0 111 117v47zM292 667q0 117 -107 117q-113 0 -113 -88q0 -84 101 -84q57 0 119 28v27z" />
    <glyph glyph-name="zeroinferior" unicode="&#x2080;" horiz-adv-x="373" 
d="M43 152q0 62 38 98t106 36q67 0 105 -36.5t38 -97.5v-146q0 -62 -38 -97.5t-105 -35.5q-68 0 -106 35.5t-38 97.5v146zM293 152q0 45 -28 71.5t-78 26.5q-51 0 -79 -26.5t-28 -71.5v-146q0 -46 28 -72t79 -26q50 0 78 26.5t28 71.5v146z" />
    <glyph glyph-name="oneinferior" unicode="&#x2081;" horiz-adv-x="279" 
d="M206 278q12 0 12 -13v-371q0 -13 -12 -13h-13q-12 0 -12 13v337l-137 -77q-12 -6 -18 5l-5 10q-5 10 5 17l156 87q8 5 16 5h8z" />
    <glyph glyph-name="twoinferior" unicode="&#x2082;" horiz-adv-x="351" 
d="M40 174l2 8q3 9 5.5 15.5t8.5 17.5t13 20t18 19t23.5 16.5t30.5 11t39 4.5q64 0 98.5 -33t34.5 -85q0 -28 -8.5 -47.5t-29.5 -33.5t-36 -20.5t-47 -17.5l-61 -22q-57 -20 -57 -79v-32h224q11 0 11 -12v-12q0 -11 -11 -11h-246q-14 0 -14 13v43q0 89 77 118l61 23
q4 2 18 7t18.5 7l16 7t15.5 8.5l11.5 10t10.5 13.5t5.5 16t2.5 20q0 37 -24.5 60t-70.5 23q-18 0 -33.5 -4.5t-25.5 -12t-18 -16.5t-12.5 -18.5t-7.5 -16.5t-4 -13l-2 -6q-5 -11 -16 -9l-12 4q-14 3 -8 16z" />
    <glyph glyph-name="threeinferior" unicode="&#x2083;" horiz-adv-x="360" 
d="M38 175q17 57 52.5 84t97.5 27q58 0 91 -31t33 -81q0 -65 -51 -89q62 -28 62 -100q0 -52 -34.5 -82t-101.5 -30q-63 0 -99 27t-52 81q-4 13 6 17l13 4q11 4 16 -9q13 -46 39 -66t77 -20q48 0 73.5 22t25.5 59q0 33 -19.5 55.5t-51.5 22.5h-71q-7 0 -9 2t-2 9v11
q0 8 2.5 10t9.5 2h68q32 0 47.5 20t15.5 51q0 37 -23.5 59t-64.5 22q-90 0 -115 -88q-6 -14 -19 -9l-9 3q-11 6 -7 17z" />
    <glyph glyph-name="fourinferior" unicode="&#x2084;" horiz-adv-x="352" 
d="M318 25q11 0 11 -10v-11q0 -7 -2 -9t-9 -2h-50v-101q0 -7 -2 -9t-9 -2h-15q-10 0 -10 11v101h-201q-11 0 -11 11v9q0 8 4 15l198 242q7 8 18 8h16q8 0 10 -2.5t2 -10.5v-240h50zM232 25v205l-168 -205h168z" />
    <glyph glyph-name="fiveinferior" unicode="&#x2085;" horiz-adv-x="348" 
d="M291 278q9 0 9 -10v-14q0 -10 -9 -10h-193l-13 -124h88q71 0 106 -32t35 -88q0 -55 -34.5 -91t-101.5 -36q-117 0 -147 107q-4 13 6 17l12 4q11 3 16 -8q23 -86 112 -86q50 0 75.5 26t25.5 66q0 88 -106 88h-112q-14 0 -12 13l16 165q3 13 15 13h212z" />
    <glyph glyph-name="sixinferior" unicode="&#x2086;" horiz-adv-x="372" 
d="M79 87q65 26 124 26q134 0 134 -118q0 -122 -150 -122q-145 0 -145 152v108q0 73 38 113t111 40q97 0 133 -75q5 -8 -4 -13l-15 -7q-9 -5 -14 3q-26 57 -100 57q-112 0 -112 -117v-47zM79 24q0 -116 108 -116q112 0 112 87q0 84 -100 84q-64 0 -120 -28v-27z" />
    <glyph glyph-name="seveninferior" unicode="&#x2087;" horiz-adv-x="308" 
d="M283 278q10 0 10 -10v-9q0 -8 -2 -13l-153 -357q-3 -8 -16 -8h-15q-13 0 -7 13l150 349h-218q-10 0 -10 9v15q0 11 10 11h251z" />
    <glyph glyph-name="eightinferior" unicode="&#x2088;" horiz-adv-x="373" 
d="M47 176q0 52 38 81t102 29q65 0 101 -27.5t36 -74.5q0 -74 -75 -101q45 -12 66.5 -34t21.5 -61q0 -115 -150 -115q-72 0 -111.5 27t-39.5 78q0 73 85 104q-74 25 -74 94zM286 180q0 35 -26 55t-74 20t-74.5 -20.5t-26.5 -58.5q0 -36 26 -53.5t93 -27.5q16 4 32 11t33 27
t17 47zM298 -13q0 37 -28 53.5t-103 26.5q-65 -17 -83 -51q-9 -16 -9 -35q0 -37 29.5 -57t82.5 -20q111 0 111 83z" />
    <glyph glyph-name="nineinferior" unicode="&#x2089;" horiz-adv-x="372" 
d="M292 72q-64 -27 -124 -27q-133 0 -133 118q0 123 150 123q145 0 145 -152v-108q0 -74 -38 -113.5t-111 -39.5q-99 0 -134 75q-4 7 5 12l15 8q9 3 13 -4q28 -56 101 -56q111 0 111 117v47zM292 134q0 117 -107 117q-113 0 -113 -88q0 -83 101 -83q68 0 119 28v26z" />
    <glyph glyph-name="Euro" unicode="&#x20ac;" horiz-adv-x="723" 
d="M149 484q0 113 70 177t200 64q181 0 243 -121q8 -15 -6 -21l-15 -7q-13 -6 -21 6q-49 100 -201 100q-107 0 -164.5 -52t-57.5 -144v-43h338q12 0 9 -11l-4 -14q-4 -11 -16 -11h-329v-114h296q12 0 8 -11l-4 -14q-3 -11 -16 -11h-282v-33q1 -92 58.5 -144t163.5 -52
q158 0 206 109q6 13 20 6l16 -7q14 -7 5 -21q-30 -65 -88.5 -97.5t-158.5 -32.5q-128 0 -197.5 62.5t-71.5 176.5v33h-108q-13 0 -9 12l4 13q3 11 15 11h98v114h-71q-13 0 -10 12l4 13q4 11 15 11h61v41z" />
    <glyph glyph-name="uni20BD" unicode="&#x20bd;" horiz-adv-x="640" 
d="M515 185q12 0 12 -13v-11q0 -12 -12 -12h-368v-136q0 -13 -12 -13h-21q-13 0 -13 13v136h-52q-12 0 -12 12v11q0 13 12 13h52v512q0 13 13 13h271q101 0 159.5 -55t58.5 -153q0 -97 -58.5 -151.5t-159.5 -54.5h-238v-111h368zM381 339q81 0 127.5 43t46.5 120
q0 78 -46.5 121.5t-127.5 43.5h-234v-328h234z" />
    <glyph glyph-name="uni2113" unicode="&#x2113;" horiz-adv-x="420" 
d="M127 567q0 86 37.5 125.5t95.5 39.5t93 -38t35 -112q0 -88 -58.5 -168t-162.5 -162v-90q0 -67 23 -98t80 -31q10 0 20 1.5t18.5 4.5t15.5 6t13 6.5t9.5 6l6.5 4.5l3 3q7 7 12 0l13 -16q7 -7 -1 -13q-6 -6 -17 -13.5t-38.5 -18t-56.5 -10.5q-75 0 -107.5 39t-32.5 119v70
l-76 -55q-8 -7 -14 3l-10 16q-6 9 2 15q66 46 97 70v296zM348 582q0 58 -24.5 85.5t-64.5 27.5q-92 0 -92 -128v-262q181 148 181 277z" />
    <glyph glyph-name="uni2116" unicode="&#x2116;" horiz-adv-x="1036" 
d="M980 504q0 -68 -39.5 -106.5t-114.5 -38.5t-115 38.5t-40 106.5v74q0 69 40 108t115 39t114.5 -39t39.5 -108v-74zM582 710q13 0 13 -13v-684q0 -13 -13 -13h-20q-9 0 -15 8l-355 506q-16 24 -43 70t-37 60h-2q0 -16 3 -73t3 -92v-466q0 -13 -13 -13h-20q-12 0 -12 13
v684q0 13 12 13h21q8 0 13 -7l346 -493q20 -29 50 -78.5t41 -64.5h3q0 19 -3.5 80.5t-3.5 99.5v451q0 12 12 12h20zM709 506q0 -53 30 -82t87 -29t87 29t30 82v71q0 53 -30.5 82.5t-86.5 29.5t-86.5 -29.5t-30.5 -82.5v-71zM969 289q13 0 13 -13v-14q0 -13 -13 -13h-286
q-13 0 -13 13v14q0 13 13 13h286z" />
    <glyph glyph-name="uni2117" unicode="&#x2117;" horiz-adv-x="813" 
d="M47 351q0 150 104.5 254.5t255.5 104.5q150 0 254 -104.5t104 -254.5q0 -151 -104 -255t-254 -104t-255 105t-105 254zM81 351q0 -138 94 -232.5t232 -94.5q137 0 231 94.5t94 232.5q0 139 -94 232.5t-231 93.5q-138 0 -232 -93.5t-94 -232.5zM435 544q64 0 102 -37.5
t38 -101.5q0 -63 -38 -99.5t-102 -36.5h-120v-110q0 -10 -9 -10h-13q-10 0 -10 10v374q0 7 2 9t9 2h141zM433 299q51 0 80.5 28.5t29.5 77.5q0 51 -29.5 79.5t-80.5 28.5h-118v-214h118z" />
    <glyph glyph-name="trademark" unicode="&#x2122;" horiz-adv-x="627" 
d="M261 695q6 0 7.5 -1.5t1.5 -8.5v-8q0 -6 -1.5 -7.5t-7.5 -1.5h-89v-216q0 -9 -11 -9h-7q-10 0 -10 9v216h-91q-6 0 -7 1.5t-1 7.5v8q0 7 1 8.5t7 1.5h208zM544 695q5 0 7 -1.5t2 -7.5v-234q0 -9 -9 -9h-9q-10 0 -10 9v137q0 8 0.5 25.5t0.5 26.5q-5 -7 -13 -20t-9 -15
l-65 -98q-5 -6 -12 -6h-4q-7 0 -11 5l-88 132q1 -17 1 -50v-137q0 -9 -9 -9h-9q-7 0 -8.5 1.5t-1.5 7.5v233q0 7 2 8.5t8 1.5h6q7 0 11 -6l101 -154l101 153q5 7 11 7h7z" />
    <glyph glyph-name="Omega" unicode="&#x2126;" horiz-adv-x="742" 
d="M57 379q0 152 88 248.5t226 96.5t226.5 -96.5t88.5 -247.5q0 -112 -49.5 -198t-134.5 -138h181q13 0 13 -12v-19q0 -13 -13 -13h-245q-10 0 -10 11v15q0 9 8 13q95 49 150 135t55 199q0 135 -74 221.5t-196 86.5q-121 0 -195 -86.5t-74 -220.5q0 -224 203 -335
q9 -4 9 -13v-15q0 -11 -10 -11h-245q-13 0 -13 13v19q0 12 13 12h181q-88 55 -135.5 140.5t-47.5 194.5z" />
    <glyph glyph-name="estimated" unicode="&#x212e;" horiz-adv-x="824" 
d="M787 339q0 -15 -16 -15h-550v-214q90 -69 196 -69q88 0 165 47.5t118 131.5q7 12 24 12h26q9 0 11.5 -2.5t-0.5 -11.5q-41 -103 -134 -168t-210 -65q-153 0 -261.5 108.5t-108.5 261.5t108.5 261.5t261.5 108.5t261.5 -108.5t108.5 -261.5v-16zM613 604q-85 69 -196 69
q-107 0 -196 -68v-226h392v225z" />
    <glyph glyph-name="uni2153" unicode="&#x2153;" horiz-adv-x="861" 
d="M218 717q12 0 12 -13v-371q0 -13 -12 -13h-13q-12 0 -12 13v337l-137 -76q-13 -6 -18 4l-5 10q-5 11 5 17l156 88q7 4 16 4h8zM676 710q15 0 7 -13l-504 -685q-10 -12 -26 -12h-16q-16 0 -6 13l504 685q8 12 23 12h18zM535 294q17 57 53 84t98 27q58 0 91 -31t33 -81
q0 -65 -51 -89q62 -28 62 -100q0 -52 -34.5 -82t-101.5 -30q-63 0 -99 27t-52 81q-4 13 6 17l13 4q11 4 15 -9q14 -46 40 -66t77 -20q48 0 73.5 22t25.5 59q0 33 -19.5 55.5t-51.5 22.5h-71q-7 0 -9 2t-2 9v11q0 7 2.5 9.5t9.5 2.5h68q31 0 47 20t16 51q0 37 -23.5 59
t-64.5 22q-48 0 -75 -21.5t-40 -66.5q-6 -14 -19 -9l-9 3q-11 6 -8 17z" />
    <glyph glyph-name="uni2154" unicode="&#x2154;" horiz-adv-x="869" 
d="M50 614q0 1 2 6.5t3.5 10.5t5.5 13.5t8 15t10.5 15.5t14 15.5t17.5 13.5t21.5 11.5t26.5 7.5t31 3q64 0 98.5 -32.5t34.5 -84.5q0 -28 -9 -48t-29 -33.5t-36 -20.5t-46 -17l-61 -22q-58 -21 -58 -79v-33h224q12 0 12 -11v-12q0 -11 -12 -11h-246q-14 0 -14 13v43
q0 88 78 118l61 23q4 2 18 7t18.5 7l16 7t15.5 8.5l11.5 10t10.5 13t5.5 15.5t2.5 20q0 37 -24.5 60.5t-70.5 23.5q-18 0 -33.5 -4.5t-26 -12t-18.5 -16.5t-12.5 -18.5t-7.5 -16.5t-4 -13l-2 -6q-4 -13 -15 -9l-13 4q-12 3 -8 15zM713 710q15 0 7 -13l-504 -685
q-10 -12 -26 -12h-16q-16 0 -6 13l504 685q8 12 24 12h17zM544 294q17 57 53 84t98 27q58 0 91 -31t33 -81q0 -64 -51 -89q62 -28 62 -100q0 -52 -34.5 -82t-101.5 -30q-63 0 -99 27t-53 81q-4 13 6 17l13 4q12 4 16 -9q14 -46 40 -66t77 -20q48 0 73.5 22t25.5 59
q0 33 -19.5 55.5t-51.5 22.5h-71q-7 0 -9 2t-2 9v11q0 8 2 10t10 2h67q32 0 48 20t16 51q0 37 -23.5 59t-64.5 22q-48 0 -75 -21.5t-40 -66.5q-6 -14 -19 -9l-10 3q-10 6 -7 17z" />
    <glyph glyph-name="oneeighth" unicode="&#x215b;" horiz-adv-x="850" 
d="M219 718q12 0 12 -12v-372q0 -12 -12 -12h-13q-13 0 -13 12v337l-137 -76q-11 -6 -17 4l-5 10q-6 11 5 17l156 88q7 4 16 4h8zM665 710q16 0 6 -13l-503 -685q-10 -12 -27 -12h-15q-16 0 -6 13l504 685q8 12 23 12h18zM522 295q0 52 38 81t102 29q65 0 101 -27.5
t36 -74.5q0 -74 -75 -101q45 -12 66.5 -34t21.5 -61q0 -115 -150 -115q-72 0 -111.5 27t-39.5 78q0 72 85 104q-74 25 -74 94zM762 299q0 34 -26 54.5t-75 20.5q-48 0 -74.5 -20.5t-26.5 -58.5q0 -36 26 -53.5t93 -27.5q11 3 22.5 7.5t26.5 14t24.5 26t9.5 37.5zM773 106
q0 37 -28 53.5t-103 26.5q-65 -17 -83 -51q-9 -16 -9 -35q0 -37 29.5 -57t82.5 -20q111 0 111 83z" />
    <glyph glyph-name="threeeighths" unicode="&#x215c;" horiz-adv-x="882" 
d="M44 616q17 57 53 83.5t98 26.5q58 0 91 -30.5t33 -80.5q0 -64 -51 -89q62 -28 62 -101q0 -51 -35 -81t-101 -30q-63 0 -99 27t-52 81q-4 14 6 16l13 5q11 3 15 -9q14 -46 40 -66t77 -20q48 0 73.5 22t25.5 59q0 33 -19.5 55t-51.5 22h-71q-7 0 -9 2.5t-2 9.5v10q0 8 2 10
t10 2h68q31 0 47 20.5t16 51.5q0 37 -23.5 58.5t-64.5 21.5q-48 0 -75 -21t-40 -66q-5 -14 -19 -9l-9 3q-12 4 -8 17zM704 710q16 0 6 -13l-503 -685q-9 -12 -26 -12h-16q-16 0 -6 13l504 685q8 12 23 12h18zM556 295q0 52 37.5 81t101.5 29q65 0 101 -27.5t36 -74.5
q0 -74 -75 -101q45 -12 66.5 -34t21.5 -61q0 -115 -150 -115q-72 0 -111.5 27t-39.5 78q0 72 85 104q-73 25 -73 94zM795 299q0 34 -26 54.5t-74 20.5t-75 -20.5t-27 -58.5q0 -36 26 -53.5t94 -27.5q11 3 22 7.5t26 14t24.5 26t9.5 37.5zM806 106q0 37 -28 53.5t-103 26.5
q-91 -24 -91 -86q0 -37 29 -57t82 -20q111 0 111 83z" />
    <glyph glyph-name="fiveeighths" unicode="&#x215d;" horiz-adv-x="863" 
d="M296 718q10 0 10 -10v-14q0 -10 -10 -10h-193l-12 -124h88q71 0 106 -32t35 -88q0 -55 -34.5 -91t-102.5 -36q-117 0 -146 108q-6 13 6 16l11 4q12 4 16 -7q25 -87 112 -87q51 0 76.5 26t25.5 67q0 88 -106 88h-112q-13 0 -12 13l16 164q1 13 15 13h211zM683 710
q17 0 7 -13l-504 -685q-8 -12 -26 -12h-15q-15 0 -7 13l505 685q8 12 23 12h17zM537 295q0 52 37.5 81t102.5 29t101 -27.5t36 -74.5q0 -74 -75 -101q45 -12 66.5 -34t21.5 -61q0 -115 -150 -115q-72 0 -111.5 27t-39.5 78q0 73 85 104q-74 25 -74 94zM776 299q0 35 -26 55
t-74 20t-74.5 -20.5t-26.5 -58.5q0 -36 26 -53.5t93 -27.5q16 4 32 11t33 27t17 47zM787 106q0 37 -27.5 53.5t-102.5 26.5q-65 -17 -83 -51q-9 -16 -9 -35q0 -37 29.5 -57t82.5 -20q110 0 110 83z" />
    <glyph glyph-name="seveneighths" unicode="&#x215e;" horiz-adv-x="836" 
d="M293 718q10 0 10 -9v-9q0 -9 -2 -14l-153 -357q-4 -7 -16 -7h-15q-8 0 -9.5 2t2.5 10l150 349h-218q-10 0 -10 10v15q0 10 10 10h251zM629 710q17 0 7 -13l-504 -685q-6 -8 -10 -10t-16 -2h-15q-15 0 -7 13l505 685q8 12 23 12h17zM509 295q0 52 37.5 81t101.5 29
q65 0 101 -27.5t36 -74.5q0 -75 -75 -101q45 -12 66.5 -34t21.5 -61q0 -115 -150 -115q-72 0 -111 27t-39 78q0 73 84 104q-73 25 -73 94zM748 299q0 35 -26 55t-74 20t-75 -20.5t-27 -58.5q0 -36 26 -53.5t94 -27.5q11 3 22 7.5t26 14t24.5 26t9.5 37.5zM759 106
q0 37 -27.5 53.5t-102.5 26.5q-92 -23 -92 -86q0 -37 29 -57t83 -20q110 0 110 83z" />
    <glyph glyph-name="arrowleft" unicode="&#x2190;" horiz-adv-x="745" 
d="M690 352q10 0 10 -11v-15q0 -10 -10 -10h-597l212 -213q7 -7 0 -15l-11 -12q-8 -7 -16 1l-246 246q-11 11 0 22l246 246q8 8 16 1l11 -12q7 -8 0 -15l-212 -213h597z" />
    <glyph glyph-name="arrowup" unicode="&#x2191;" horiz-adv-x="745" 
d="M629 418q8 -8 1 -15l-12 -11q-8 -8 -15 0l-212 211v-596q0 -11 -11 -11h-16q-10 0 -10 11v596l-213 -212q-7 -7 -15 0l-12 12q-7 7 1 15l246 246q11 11 22 0z" />
    <glyph glyph-name="arrowright" unicode="&#x2192;" horiz-adv-x="745" 
d="M713 345q11 -11 0 -22l-246 -246q-8 -8 -16 -1l-11 12q-8 8 0 15l212 213h-597q-10 0 -10 10v15q0 11 10 11h597l-212 213q-8 7 0 15l11 12q8 7 16 -1z" />
    <glyph glyph-name="arrowdown" unicode="&#x2193;" horiz-adv-x="745" 
d="M380 669q11 0 11 -10v-597l212 212q7 8 15 0l12 -11q7 -8 -1 -16l-246 -246q-11 -11 -22 0l-246 246q-8 8 -1 16l12 11q8 8 15 0l213 -212v597q0 10 10 10h16z" />
    <glyph glyph-name="uni2196" unicode="&#x2196;" horiz-adv-x="745" 
d="M587 575q15 0 15 -15v-348q0 -11 -10 -11h-16q-10 0 -10 11v299l-422 -422q-8 -7 -16 0l-11 11q-7 7 0 16l422 422h-300q-11 0 -11 11v16q0 10 11 10h348z" />
    <glyph glyph-name="uni2197" unicode="&#x2197;" horiz-adv-x="745" 
d="M506 575q11 0 11 -10v-16q0 -11 -11 -11h-300l422 -422q7 -9 0 -16l-11 -11q-8 -7 -16 0l-422 422v-299q0 -11 -10 -11h-16q-10 0 -10 11v348q0 15 15 15h348z" />
    <glyph glyph-name="uni2198" unicode="&#x2198;" horiz-adv-x="745" 
d="M130 569q7 8 15 0l422 -422v300q0 11 10 11h16q11 0 11 -11v-348q0 -15 -15 -15h-348q-11 0 -11 10v16q0 11 10 11h301l-423 422q-8 7 0 15z" />
    <glyph glyph-name="uni2199" unicode="&#x2199;" horiz-adv-x="745" 
d="M600 569q8 8 15 0l12 -11q7 -8 0 -15l-423 -422h301q10 0 10 -11v-16q0 -10 -11 -10h-348q-15 0 -15 15v348q0 11 11 11h16q10 0 10 -11v-300z" />
    <glyph glyph-name="partialdiff" unicode="&#x2202;" horiz-adv-x="550" 
d="M131 729q0 12 12 12q184 0 263 -83t79 -257v-226q0 -90 -55.5 -140t-160.5 -50q-106 0 -161.5 50t-55.5 140v140q0 89 54.5 139.5t155.5 50.5q140 0 181 -91q-2 147 -70.5 217t-228.5 70q-12 0 -13 12v16zM442 316q0 71 -44.5 110.5t-128.5 39.5q-85 0 -129.5 -39.5
t-44.5 -111.5v-140q0 -72 44.5 -111.5t129.5 -39.5q84 0 128.5 40t44.5 111v141z" />
    <glyph glyph-name="Delta" unicode="&#x2206;" horiz-adv-x="608" 
d="M315 710q13 0 17 -10l241 -647q7 -18 7 -25v-15q0 -13 -13 -13h-526q-12 0 -12 13v15q0 9 6 25l241 647q4 10 17 10h22zM370 475l-34 101.5t-30 89.5h-3q-9 -24 -30 -89t-35 -102l-160 -435h452z" />
    <glyph glyph-name="product" unicode="&#x220f;" horiz-adv-x="657" 
d="M612 710q12 0 12 -13v-18q0 -12 -12 -12h-67v-754q0 -13 -12 -13h-22q-12 0 -12 13v754h-339v-754q0 -13 -12 -13h-21q-13 0 -13 13v754h-69q-12 0 -12 12v18q0 13 12 13h567z" />
    <glyph glyph-name="summation" unicode="&#x2211;" horiz-adv-x="565" 
d="M301 324q10 -14 0 -28l-209 -353h413q12 0 12 -12v-18q0 -13 -12 -13h-458q-12 0 -12 13v17q0 8 4 13l219 367l-216 355q-5 6 -5 15v17q0 13 13 13h451q12 0 12 -13v-18q0 -12 -12 -12h-408z" />
    <glyph glyph-name="minus" unicode="&#x2212;" horiz-adv-x="602" 
d="M525 346q12 0 12 -12v-17q0 -13 -12 -13h-447q-13 0 -13 13v17q0 12 13 12h447z" />
    <glyph glyph-name="uni2215" unicode="&#x2215;" horiz-adv-x="564" 
d="M509 698q5 8 9.5 10t15.5 2h17q16 0 6 -14l-503 -684q-8 -12 -27 -12h-15q-16 0 -6 14z" />
    <glyph glyph-name="uni2219" unicode="&#x2219;" horiz-adv-x="187" 
d="M96 248q16 0 21.5 -5.5t5.5 -21.5v-6q0 -15 -5.5 -21t-21.5 -6h-5q-16 0 -21.5 5.5t-5.5 21.5v6q0 16 5.5 21.5t21.5 5.5h5z" />
    <glyph glyph-name="radical" unicode="&#x221a;" horiz-adv-x="672" 
d="M655 750q12 0 9 -12l-254 -834q-3 -10 -16 -10h-20q-12 0 -15 10l-172 494h-145q-12 0 -12 13v16q0 13 12 13h159q13 0 17.5 -2.5t6.5 -9.5l122 -358q9 -26 20.5 -70t15.5 -57h3q4 14 15 58.5t18 69.5l198 669q3 10 21 10h17z" />
    <glyph glyph-name="infinity" unicode="&#x221e;" horiz-adv-x="720" 
d="M361 320q20 43 59 79t97 36q65 0 106.5 -42.5t41.5 -108.5q0 -64 -42.5 -106t-103.5 -42q-60 0 -99 34t-60 77q-20 -41 -59.5 -76t-100.5 -35t-103 42t-42 105q0 67 42.5 109.5t107.5 42.5q99 0 156 -115zM338 285q-1 1 -6.5 12.5t-11.5 22.5t-18 25.5t-25 25.5
t-32.5 18.5t-40.5 7.5q-48 0 -79 -32t-31 -81q0 -47 30.5 -78.5t76.5 -31.5q19 0 36.5 5t30.5 14.5t24 19.5t19 23l13 21t10 18zM627 284q0 49 -31 81t-79 32q-22 0 -41.5 -7.5t-32.5 -18.5t-25 -26t-18 -25.5t-12 -22.5l-6 -12q1 -1 5.5 -11t9.5 -18l13.5 -21t19 -22.5
t24 -19t30.5 -14.5t36 -5q45 0 76 32t31 78z" />
    <glyph glyph-name="integral" unicode="&#x222b;" horiz-adv-x="359" 
d="M157 561q0 91 42 135t141 44q12 0 12 -12v-17q0 -11 -12 -11q-77 0 -108 -34t-31 -106v-601q0 -91 -42 -135t-140 -44q-12 0 -12 12v17q0 11 12 11q77 0 107.5 34t30.5 106v601z" />
    <glyph glyph-name="approxequal" unicode="&#x2248;" horiz-adv-x="564" 
d="M71 416q52 49 115 50q40 0 97.5 -22.5t90.5 -22.5q49 1 91 40q9 8 17 0l13 -13q10 -8 0 -18q-52 -48 -115 -49q-41 -1 -98 21.5t-90 22.5q-47 0 -92 -40q-8 -7 -17 1l-12 12q-10 9 0 18zM71 233q56 49 115 49q40 1 97.5 -21.5t90.5 -22.5q49 0 92 40q9 7 17 -1l13 -12
q10 -10 0 -18q-54 -49 -115 -49q-40 -1 -97.5 21.5t-91.5 22.5q-48 0 -91 -40q-9 -8 -17 1l-13 12q-10 10 0 18z" />
    <glyph glyph-name="notequal" unicode="&#x2260;" horiz-adv-x="620" 
d="M533 249q13 0 13 -13v-16q0 -13 -13 -13h-271l-69 -134q-2 -4 -10 -4h-18q-5 0 -2 5l67 133h-144q-12 0 -12 13v16q0 13 12 13h166l79 156h-245q-12 0 -12 12v17q0 13 12 13h267l68 132q2 4 9 4h19q5 0 2 -5l-67 -131h149q13 0 13 -13v-17q0 -12 -13 -12h-170l-80 -156
h250z" />
    <glyph glyph-name="lessequal" unicode="&#x2264;" horiz-adv-x="578" 
d="M488 593q0 -16 -12 -21l-338 -149v-2l338 -150q12 -5 12 -22v-17q0 -16 -13 -9l-383 176q-11 5 -11 16v12q0 12 11 16l383 175q13 6 13 -9v-16zM475 131q8 0 10.5 -2.5t2.5 -10.5v-16q0 -12 -13 -12h-380q-14 0 -14 13v15q0 13 14 13h380z" />
    <glyph glyph-name="greaterequal" unicode="&#x2265;" horiz-adv-x="578" 
d="M90 609q0 15 14 9l382 -175q11 -4 11 -16v-12q0 -11 -11 -16l-382 -176q-14 -6 -14 9v17q0 17 12 22l338 150v2l-338 149q-12 5 -12 21v16zM484 131q13 0 13 -13v-15q0 -13 -13 -13h-381q-13 0 -13 12v16q0 8 2.5 10.5t10.5 2.5h381z" />
    <glyph glyph-name="lozenge" unicode="&#x25ca;" horiz-adv-x="515" 
d="M264 710q11 0 17 -10l197 -334q7 -11 0 -22l-198 -334q-6 -10 -17 -10h-12q-10 0 -16 10l-198 334q-7 11 0 22l197 333q7 11 17 11h13zM256 52h3l177 303l-177 304h-2l-177 -304z" />
    <glyph glyph-name="zero.denom" horiz-adv-x="373" 
d="M43 271q0 62 38 98t106 36q67 0 105 -36.5t38 -97.5v-146q0 -62 -38 -97.5t-105 -35.5q-68 0 -106 35.5t-38 97.5v146zM293 271q0 45 -28 71.5t-78 26.5q-51 0 -79 -26.5t-28 -71.5v-146q0 -46 28 -72t79 -26q50 0 78 26.5t28 71.5v146z" />
    <glyph glyph-name="one.denom" horiz-adv-x="279" 
d="M206 397q12 0 12 -13v-371q0 -13 -12 -13h-13q-12 0 -12 13v337l-137 -77q-12 -6 -18 5l-5 10q-5 10 5 17l156 87q8 5 16 5h8z" />
    <glyph glyph-name="two.denom" horiz-adv-x="351" 
d="M40 293l3 9l5.5 14.5t8.5 17.5t12.5 20t18 19t24 16.5t30.5 11t39 4.5q63 0 97.5 -33t34.5 -85q0 -28 -8.5 -47.5t-29 -33.5t-35.5 -20.5t-47 -17.5l-61 -22q-57 -20 -57 -79v-32h223q12 0 12 -12v-12q0 -11 -12 -11h-246q-13 0 -13 13v43q0 89 77 118l61 23q4 2 18 7
t18.5 7l16 7t15.5 8.5l11.5 10t10.5 13.5t5.5 16t2.5 20q0 37 -24.5 60t-70.5 23q-29 0 -51 -11.5t-32 -28.5t-14 -27.5t-6 -18.5v-1q-5 -11 -16 -9l-13 4q-12 3 -8 16z" />
    <glyph glyph-name="three.denom" horiz-adv-x="360" 
d="M38 294q17 57 52.5 84t97.5 27q58 0 91 -31t33 -81q0 -65 -51 -89q62 -28 62 -100q0 -52 -34.5 -82t-101.5 -30q-63 0 -99 27t-52 81q-4 13 6 17l13 4q11 4 16 -9q13 -46 39 -66t77 -20q48 0 73.5 22t25.5 59q0 33 -19.5 55.5t-51.5 22.5h-71q-7 0 -9 2t-2 9v11
q0 7 2.5 9.5t9.5 2.5h68q32 0 47.5 20t15.5 51q0 37 -23.5 59t-64.5 22q-90 0 -115 -88q-6 -14 -19 -9l-9 3q-11 6 -7 17z" />
    <glyph glyph-name="four.denom" horiz-adv-x="353" 
d="M319 144q11 0 11 -10v-11q0 -7 -2 -9t-9 -2h-51v-101q0 -7 -2 -9t-9 -2h-15q-10 0 -10 11v101h-201q-11 0 -11 11v9q0 8 4 15l198 242q7 8 18 8h16q8 0 10 -2.5t2 -10.5v-240h51zM232 144v205l-168 -205h168z" />
    <glyph glyph-name="five.denom" horiz-adv-x="348" 
d="M291 397q9 0 9 -10v-14q0 -10 -9 -10h-193l-13 -124h88q71 0 106 -32t35 -88q0 -55 -34.5 -91t-101.5 -36q-117 0 -147 107q-4 13 6 17l12 4q11 3 16 -8q23 -86 112 -86q50 0 75.5 26t25.5 66q0 88 -106 88h-112q-14 0 -12 13l16 165q3 13 15 13h212z" />
    <glyph glyph-name="six.denom" horiz-adv-x="371" 
d="M79 206q65 26 124 26q134 0 134 -118q0 -122 -150 -122q-145 0 -145 152v108q0 73 38 113t111 40q97 0 133 -75q5 -8 -4 -13l-15 -7q-9 -5 -14 3q-26 57 -100 57q-112 0 -112 -117v-47zM79 143q0 -116 108 -116q112 0 112 87q0 84 -100 84q-64 0 -120 -28v-27z" />
    <glyph glyph-name="seven.denom" horiz-adv-x="307" 
d="M282 397q10 0 10 -10v-9q0 -8 -3 -13l-153 -357q-3 -8 -15 -8h-15q-13 0 -8 13l151 349h-218q-10 0 -10 9v15q0 11 10 11h251z" />
    <glyph glyph-name="eight.denom" horiz-adv-x="373" 
d="M47 295q0 52 38 81t102 29q65 0 101 -27.5t36 -74.5q0 -74 -75 -101q45 -12 66.5 -34t21.5 -61q0 -115 -150 -115q-72 0 -111.5 27t-39.5 78q0 73 85 104q-74 25 -74 94zM286 299q0 35 -26 55t-74 20t-74.5 -20.5t-26.5 -58.5q0 -36 26 -53.5t93 -27.5q16 4 32 11t33 27
t17 47zM298 106q0 37 -28 53.5t-103 26.5q-65 -17 -83 -51q-9 -16 -9 -35q0 -37 29.5 -57t82.5 -20q111 0 111 83z" />
    <glyph glyph-name="nine.denom" horiz-adv-x="372" 
d="M292 191q-64 -27 -124 -27q-133 0 -133 118q0 123 150 123q145 0 145 -152v-108q0 -74 -38 -113.5t-111 -39.5q-99 0 -134 75q-4 7 5 12l15 8q9 3 13 -4q28 -56 101 -56q111 0 111 117v47zM292 253q0 117 -107 117q-113 0 -113 -88q0 -83 101 -83q68 0 119 28v26z" />
    <glyph glyph-name="zero.num" horiz-adv-x="373" 
d="M43 593q0 61 38 97t106 36q67 0 105 -36t38 -97v-146q0 -62 -38 -97.5t-105 -35.5q-68 0 -106 35.5t-38 97.5v146zM293 593q0 45 -28 71t-78 26q-51 0 -79 -26t-28 -71v-146q0 -46 28 -72t79 -26q50 0 78 26t28 72v146z" />
    <glyph glyph-name="one.num" horiz-adv-x="279" 
d="M206 718q12 0 12 -12v-372q0 -12 -12 -12h-13q-12 0 -12 12v337l-137 -76q-12 -6 -18 4l-5 10q-5 11 5 17l156 88q7 4 16 4h8z" />
    <glyph glyph-name="two.num" horiz-adv-x="351" 
d="M40 614l2 8q2 7 4.5 12t6.5 15t10 17.5l13.5 17t18 16.5t22.5 13.5t28.5 9.5t34.5 3q64 0 98.5 -32.5t34.5 -84.5q0 -28 -9 -48t-29 -33.5t-36 -20.5t-47 -17l-61 -22q-57 -22 -57 -79v-33h224q11 0 11 -11v-12q0 -11 -11 -11h-246q-14 0 -14 13v43q0 89 77 118l61 23
q4 2 18 7t18.5 7l16 7t15.5 8.5l11.5 10t10.5 13t5.5 15.5t2.5 20q0 38 -24.5 61t-70.5 23q-18 0 -33.5 -4.5t-25.5 -12t-18 -16.5t-12.5 -18.5t-7.5 -16.5t-4 -13l-2 -6q-5 -13 -16 -9l-12 4q-14 3 -8 15z" />
    <glyph glyph-name="three.num" horiz-adv-x="361" 
d="M38 616q17 57 53 83.5t98 26.5q58 0 91 -30.5t33 -81.5q0 -63 -51 -88q62 -28 62 -101q0 -51 -35 -81t-101 -30q-63 0 -99 27t-52 81q-5 13 6 16l13 4q11 4 15 -8q14 -46 40 -66t77 -20q48 0 73.5 22t25.5 59q0 33 -19.5 55t-51.5 22h-71q-7 0 -9 2.5t-2 9.5v10q0 8 2 10
t10 2h68q31 0 47 20.5t16 50.5q0 37 -23.5 59t-64.5 22q-48 0 -75 -21t-40 -66q-5 -14 -19 -10l-9 4q-12 4 -8 17z" />
    <glyph glyph-name="four.num" horiz-adv-x="355" 
d="M320 466q11 0 11 -11v-11q0 -7 -2 -9t-9 -2h-52v-101q0 -10 -11 -10h-15q-10 0 -10 10v101h-201q-11 0 -11 12v8q0 8 4 15l198 242q7 8 18 8h16q8 0 10 -2t2 -10v-240h52zM232 466v205l-168 -205h168z" />
    <glyph glyph-name="five.num" horiz-adv-x="348" 
d="M291 718q9 0 9 -9v-15q0 -9 -9 -9h-193l-13 -125h88q71 0 106 -31.5t35 -88.5q0 -55 -34.5 -90.5t-101.5 -35.5q-118 0 -147 107q-4 13 6 17l12 3q8 2 10.5 1t5.5 -8q23 -86 112 -86q50 0 75.5 25.5t25.5 66.5q0 88 -106 88h-112q-14 0 -12 13l16 165q3 12 15 12h212z
" />
    <glyph glyph-name="six.num" horiz-adv-x="372" 
d="M79 527q68 27 124 27q134 0 134 -118q0 -122 -150 -122q-145 0 -145 151v108q0 74 38 113.5t111 39.5q98 0 133 -75q5 -8 -4 -12l-15 -8q-9 -4 -14 4q-26 57 -100 57q-112 0 -112 -118v-47zM79 465q0 -117 108 -117q112 0 112 88q0 83 -100 83q-64 0 -120 -28v-26z" />
    <glyph glyph-name="seven.num" horiz-adv-x="307" 
d="M283 718q10 0 10 -9v-9q0 -6 -3 -14l-153 -357q-3 -7 -15 -7h-16q-12 0 -7 12l151 349h-218q-10 0 -10 10v15q0 10 10 10h251z" />
    <glyph glyph-name="eight.num" horiz-adv-x="373" 
d="M47 617q0 52 37.5 80.5t102.5 28.5t101 -27.5t36 -74.5q0 -72 -75 -101q45 -12 66.5 -34t21.5 -61q0 -114 -150 -114q-73 0 -112 26.5t-39 77.5q0 76 85 104q-74 25 -74 95zM286 621q0 34 -26 54t-74 20t-74.5 -20.5t-26.5 -57.5t26 -54.5t93 -27.5q82 22 82 86zM298 427
q0 37 -28.5 54t-102.5 27l-9 -2q-10 -3 -16 -5.5t-17 -7.5t-18.5 -11t-15.5 -14.5t-12 -20t-4 -25.5q0 -37 29 -57t83 -20q111 0 111 82z" />
    <glyph glyph-name="nine.num" horiz-adv-x="372" 
d="M292 512q-62 -26 -124 -26q-133 0 -133 118q0 122 150 122q145 0 145 -152v-108q0 -73 -38 -112.5t-111 -39.5q-99 0 -134 74q-5 8 5 13l15 7q9 4 13 -3q28 -57 101 -57q111 0 111 117v47zM292 575q0 117 -107 117q-113 0 -113 -88q0 -84 101 -84q68 0 119 28v27z" />
    <glyph glyph-name="CR" horiz-adv-x="322" 
 />
    <glyph glyph-name="acute.case" horiz-adv-x="257" 
d="M201 895q15 7 23 -2l9 -11q9 -10 -2 -15l-177 -102q-12 -4 -16 1l-7 8q-8 9 1 14z" />
    <glyph glyph-name="breve.case" horiz-adv-x="287" 
d="M288 876q-31 -112 -150 -112q-118 0 -150 112q-3 8 6 11l16 6q9 3 12 -5q25 -90 116 -90t116 90q3 8 11 5l18 -6q8 -3 5 -11z" />
    <glyph glyph-name="caron.case" horiz-adv-x="332" 
d="M319 898q15 0 6 -11l-132 -111q-13 -12 -24 -12h-5q-12 0 -24 12l-133 111q-4 3 -3 7t8 4h19q11 0 19 -7l116 -95l114 95q7 7 21 7h18z" />
    <glyph glyph-name="cedilla.case" horiz-adv-x="251" 
d="M117 -82q12 4 32 4q40 0 63.5 -20.5t22.5 -54.5q-1 -45 -31.5 -69t-80.5 -24q-47 0 -84 22q-9 5 -9 16v13q0 3 2 5t5 -1q34 -26 82 -26q37 0 57.5 17.5t20.5 48.5q0 49 -68 49q-21 0 -38 -6q-7 -2 -9.5 2t0.5 12l36 94h28z" />
    <glyph glyph-name="circumflex.case" horiz-adv-x="370" 
d="M187 897q12 0 24 -11l132 -112q10 -10 -6 -10h-18q-14 0 -21 7l-114 95l-116 -95q-8 -7 -19 -7h-19q-16 0 -6 10l134 112q11 11 24 11h5z" />
    <glyph glyph-name="dieresis.case" horiz-adv-x="439" 
d="M124 853q13 0 17.5 -5t4.5 -18v-7q0 -13 -4.5 -17.5t-17.5 -4.5h-7q-13 0 -17.5 4.5t-4.5 17.5v7q0 13 4.5 18t17.5 5h7zM314 853q24 0 24 -23v-7q0 -22 -24 -22h-5q-14 0 -19 4.5t-5 17.5v7q0 13 5 18t19 5h5z" />
    <glyph glyph-name="dotaccent.case" horiz-adv-x="216" 
d="M110 849q14 0 19 -5t5 -19v-5q0 -13 -5 -18t-19 -5h-4q-14 0 -19 4.5t-5 18.5v5q0 14 5 19t19 5h4z" />
    <glyph glyph-name="grave.case" horiz-adv-x="257" 
d="M35 886q8 9 22 2l173 -102q8 -6 1 -14l-7 -8q-5 -6 -16 -1l-180 98q-12 4 -2 14z" />
    <glyph glyph-name="hungarumlaut.case" horiz-adv-x="395" 
d="M159 891q9 10 20 8l16 -4q12 -4 4 -14l-113 -113q-8 -8 -15 -5l-9 3q-10 3 -4 12zM334 891q9 10 20 8l16 -4q14 -4 4 -14l-115 -114q-9 -9 -15 -5l-9 3q-11 3 -4 12z" />
    <glyph glyph-name="macron.case" horiz-adv-x="352" 
d="M293 839q7 0 9 -2t2 -9v-10q0 -12 -11 -12h-238q-11 0 -11 12v10q0 11 11 11h238z" />
    <glyph glyph-name="ogonek.case" horiz-adv-x="252" 
d="M187 0q-57 -48 -84 -98.5t-15 -82.5q10 -31 45 -31q36 0 63 27q7 5 8 -2l6 -14q2 -6 -2 -10q-36 -36 -87 -36q-58 0 -71 47q-14 41 13.5 96.5t89.5 103.5h34z" />
    <glyph glyph-name="ring.case" horiz-adv-x="240" 
d="M24 848q0 43 26.5 68.5t71.5 25.5q44 0 69.5 -25.5t25.5 -68.5q0 -44 -25.5 -69.5t-69.5 -25.5q-45 0 -71.5 25.5t-26.5 69.5zM192 848q0 32 -19 51t-51 19q-34 0 -53.5 -19t-19.5 -51t19.5 -51t53.5 -19q32 0 51 19t19 51z" />
    <glyph glyph-name="tilde.case" horiz-adv-x="305" 
d="M299 875q8 0 8 -8q0 -94 -75 -94q-36 0 -81.5 36t-74.5 36q-22 0 -35 -17.5t-13 -46.5q0 -8 -8 -8h-14q-8 0 -8 8q0 94 75 94q38 0 83.5 -36t73.5 -36q47 0 47 64q0 8 8 8h14z" />
    <glyph glyph-name="uni0326.alt" horiz-adv-x="0" 
d="M130 739q4 12 14 12h14q11 0 8 -10l-47 -146q-2 -12 -15 -12h-18q-17 0 -11 13z" />
    <glyph glyph-name="_375" horiz-adv-x="664" 
d="M339 710q13 0 17 -10l242 -647q6 -16 6 -25v-15q0 -13 -12 -13h-527q-12 0 -12 13v15q0 9 6 25l242 647q4 10 17 10h21zM366 552q-9 26 -20.5 65t-15.5 49h-3q-4 -11 -16 -50t-21 -64l-188 -512h453z" />
    <glyph glyph-name="_376" horiz-adv-x="744" 
d="M59 379q0 142 87 236.5t226 94.5t226 -94.5t87 -236.5q0 -112 -49.5 -198.5t-134.5 -137.5h185q12 0 12 -12v-18q0 -13 -12 -13h-245q-12 0 -12 13v14q0 8 7 11q96 49 150 135t54 202q0 122 -72 208t-196 86t-196 -86t-72 -208q0 -226 203 -337q8 -3 8 -11v-14
q0 -13 -12 -13h-245q-12 0 -12 13v18q0 12 12 12h186q-89 53 -137 140t-48 196z" />
    <glyph glyph-name="null" horiz-adv-x="142" 
 />
    </font>
</defs>
</svg>
